solid OpenSCAD_Model
  facet normal -2.03545e-16 0.707107 -0.707107
    outer loop
      vertex -9.55055 34.8752 22.1473
      vertex 2.22947 37.0236 24.2957
      vertex 2.40378 35.6148 22.8869
    endloop
  endfacet
  facet normal 1.11017e-16 0.707107 -0.707107
    outer loop
      vertex 2.22947 37.0236 24.2957
      vertex -9.55055 34.8752 22.1473
      vertex -9.72486 36.2841 23.5562
    endloop
  endfacet
  facet normal 5.87014e-06 -0.707106 0.707107
    outer loop
      vertex -9.55055 30.6326 26.39
      vertex 2.22947 32.781 28.5383
      vertex -9.72486 32.0414 27.7988
    endloop
  endfacet
  facet normal -3.08121e-06 -0.707082 0.707132
    outer loop
      vertex 2.22947 32.781 28.5383
      vertex -9.55055 30.6326 26.39
      vertex 2.40378 31.3721 27.1295
    endloop
  endfacet
  facet normal 0.087151 -0.704425 -0.704408
    outer loop
      vertex -9.55055 34.8752 22.1473
      vertex 2.40378 31.3721 27.1295
      vertex -9.55055 30.6326 26.39
    endloop
  endfacet
  facet normal 0.0871627 -0.704407 -0.704424
    outer loop
      vertex 2.40378 31.3721 27.1295
      vertex -9.55055 34.8752 22.1473
      vertex 2.40378 35.6148 22.8869
    endloop
  endfacet
  facet normal 0.996195 0.0616293 0.0616293
    outer loop
      vertex 2.22947 32.781 28.5383
      vertex 2.40378 35.6148 22.8869
      vertex 2.22947 37.0236 24.2957
    endloop
  endfacet
  facet normal 0.996195 0.0616264 0.0616278
    outer loop
      vertex 2.40378 35.6148 22.8869
      vertex 2.22947 32.781 28.5383
      vertex 2.40378 31.3721 27.1295
    endloop
  endfacet
  facet normal -0.0871568 0.704416 0.704416
    outer loop
      vertex 2.22947 37.0236 24.2957
      vertex -9.72486 32.0414 27.7988
      vertex 2.22947 32.781 28.5383
    endloop
  endfacet
  facet normal -0.087151 0.704408 0.704425
    outer loop
      vertex -9.72486 32.0414 27.7988
      vertex 2.22947 37.0236 24.2957
      vertex -9.72486 36.2841 23.5562
    endloop
  endfacet
  facet normal -0.996195 -0.0616242 -0.0616257
    outer loop
      vertex -9.55055 34.8752 22.1473
      vertex -9.72486 32.0414 27.7988
      vertex -9.72486 36.2841 23.5562
    endloop
  endfacet
  facet normal -0.996195 -0.06163 -0.0616286
    outer loop
      vertex -9.72486 32.0414 27.7988
      vertex -9.55055 34.8752 22.1473
      vertex -9.55055 30.6326 26.39
    endloop
  endfacet
endsolid OpenSCAD_Model
