solid OpenSCAD_Model
  facet normal 0.740935 0.671577 0
    outer loop
      vertex 11.5952 9.5159 -6
      vertex 10.6066 10.6066 -52
      vertex 10.6066 10.6066 -6
    endloop
  endfacet
  facet normal 0.740935 0.671577 0
    outer loop
      vertex 10.6066 10.6066 -52
      vertex 11.5952 9.5159 -6
      vertex 11.5952 9.5159 -52
    endloop
  endfacet
  facet normal 0.989176 0.146737 0
    outer loop
      vertex 14.9278 1.47026 -6
      vertex 14.7118 2.92635 -52
      vertex 14.7118 2.92635 -6
    endloop
  endfacet
  facet normal 0.989176 0.146737 0
    outer loop
      vertex 14.7118 2.92635 -52
      vertex 14.9278 1.47026 -6
      vertex 14.9278 1.47026 -52
    endloop
  endfacet
  facet normal 0.998796 0.0490479 0
    outer loop
      vertex 15 0 -6
      vertex 14.9278 1.47026 -52
      vertex 14.9278 1.47026 -6
    endloop
  endfacet
  facet normal 0.998796 0.0490479 0
    outer loop
      vertex 14.9278 1.47026 -52
      vertex 15 0 -6
      vertex 15 0 -52
    endloop
  endfacet
  facet normal 0.970027 0.242996 0
    outer loop
      vertex 14.7118 2.92635 -6
      vertex 14.3541 4.35427 -52
      vertex 14.3541 4.35427 -6
    endloop
  endfacet
  facet normal 0.970027 0.242996 0
    outer loop
      vertex 14.3541 4.35427 -52
      vertex 14.7118 2.92635 -6
      vertex 14.7118 2.92635 -52
    endloop
  endfacet
  facet normal 0.336883 -0.941547 0
    outer loop
      vertex 4.35427 -14.3541 -52
      vertex 5.74025 -13.8582 -6
      vertex 4.35427 -14.3541 -6
    endloop
  endfacet
  facet normal 0.336883 -0.941547 0
    outer loop
      vertex 5.74025 -13.8582 -6
      vertex 4.35427 -14.3541 -52
      vertex 5.74025 -13.8582 -52
    endloop
  endfacet
  facet normal 0.857721 0.514116 0
    outer loop
      vertex 13.2288 7.07095 -6
      vertex 12.472 8.33355 -52
      vertex 12.472 8.33355 -6
    endloop
  endfacet
  facet normal 0.857721 0.514116 0
    outer loop
      vertex 12.472 8.33355 -52
      vertex 13.2288 7.07095 -6
      vertex 13.2288 7.07095 -52
    endloop
  endfacet
  facet normal 0.941547 0.336883 0
    outer loop
      vertex 14.3541 4.35427 -6
      vertex 13.8582 5.74025 -52
      vertex 13.8582 5.74025 -6
    endloop
  endfacet
  facet normal 0.941547 0.336883 0
    outer loop
      vertex 13.8582 5.74025 -52
      vertex 14.3541 4.35427 -6
      vertex 14.3541 4.35427 -52
    endloop
  endfacet
  facet normal 0.242996 0.970027 -0
    outer loop
      vertex 4.35427 14.3541 -52
      vertex 2.92635 14.7118 -6
      vertex 4.35427 14.3541 -6
    endloop
  endfacet
  facet normal 0.242996 0.970027 0
    outer loop
      vertex 2.92635 14.7118 -6
      vertex 4.35427 14.3541 -52
      vertex 2.92635 14.7118 -52
    endloop
  endfacet
  facet normal -0.740935 0.671577 0
    outer loop
      vertex -11.5952 9.5159 -52
      vertex -10.6066 10.6066 -6
      vertex -10.6066 10.6066 -52
    endloop
  endfacet
  facet normal -0.740935 0.671577 0
    outer loop
      vertex -10.6066 10.6066 -6
      vertex -11.5952 9.5159 -52
      vertex -11.5952 9.5159 -6
    endloop
  endfacet
  facet normal 0.0490479 -0.998796 0
    outer loop
      vertex 0 -15 -52
      vertex 1.47026 -14.9278 -6
      vertex 0 -15 -6
    endloop
  endfacet
  facet normal 0.0490479 -0.998796 0
    outer loop
      vertex 1.47026 -14.9278 -6
      vertex 0 -15 -52
      vertex 1.47026 -14.9278 -52
    endloop
  endfacet
  facet normal 0.427569 0.903983 -0
    outer loop
      vertex 7.07095 13.2288 -52
      vertex 5.74025 13.8582 -6
      vertex 7.07095 13.2288 -6
    endloop
  endfacet
  facet normal 0.427569 0.903983 0
    outer loop
      vertex 5.74025 13.8582 -6
      vertex 7.07095 13.2288 -52
      vertex 5.74025 13.8582 -52
    endloop
  endfacet
  facet normal 0.671577 0.740935 -0
    outer loop
      vertex 10.6066 10.6066 -52
      vertex 9.5159 11.5952 -6
      vertex 10.6066 10.6066 -6
    endloop
  endfacet
  facet normal 0.671577 0.740935 0
    outer loop
      vertex 9.5159 11.5952 -6
      vertex 10.6066 10.6066 -52
      vertex 9.5159 11.5952 -52
    endloop
  endfacet
  facet normal -0.59566 -0.803237 0
    outer loop
      vertex -9.5159 -11.5952 -52
      vertex -8.33355 -12.472 -6
      vertex -9.5159 -11.5952 -6
    endloop
  endfacet
  facet normal -0.59566 -0.803237 -0
    outer loop
      vertex -8.33355 -12.472 -6
      vertex -9.5159 -11.5952 -52
      vertex -8.33355 -12.472 -52
    endloop
  endfacet
  facet normal 0.242996 -0.970027 0
    outer loop
      vertex 2.92635 -14.7118 -52
      vertex 4.35427 -14.3541 -6
      vertex 2.92635 -14.7118 -6
    endloop
  endfacet
  facet normal 0.242996 -0.970027 0
    outer loop
      vertex 4.35427 -14.3541 -6
      vertex 2.92635 -14.7118 -52
      vertex 4.35427 -14.3541 -52
    endloop
  endfacet
  facet normal 0.989176 -0.146737 0
    outer loop
      vertex 14.7118 -2.92635 -6
      vertex 14.9278 -1.47026 -52
      vertex 14.9278 -1.47026 -6
    endloop
  endfacet
  facet normal 0.989176 -0.146737 0
    outer loop
      vertex 14.9278 -1.47026 -52
      vertex 14.7118 -2.92635 -6
      vertex 14.7118 -2.92635 -52
    endloop
  endfacet
  facet normal 0.514116 -0.857721 0
    outer loop
      vertex 7.07095 -13.2288 -52
      vertex 8.33355 -12.472 -6
      vertex 7.07095 -13.2288 -6
    endloop
  endfacet
  facet normal 0.514116 -0.857721 0
    outer loop
      vertex 8.33355 -12.472 -6
      vertex 7.07095 -13.2288 -52
      vertex 8.33355 -12.472 -52
    endloop
  endfacet
  facet normal -0.242996 -0.970027 0
    outer loop
      vertex -4.35427 -14.3541 -52
      vertex -2.92635 -14.7118 -6
      vertex -4.35427 -14.3541 -6
    endloop
  endfacet
  facet normal -0.242996 -0.970027 -0
    outer loop
      vertex -2.92635 -14.7118 -6
      vertex -4.35427 -14.3541 -52
      vertex -2.92635 -14.7118 -52
    endloop
  endfacet
  facet normal -0.59566 0.803237 0
    outer loop
      vertex -8.33355 12.472 -52
      vertex -9.5159 11.5952 -6
      vertex -8.33355 12.472 -6
    endloop
  endfacet
  facet normal -0.59566 0.803237 0
    outer loop
      vertex -9.5159 11.5952 -6
      vertex -8.33355 12.472 -52
      vertex -9.5159 11.5952 -52
    endloop
  endfacet
  facet normal -0.998796 -0.0490479 0
    outer loop
      vertex -14.9278 -1.47026 -52
      vertex -15 0 -6
      vertex -15 0 -52
    endloop
  endfacet
  facet normal -0.998796 -0.0490479 0
    outer loop
      vertex -15 0 -6
      vertex -14.9278 -1.47026 -52
      vertex -14.9278 -1.47026 -6
    endloop
  endfacet
  facet normal -0.970027 -0.242996 0
    outer loop
      vertex -14.3541 -4.35427 -52
      vertex -14.7118 -2.92635 -6
      vertex -14.7118 -2.92635 -52
    endloop
  endfacet
  facet normal -0.970027 -0.242996 0
    outer loop
      vertex -14.7118 -2.92635 -6
      vertex -14.3541 -4.35427 -52
      vertex -14.3541 -4.35427 -6
    endloop
  endfacet
  facet normal 0.970027 -0.242996 0
    outer loop
      vertex 14.3541 -4.35427 -6
      vertex 14.7118 -2.92635 -52
      vertex 14.7118 -2.92635 -6
    endloop
  endfacet
  facet normal 0.970027 -0.242996 0
    outer loop
      vertex 14.7118 -2.92635 -52
      vertex 14.3541 -4.35427 -6
      vertex 14.3541 -4.35427 -52
    endloop
  endfacet
  facet normal -0.514116 0.857721 0
    outer loop
      vertex -7.07095 13.2288 -52
      vertex -8.33355 12.472 -6
      vertex -7.07095 13.2288 -6
    endloop
  endfacet
  facet normal -0.514116 0.857721 0
    outer loop
      vertex -8.33355 12.472 -6
      vertex -7.07095 13.2288 -52
      vertex -8.33355 12.472 -52
    endloop
  endfacet
  facet normal 0.59566 0.803237 -0
    outer loop
      vertex 9.5159 11.5952 -52
      vertex 8.33355 12.472 -6
      vertex 9.5159 11.5952 -6
    endloop
  endfacet
  facet normal 0.59566 0.803237 0
    outer loop
      vertex 8.33355 12.472 -6
      vertex 9.5159 11.5952 -52
      vertex 8.33355 12.472 -52
    endloop
  endfacet
  facet normal -0.903983 -0.427569 0
    outer loop
      vertex -13.2288 -7.07095 -52
      vertex -13.8582 -5.74025 -6
      vertex -13.8582 -5.74025 -52
    endloop
  endfacet
  facet normal -0.903983 -0.427569 0
    outer loop
      vertex -13.8582 -5.74025 -6
      vertex -13.2288 -7.07095 -52
      vertex -13.2288 -7.07095 -6
    endloop
  endfacet
  facet normal 0.941547 -0.336883 0
    outer loop
      vertex 13.8582 -5.74025 -6
      vertex 14.3541 -4.35427 -52
      vertex 14.3541 -4.35427 -6
    endloop
  endfacet
  facet normal 0.941547 -0.336883 0
    outer loop
      vertex 14.3541 -4.35427 -52
      vertex 13.8582 -5.74025 -6
      vertex 13.8582 -5.74025 -52
    endloop
  endfacet
  facet normal 0.146737 0.989176 -0
    outer loop
      vertex 2.92635 14.7118 -52
      vertex 1.47026 14.9278 -6
      vertex 2.92635 14.7118 -6
    endloop
  endfacet
  facet normal 0.146737 0.989176 0
    outer loop
      vertex 1.47026 14.9278 -6
      vertex 2.92635 14.7118 -52
      vertex 1.47026 14.9278 -52
    endloop
  endfacet
  facet normal -0.427569 0.903983 0
    outer loop
      vertex -5.74025 13.8582 -52
      vertex -7.07095 13.2288 -6
      vertex -5.74025 13.8582 -6
    endloop
  endfacet
  facet normal -0.427569 0.903983 0
    outer loop
      vertex -7.07095 13.2288 -6
      vertex -5.74025 13.8582 -52
      vertex -7.07095 13.2288 -52
    endloop
  endfacet
  facet normal 0.514116 0.857721 -0
    outer loop
      vertex 8.33355 12.472 -52
      vertex 7.07095 13.2288 -6
      vertex 8.33355 12.472 -6
    endloop
  endfacet
  facet normal 0.514116 0.857721 0
    outer loop
      vertex 7.07095 13.2288 -6
      vertex 8.33355 12.472 -52
      vertex 7.07095 13.2288 -52
    endloop
  endfacet
  facet normal 0.427569 -0.903983 0
    outer loop
      vertex 5.74025 -13.8582 -52
      vertex 7.07095 -13.2288 -6
      vertex 5.74025 -13.8582 -6
    endloop
  endfacet
  facet normal 0.427569 -0.903983 0
    outer loop
      vertex 7.07095 -13.2288 -6
      vertex 5.74025 -13.8582 -52
      vertex 7.07095 -13.2288 -52
    endloop
  endfacet
  facet normal -0.941547 -0.336883 0
    outer loop
      vertex -13.8582 -5.74025 -52
      vertex -14.3541 -4.35427 -6
      vertex -14.3541 -4.35427 -52
    endloop
  endfacet
  facet normal -0.941547 -0.336883 0
    outer loop
      vertex -14.3541 -4.35427 -6
      vertex -13.8582 -5.74025 -52
      vertex -13.8582 -5.74025 -6
    endloop
  endfacet
  facet normal 0.857721 -0.514116 0
    outer loop
      vertex 12.472 -8.33355 -6
      vertex 13.2288 -7.07095 -52
      vertex 13.2288 -7.07095 -6
    endloop
  endfacet
  facet normal 0.857721 -0.514116 0
    outer loop
      vertex 13.2288 -7.07095 -52
      vertex 12.472 -8.33355 -6
      vertex 12.472 -8.33355 -52
    endloop
  endfacet
  facet normal 0.903983 -0.427569 0
    outer loop
      vertex 13.2288 -7.07095 -6
      vertex 13.8582 -5.74025 -52
      vertex 13.8582 -5.74025 -6
    endloop
  endfacet
  facet normal 0.903983 -0.427569 0
    outer loop
      vertex 13.8582 -5.74025 -52
      vertex 13.2288 -7.07095 -6
      vertex 13.2288 -7.07095 -52
    endloop
  endfacet
  facet normal 0.998796 -0.0490479 0
    outer loop
      vertex 14.9278 -1.47026 -6
      vertex 15 0 -52
      vertex 15 0 -6
    endloop
  endfacet
  facet normal 0.998796 -0.0490479 0
    outer loop
      vertex 15 0 -52
      vertex 14.9278 -1.47026 -6
      vertex 14.9278 -1.47026 -52
    endloop
  endfacet
  facet normal -0.146737 0.989176 0
    outer loop
      vertex -1.47026 14.9278 -52
      vertex -2.92635 14.7118 -6
      vertex -1.47026 14.9278 -6
    endloop
  endfacet
  facet normal -0.146737 0.989176 0
    outer loop
      vertex -2.92635 14.7118 -6
      vertex -1.47026 14.9278 -52
      vertex -2.92635 14.7118 -52
    endloop
  endfacet
  facet normal 0.146737 -0.989176 0
    outer loop
      vertex 1.47026 -14.9278 -52
      vertex 2.92635 -14.7118 -6
      vertex 1.47026 -14.9278 -6
    endloop
  endfacet
  facet normal 0.146737 -0.989176 0
    outer loop
      vertex 2.92635 -14.7118 -6
      vertex 1.47026 -14.9278 -52
      vertex 2.92635 -14.7118 -52
    endloop
  endfacet
  facet normal 0.740935 -0.671577 0
    outer loop
      vertex 10.6066 -10.6066 -6
      vertex 11.5952 -9.5159 -52
      vertex 11.5952 -9.5159 -6
    endloop
  endfacet
  facet normal 0.740935 -0.671577 0
    outer loop
      vertex 11.5952 -9.5159 -52
      vertex 10.6066 -10.6066 -6
      vertex 10.6066 -10.6066 -52
    endloop
  endfacet
  facet normal 0.803237 -0.59566 0
    outer loop
      vertex 11.5952 -9.5159 -6
      vertex 12.472 -8.33355 -52
      vertex 12.472 -8.33355 -6
    endloop
  endfacet
  facet normal 0.803237 -0.59566 0
    outer loop
      vertex 12.472 -8.33355 -52
      vertex 11.5952 -9.5159 -6
      vertex 11.5952 -9.5159 -52
    endloop
  endfacet
  facet normal -0.242996 0.970027 0
    outer loop
      vertex -2.92635 14.7118 -52
      vertex -4.35427 14.3541 -6
      vertex -2.92635 14.7118 -6
    endloop
  endfacet
  facet normal -0.242996 0.970027 0
    outer loop
      vertex -4.35427 14.3541 -6
      vertex -2.92635 14.7118 -52
      vertex -4.35427 14.3541 -52
    endloop
  endfacet
  facet normal 0.803237 0.59566 0
    outer loop
      vertex 12.472 8.33355 -6
      vertex 11.5952 9.5159 -52
      vertex 11.5952 9.5159 -6
    endloop
  endfacet
  facet normal 0.803237 0.59566 0
    outer loop
      vertex 11.5952 9.5159 -52
      vertex 12.472 8.33355 -6
      vertex 12.472 8.33355 -52
    endloop
  endfacet
  facet normal 0.0490479 0.998796 -0
    outer loop
      vertex 1.47026 14.9278 -52
      vertex 0 15 -6
      vertex 1.47026 14.9278 -6
    endloop
  endfacet
  facet normal 0.0490479 0.998796 0
    outer loop
      vertex 0 15 -6
      vertex 1.47026 14.9278 -52
      vertex 0 15 -52
    endloop
  endfacet
  facet normal 0.903983 0.427569 0
    outer loop
      vertex 13.8582 5.74025 -6
      vertex 13.2288 7.07095 -52
      vertex 13.2288 7.07095 -6
    endloop
  endfacet
  facet normal 0.903983 0.427569 0
    outer loop
      vertex 13.2288 7.07095 -52
      vertex 13.8582 5.74025 -6
      vertex 13.8582 5.74025 -52
    endloop
  endfacet
  facet normal -0.857721 0.514116 0
    outer loop
      vertex -13.2288 7.07095 -52
      vertex -12.472 8.33355 -6
      vertex -12.472 8.33355 -52
    endloop
  endfacet
  facet normal -0.857721 0.514116 0
    outer loop
      vertex -12.472 8.33355 -6
      vertex -13.2288 7.07095 -52
      vertex -13.2288 7.07095 -6
    endloop
  endfacet
  facet normal -0.671577 0.740935 0
    outer loop
      vertex -9.5159 11.5952 -52
      vertex -10.6066 10.6066 -6
      vertex -9.5159 11.5952 -6
    endloop
  endfacet
  facet normal -0.671577 0.740935 0
    outer loop
      vertex -10.6066 10.6066 -6
      vertex -9.5159 11.5952 -52
      vertex -10.6066 10.6066 -52
    endloop
  endfacet
  facet normal -0.857721 -0.514116 0
    outer loop
      vertex -12.472 -8.33355 -52
      vertex -13.2288 -7.07095 -6
      vertex -13.2288 -7.07095 -52
    endloop
  endfacet
  facet normal -0.857721 -0.514116 0
    outer loop
      vertex -13.2288 -7.07095 -6
      vertex -12.472 -8.33355 -52
      vertex -12.472 -8.33355 -6
    endloop
  endfacet
  facet normal -0.427569 -0.903983 0
    outer loop
      vertex -7.07095 -13.2288 -52
      vertex -5.74025 -13.8582 -6
      vertex -7.07095 -13.2288 -6
    endloop
  endfacet
  facet normal -0.427569 -0.903983 -0
    outer loop
      vertex -5.74025 -13.8582 -6
      vertex -7.07095 -13.2288 -52
      vertex -5.74025 -13.8582 -52
    endloop
  endfacet
  facet normal -0.740935 -0.671577 0
    outer loop
      vertex -10.6066 -10.6066 -52
      vertex -11.5952 -9.5159 -6
      vertex -11.5952 -9.5159 -52
    endloop
  endfacet
  facet normal -0.740935 -0.671577 0
    outer loop
      vertex -11.5952 -9.5159 -6
      vertex -10.6066 -10.6066 -52
      vertex -10.6066 -10.6066 -6
    endloop
  endfacet
  facet normal -0.336883 0.941547 0
    outer loop
      vertex -4.35427 14.3541 -52
      vertex -5.74025 13.8582 -6
      vertex -4.35427 14.3541 -6
    endloop
  endfacet
  facet normal -0.336883 0.941547 0
    outer loop
      vertex -5.74025 13.8582 -6
      vertex -4.35427 14.3541 -52
      vertex -5.74025 13.8582 -52
    endloop
  endfacet
  facet normal -0.514116 -0.857721 0
    outer loop
      vertex -8.33355 -12.472 -52
      vertex -7.07095 -13.2288 -6
      vertex -8.33355 -12.472 -6
    endloop
  endfacet
  facet normal -0.514116 -0.857721 -0
    outer loop
      vertex -7.07095 -13.2288 -6
      vertex -8.33355 -12.472 -52
      vertex -7.07095 -13.2288 -52
    endloop
  endfacet
  facet normal 0.59566 -0.803237 0
    outer loop
      vertex 8.33355 -12.472 -52
      vertex 9.5159 -11.5952 -6
      vertex 8.33355 -12.472 -6
    endloop
  endfacet
  facet normal 0.59566 -0.803237 0
    outer loop
      vertex 9.5159 -11.5952 -6
      vertex 8.33355 -12.472 -52
      vertex 9.5159 -11.5952 -52
    endloop
  endfacet
  facet normal -0.0490479 0.998796 0
    outer loop
      vertex 0 15 -52
      vertex -1.47026 14.9278 -6
      vertex 0 15 -6
    endloop
  endfacet
  facet normal -0.0490479 0.998796 0
    outer loop
      vertex -1.47026 14.9278 -6
      vertex 0 15 -52
      vertex -1.47026 14.9278 -52
    endloop
  endfacet
  facet normal -0.970027 0.242996 0
    outer loop
      vertex -14.7118 2.92635 -52
      vertex -14.3541 4.35427 -6
      vertex -14.3541 4.35427 -52
    endloop
  endfacet
  facet normal -0.970027 0.242996 0
    outer loop
      vertex -14.3541 4.35427 -6
      vertex -14.7118 2.92635 -52
      vertex -14.7118 2.92635 -6
    endloop
  endfacet
  facet normal -0.941547 0.336883 0
    outer loop
      vertex -14.3541 4.35427 -52
      vertex -13.8582 5.74025 -6
      vertex -13.8582 5.74025 -52
    endloop
  endfacet
  facet normal -0.941547 0.336883 0
    outer loop
      vertex -13.8582 5.74025 -6
      vertex -14.3541 4.35427 -52
      vertex -14.3541 4.35427 -6
    endloop
  endfacet
  facet normal 0.336883 0.941547 -0
    outer loop
      vertex 5.74025 13.8582 -52
      vertex 4.35427 14.3541 -6
      vertex 5.74025 13.8582 -6
    endloop
  endfacet
  facet normal 0.336883 0.941547 0
    outer loop
      vertex 4.35427 14.3541 -6
      vertex 5.74025 13.8582 -52
      vertex 4.35427 14.3541 -52
    endloop
  endfacet
  facet normal -0.803237 -0.59566 0
    outer loop
      vertex -11.5952 -9.5159 -52
      vertex -12.472 -8.33355 -6
      vertex -12.472 -8.33355 -52
    endloop
  endfacet
  facet normal -0.803237 -0.59566 0
    outer loop
      vertex -12.472 -8.33355 -6
      vertex -11.5952 -9.5159 -52
      vertex -11.5952 -9.5159 -6
    endloop
  endfacet
  facet normal -0.989176 -0.146737 0
    outer loop
      vertex -14.7118 -2.92635 -52
      vertex -14.9278 -1.47026 -6
      vertex -14.9278 -1.47026 -52
    endloop
  endfacet
  facet normal -0.989176 -0.146737 0
    outer loop
      vertex -14.9278 -1.47026 -6
      vertex -14.7118 -2.92635 -52
      vertex -14.7118 -2.92635 -6
    endloop
  endfacet
  facet normal -0.903983 0.427569 0
    outer loop
      vertex -13.8582 5.74025 -52
      vertex -13.2288 7.07095 -6
      vertex -13.2288 7.07095 -52
    endloop
  endfacet
  facet normal -0.903983 0.427569 0
    outer loop
      vertex -13.2288 7.07095 -6
      vertex -13.8582 5.74025 -52
      vertex -13.8582 5.74025 -6
    endloop
  endfacet
  facet normal 0 0 -1
    outer loop
      vertex 12 0 -52
      vertex 15 0 -52
      vertex 14.9278 -1.47026 -52
    endloop
  endfacet
  facet normal 0 0 -1
    outer loop
      vertex 11.9422 -1.17621 -52
      vertex 14.9278 -1.47026 -52
      vertex 14.7118 -2.92635 -52
    endloop
  endfacet
  facet normal 0 0 -1
    outer loop
      vertex 15 0 -52
      vertex 12 0 -52
      vertex 14.9278 1.47026 -52
    endloop
  endfacet
  facet normal 0 0 -1
    outer loop
      vertex 11.7694 -2.34108 -52
      vertex 14.7118 -2.92635 -52
      vertex 14.3541 -4.35427 -52
    endloop
  endfacet
  facet normal 0 0 -1
    outer loop
      vertex 11.9422 1.17621 -52
      vertex 14.9278 1.47026 -52
      vertex 12 0 -52
    endloop
  endfacet
  facet normal 0 0 -1
    outer loop
      vertex 11.4833 -3.48342 -52
      vertex 14.3541 -4.35427 -52
      vertex 13.8582 -5.74025 -52
    endloop
  endfacet
  facet normal -0 0 -1
    outer loop
      vertex 14.9278 1.47026 -52
      vertex 11.9422 1.17621 -52
      vertex 14.7118 2.92635 -52
    endloop
  endfacet
  facet normal 0 0 -1
    outer loop
      vertex 11.0866 -4.5922 -52
      vertex 13.8582 -5.74025 -52
      vertex 13.2288 -7.07095 -52
    endloop
  endfacet
  facet normal 0 0 -1
    outer loop
      vertex 11.7694 2.34108 -52
      vertex 14.7118 2.92635 -52
      vertex 11.9422 1.17621 -52
    endloop
  endfacet
  facet normal 0 0 -1
    outer loop
      vertex 10.5831 -5.65676 -52
      vertex 13.2288 -7.07095 -52
      vertex 12.472 -8.33355 -52
    endloop
  endfacet
  facet normal -0 0 -1
    outer loop
      vertex 14.7118 2.92635 -52
      vertex 11.7694 2.34108 -52
      vertex 14.3541 4.35427 -52
    endloop
  endfacet
  facet normal 0 0 -1
    outer loop
      vertex 11.4833 3.48342 -52
      vertex 14.3541 4.35427 -52
      vertex 11.7694 2.34108 -52
    endloop
  endfacet
  facet normal 0 0 -1
    outer loop
      vertex 14.9278 -1.47026 -52
      vertex 11.9422 -1.17621 -52
      vertex 12 0 -52
    endloop
  endfacet
  facet normal 0 0 -1
    outer loop
      vertex 14.7118 -2.92635 -52
      vertex 11.7694 -2.34108 -52
      vertex 11.9422 -1.17621 -52
    endloop
  endfacet
  facet normal 0 0 -1
    outer loop
      vertex 9.97763 -6.66684 -52
      vertex 12.472 -8.33355 -52
      vertex 11.5952 -9.5159 -52
    endloop
  endfacet
  facet normal 0 0 -1
    outer loop
      vertex 14.3541 -4.35427 -52
      vertex 11.4833 -3.48342 -52
      vertex 11.7694 -2.34108 -52
    endloop
  endfacet
  facet normal 0 0 -1
    outer loop
      vertex 13.8582 -5.74025 -52
      vertex 11.0866 -4.5922 -52
      vertex 11.4833 -3.48342 -52
    endloop
  endfacet
  facet normal 0 0 -1
    outer loop
      vertex 9.27612 -7.61272 -52
      vertex 11.5952 -9.5159 -52
      vertex 10.6066 -10.6066 -52
    endloop
  endfacet
  facet normal 0 0 -1
    outer loop
      vertex 13.2288 -7.07095 -52
      vertex 10.5831 -5.65676 -52
      vertex 11.0866 -4.5922 -52
    endloop
  endfacet
  facet normal 0 0 -1
    outer loop
      vertex 12.472 -8.33355 -52
      vertex 9.97763 -6.66684 -52
      vertex 10.5831 -5.65676 -52
    endloop
  endfacet
  facet normal 0 0 -1
    outer loop
      vertex 8.48528 -8.48528 -52
      vertex 10.6066 -10.6066 -52
      vertex 9.5159 -11.5952 -52
    endloop
  endfacet
  facet normal 0 0 -1
    outer loop
      vertex 11.5952 -9.5159 -52
      vertex 9.27612 -7.61272 -52
      vertex 9.97763 -6.66684 -52
    endloop
  endfacet
  facet normal 0 0 -1
    outer loop
      vertex 10.6066 -10.6066 -52
      vertex 8.48528 -8.48528 -52
      vertex 9.27612 -7.61272 -52
    endloop
  endfacet
  facet normal 0 0 -1
    outer loop
      vertex 7.61272 -9.27612 -52
      vertex 9.5159 -11.5952 -52
      vertex 8.33355 -12.472 -52
    endloop
  endfacet
  facet normal 0 0 -1
    outer loop
      vertex 9.5159 -11.5952 -52
      vertex 7.61272 -9.27612 -52
      vertex 8.48528 -8.48528 -52
    endloop
  endfacet
  facet normal 0 0 -1
    outer loop
      vertex 6.66684 -9.97763 -52
      vertex 8.33355 -12.472 -52
      vertex 7.07095 -13.2288 -52
    endloop
  endfacet
  facet normal 0 0 -1
    outer loop
      vertex 8.33355 -12.472 -52
      vertex 6.66684 -9.97763 -52
      vertex 7.61272 -9.27612 -52
    endloop
  endfacet
  facet normal 0 0 -1
    outer loop
      vertex 5.65676 -10.5831 -52
      vertex 7.07095 -13.2288 -52
      vertex 5.74025 -13.8582 -52
    endloop
  endfacet
  facet normal 0 0 -1
    outer loop
      vertex 7.07095 -13.2288 -52
      vertex 5.65676 -10.5831 -52
      vertex 6.66684 -9.97763 -52
    endloop
  endfacet
  facet normal 0 0 -1
    outer loop
      vertex 5.74025 -13.8582 -52
      vertex 4.5922 -11.0866 -52
      vertex 5.65676 -10.5831 -52
    endloop
  endfacet
  facet normal 0 0 -1
    outer loop
      vertex 4.35427 -14.3541 -52
      vertex 4.5922 -11.0866 -52
      vertex 5.74025 -13.8582 -52
    endloop
  endfacet
  facet normal 0 0 -1
    outer loop
      vertex 4.35427 -14.3541 -52
      vertex 3.48342 -11.4833 -52
      vertex 4.5922 -11.0866 -52
    endloop
  endfacet
  facet normal 0 0 -1
    outer loop
      vertex 2.92635 -14.7118 -52
      vertex 3.48342 -11.4833 -52
      vertex 4.35427 -14.3541 -52
    endloop
  endfacet
  facet normal 0 0 -1
    outer loop
      vertex 2.92635 -14.7118 -52
      vertex 2.34108 -11.7694 -52
      vertex 3.48342 -11.4833 -52
    endloop
  endfacet
  facet normal 0 0 -1
    outer loop
      vertex 1.47026 -14.9278 -52
      vertex 2.34108 -11.7694 -52
      vertex 2.92635 -14.7118 -52
    endloop
  endfacet
  facet normal 0 0 -1
    outer loop
      vertex 1.47026 -14.9278 -52
      vertex 1.17621 -11.9422 -52
      vertex 2.34108 -11.7694 -52
    endloop
  endfacet
  facet normal 0 0 -1
    outer loop
      vertex 0 -15 -52
      vertex 1.17621 -11.9422 -52
      vertex 1.47026 -14.9278 -52
    endloop
  endfacet
  facet normal 0 0 -1
    outer loop
      vertex 0 -15 -52
      vertex 0 -12 -52
      vertex 1.17621 -11.9422 -52
    endloop
  endfacet
  facet normal 0 0 -1
    outer loop
      vertex 0 -15 -52
      vertex -1.17621 -11.9422 -52
      vertex 0 -12 -52
    endloop
  endfacet
  facet normal 0 0 -1
    outer loop
      vertex -1.47026 -14.9278 -52
      vertex -1.17621 -11.9422 -52
      vertex 0 -15 -52
    endloop
  endfacet
  facet normal 0 0 -1
    outer loop
      vertex -1.47026 -14.9278 -52
      vertex -2.34108 -11.7694 -52
      vertex -1.17621 -11.9422 -52
    endloop
  endfacet
  facet normal 0 0 -1
    outer loop
      vertex -2.92635 -14.7118 -52
      vertex -2.34108 -11.7694 -52
      vertex -1.47026 -14.9278 -52
    endloop
  endfacet
  facet normal 0 0 -1
    outer loop
      vertex -2.92635 -14.7118 -52
      vertex -3.48342 -11.4833 -52
      vertex -2.34108 -11.7694 -52
    endloop
  endfacet
  facet normal 0 0 -1
    outer loop
      vertex -4.35427 -14.3541 -52
      vertex -3.48342 -11.4833 -52
      vertex -2.92635 -14.7118 -52
    endloop
  endfacet
  facet normal 0 0 -1
    outer loop
      vertex -4.35427 -14.3541 -52
      vertex -4.5922 -11.0866 -52
      vertex -3.48342 -11.4833 -52
    endloop
  endfacet
  facet normal 0 0 -1
    outer loop
      vertex -5.74025 -13.8582 -52
      vertex -4.5922 -11.0866 -52
      vertex -4.35427 -14.3541 -52
    endloop
  endfacet
  facet normal -0 0 -1
    outer loop
      vertex -4.5922 -11.0866 -52
      vertex -5.74025 -13.8582 -52
      vertex -5.65676 -10.5831 -52
    endloop
  endfacet
  facet normal 0 0 -1
    outer loop
      vertex -7.07095 -13.2288 -52
      vertex -5.65676 -10.5831 -52
      vertex -5.74025 -13.8582 -52
    endloop
  endfacet
  facet normal -0 0 -1
    outer loop
      vertex -5.65676 -10.5831 -52
      vertex -7.07095 -13.2288 -52
      vertex -6.66684 -9.97763 -52
    endloop
  endfacet
  facet normal 0 0 -1
    outer loop
      vertex -8.33355 -12.472 -52
      vertex -6.66684 -9.97763 -52
      vertex -7.07095 -13.2288 -52
    endloop
  endfacet
  facet normal -0 0 -1
    outer loop
      vertex -6.66684 -9.97763 -52
      vertex -8.33355 -12.472 -52
      vertex -7.61272 -9.27612 -52
    endloop
  endfacet
  facet normal 0 0 -1
    outer loop
      vertex -9.5159 -11.5952 -52
      vertex -7.61272 -9.27612 -52
      vertex -8.33355 -12.472 -52
    endloop
  endfacet
  facet normal -0 0 -1
    outer loop
      vertex -7.61272 -9.27612 -52
      vertex -9.5159 -11.5952 -52
      vertex -8.48528 -8.48528 -52
    endloop
  endfacet
  facet normal 0 0 -1
    outer loop
      vertex -10.6066 -10.6066 -52
      vertex -8.48528 -8.48528 -52
      vertex -9.5159 -11.5952 -52
    endloop
  endfacet
  facet normal -0 0 -1
    outer loop
      vertex -8.48528 -8.48528 -52
      vertex -10.6066 -10.6066 -52
      vertex -9.27612 -7.61272 -52
    endloop
  endfacet
  facet normal 0 0 -1
    outer loop
      vertex -11.5952 -9.5159 -52
      vertex -9.27612 -7.61272 -52
      vertex -10.6066 -10.6066 -52
    endloop
  endfacet
  facet normal -0 0 -1
    outer loop
      vertex -9.27612 -7.61272 -52
      vertex -11.5952 -9.5159 -52
      vertex -9.97763 -6.66684 -52
    endloop
  endfacet
  facet normal 0 0 -1
    outer loop
      vertex -12.472 -8.33355 -52
      vertex -9.97763 -6.66684 -52
      vertex -11.5952 -9.5159 -52
    endloop
  endfacet
  facet normal -0 0 -1
    outer loop
      vertex -9.97763 -6.66684 -52
      vertex -12.472 -8.33355 -52
      vertex -10.5831 -5.65676 -52
    endloop
  endfacet
  facet normal 0 0 -1
    outer loop
      vertex -13.2288 -7.07095 -52
      vertex -10.5831 -5.65676 -52
      vertex -12.472 -8.33355 -52
    endloop
  endfacet
  facet normal -0 0 -1
    outer loop
      vertex -10.5831 -5.65676 -52
      vertex -13.2288 -7.07095 -52
      vertex -11.0866 -4.5922 -52
    endloop
  endfacet
  facet normal 0 0 -1
    outer loop
      vertex -13.8582 -5.74025 -52
      vertex -11.0866 -4.5922 -52
      vertex -13.2288 -7.07095 -52
    endloop
  endfacet
  facet normal -0 0 -1
    outer loop
      vertex -11.0866 -4.5922 -52
      vertex -13.8582 -5.74025 -52
      vertex -11.4833 -3.48342 -52
    endloop
  endfacet
  facet normal 0 0 -1
    outer loop
      vertex -14.3541 -4.35427 -52
      vertex -11.4833 -3.48342 -52
      vertex -13.8582 -5.74025 -52
    endloop
  endfacet
  facet normal -0 0 -1
    outer loop
      vertex 14.3541 4.35427 -52
      vertex 11.4833 3.48342 -52
      vertex 13.8582 5.74025 -52
    endloop
  endfacet
  facet normal 0 0 -1
    outer loop
      vertex 11.0866 4.5922 -52
      vertex 13.8582 5.74025 -52
      vertex 11.4833 3.48342 -52
    endloop
  endfacet
  facet normal -0 0 -1
    outer loop
      vertex 13.8582 5.74025 -52
      vertex 11.0866 4.5922 -52
      vertex 13.2288 7.07095 -52
    endloop
  endfacet
  facet normal 0 0 -1
    outer loop
      vertex 10.5831 5.65676 -52
      vertex 13.2288 7.07095 -52
      vertex 11.0866 4.5922 -52
    endloop
  endfacet
  facet normal -0 0 -1
    outer loop
      vertex 13.2288 7.07095 -52
      vertex 10.5831 5.65676 -52
      vertex 12.472 8.33355 -52
    endloop
  endfacet
  facet normal 0 0 -1
    outer loop
      vertex 9.97763 6.66684 -52
      vertex 12.472 8.33355 -52
      vertex 10.5831 5.65676 -52
    endloop
  endfacet
  facet normal -0 0 -1
    outer loop
      vertex 12.472 8.33355 -52
      vertex 9.97763 6.66684 -52
      vertex 11.5952 9.5159 -52
    endloop
  endfacet
  facet normal 0 0 -1
    outer loop
      vertex 9.27612 7.61272 -52
      vertex 11.5952 9.5159 -52
      vertex 9.97763 6.66684 -52
    endloop
  endfacet
  facet normal -0 0 -1
    outer loop
      vertex 11.5952 9.5159 -52
      vertex 9.27612 7.61272 -52
      vertex 10.6066 10.6066 -52
    endloop
  endfacet
  facet normal 0 0 -1
    outer loop
      vertex 8.48528 8.48528 -52
      vertex 10.6066 10.6066 -52
      vertex 9.27612 7.61272 -52
    endloop
  endfacet
  facet normal -0 0 -1
    outer loop
      vertex 10.6066 10.6066 -52
      vertex 8.48528 8.48528 -52
      vertex 9.5159 11.5952 -52
    endloop
  endfacet
  facet normal 0 0 -1
    outer loop
      vertex 7.61272 9.27612 -52
      vertex 9.5159 11.5952 -52
      vertex 8.48528 8.48528 -52
    endloop
  endfacet
  facet normal -0 0 -1
    outer loop
      vertex 9.5159 11.5952 -52
      vertex 7.61272 9.27612 -52
      vertex 8.33355 12.472 -52
    endloop
  endfacet
  facet normal 0 0 -1
    outer loop
      vertex 6.66684 9.97763 -52
      vertex 8.33355 12.472 -52
      vertex 7.61272 9.27612 -52
    endloop
  endfacet
  facet normal -0 0 -1
    outer loop
      vertex 8.33355 12.472 -52
      vertex 6.66684 9.97763 -52
      vertex 7.07095 13.2288 -52
    endloop
  endfacet
  facet normal 0 0 -1
    outer loop
      vertex 5.65676 10.5831 -52
      vertex 7.07095 13.2288 -52
      vertex 6.66684 9.97763 -52
    endloop
  endfacet
  facet normal -0 0 -1
    outer loop
      vertex 7.07095 13.2288 -52
      vertex 5.65676 10.5831 -52
      vertex 5.74025 13.8582 -52
    endloop
  endfacet
  facet normal 0 0 -1
    outer loop
      vertex 4.5922 11.0866 -52
      vertex 5.74025 13.8582 -52
      vertex 5.65676 10.5831 -52
    endloop
  endfacet
  facet normal 0 0 -1
    outer loop
      vertex 4.5922 11.0866 -52
      vertex 4.35427 14.3541 -52
      vertex 5.74025 13.8582 -52
    endloop
  endfacet
  facet normal 0 0 -1
    outer loop
      vertex 3.48342 11.4833 -52
      vertex 4.35427 14.3541 -52
      vertex 4.5922 11.0866 -52
    endloop
  endfacet
  facet normal 0 0 -1
    outer loop
      vertex 3.48342 11.4833 -52
      vertex 2.92635 14.7118 -52
      vertex 4.35427 14.3541 -52
    endloop
  endfacet
  facet normal 0 0 -1
    outer loop
      vertex 2.34108 11.7694 -52
      vertex 2.92635 14.7118 -52
      vertex 3.48342 11.4833 -52
    endloop
  endfacet
  facet normal 0 0 -1
    outer loop
      vertex 2.34108 11.7694 -52
      vertex 1.47026 14.9278 -52
      vertex 2.92635 14.7118 -52
    endloop
  endfacet
  facet normal 0 0 -1
    outer loop
      vertex 1.17621 11.9422 -52
      vertex 1.47026 14.9278 -52
      vertex 2.34108 11.7694 -52
    endloop
  endfacet
  facet normal 0 0 -1
    outer loop
      vertex 0 12 -52
      vertex 1.47026 14.9278 -52
      vertex 1.17621 11.9422 -52
    endloop
  endfacet
  facet normal 0 0 -1
    outer loop
      vertex 0 12 -52
      vertex 0 15 -52
      vertex 1.47026 14.9278 -52
    endloop
  endfacet
  facet normal 0 0 -1
    outer loop
      vertex -1.17621 11.9422 -52
      vertex 0 15 -52
      vertex 0 12 -52
    endloop
  endfacet
  facet normal 0 0 -1
    outer loop
      vertex -1.17621 11.9422 -52
      vertex -1.47026 14.9278 -52
      vertex 0 15 -52
    endloop
  endfacet
  facet normal 0 0 -1
    outer loop
      vertex -2.34108 11.7694 -52
      vertex -1.47026 14.9278 -52
      vertex -1.17621 11.9422 -52
    endloop
  endfacet
  facet normal 0 0 -1
    outer loop
      vertex -2.34108 11.7694 -52
      vertex -2.92635 14.7118 -52
      vertex -1.47026 14.9278 -52
    endloop
  endfacet
  facet normal 0 0 -1
    outer loop
      vertex -3.48342 11.4833 -52
      vertex -2.92635 14.7118 -52
      vertex -2.34108 11.7694 -52
    endloop
  endfacet
  facet normal 0 0 -1
    outer loop
      vertex -3.48342 11.4833 -52
      vertex -4.35427 14.3541 -52
      vertex -2.92635 14.7118 -52
    endloop
  endfacet
  facet normal 0 0 -1
    outer loop
      vertex -4.5922 11.0866 -52
      vertex -4.35427 14.3541 -52
      vertex -3.48342 11.4833 -52
    endloop
  endfacet
  facet normal 0 0 -1
    outer loop
      vertex -5.74025 13.8582 -52
      vertex -4.5922 11.0866 -52
      vertex -5.65676 10.5831 -52
    endloop
  endfacet
  facet normal 0 0 -1
    outer loop
      vertex -4.5922 11.0866 -52
      vertex -5.74025 13.8582 -52
      vertex -4.35427 14.3541 -52
    endloop
  endfacet
  facet normal 0 0 -1
    outer loop
      vertex -7.07095 13.2288 -52
      vertex -5.65676 10.5831 -52
      vertex -6.66684 9.97763 -52
    endloop
  endfacet
  facet normal 0 0 -1
    outer loop
      vertex -5.65676 10.5831 -52
      vertex -7.07095 13.2288 -52
      vertex -5.74025 13.8582 -52
    endloop
  endfacet
  facet normal 0 0 -1
    outer loop
      vertex -8.33355 12.472 -52
      vertex -6.66684 9.97763 -52
      vertex -7.61272 9.27612 -52
    endloop
  endfacet
  facet normal 0 0 -1
    outer loop
      vertex -6.66684 9.97763 -52
      vertex -8.33355 12.472 -52
      vertex -7.07095 13.2288 -52
    endloop
  endfacet
  facet normal 0 0 -1
    outer loop
      vertex -9.5159 11.5952 -52
      vertex -7.61272 9.27612 -52
      vertex -8.48528 8.48528 -52
    endloop
  endfacet
  facet normal 0 0 -1
    outer loop
      vertex -10.6066 10.6066 -52
      vertex -8.48528 8.48528 -52
      vertex -9.27612 7.61272 -52
    endloop
  endfacet
  facet normal 0 0 -1
    outer loop
      vertex -7.61272 9.27612 -52
      vertex -9.5159 11.5952 -52
      vertex -8.33355 12.472 -52
    endloop
  endfacet
  facet normal 0 0 -1
    outer loop
      vertex -11.5952 9.5159 -52
      vertex -9.27612 7.61272 -52
      vertex -9.97763 6.66684 -52
    endloop
  endfacet
  facet normal 0 0 -1
    outer loop
      vertex -12.472 8.33355 -52
      vertex -9.97763 6.66684 -52
      vertex -10.5831 5.65676 -52
    endloop
  endfacet
  facet normal 0 0 -1
    outer loop
      vertex -8.48528 8.48528 -52
      vertex -10.6066 10.6066 -52
      vertex -9.5159 11.5952 -52
    endloop
  endfacet
  facet normal 0 0 -1
    outer loop
      vertex -13.2288 7.07095 -52
      vertex -10.5831 5.65676 -52
      vertex -11.0866 4.5922 -52
    endloop
  endfacet
  facet normal 0 0 -1
    outer loop
      vertex -13.8582 5.74025 -52
      vertex -11.0866 4.5922 -52
      vertex -11.4833 3.48342 -52
    endloop
  endfacet
  facet normal 0 0 -1
    outer loop
      vertex -9.27612 7.61272 -52
      vertex -11.5952 9.5159 -52
      vertex -10.6066 10.6066 -52
    endloop
  endfacet
  facet normal 0 0 -1
    outer loop
      vertex -14.3541 4.35427 -52
      vertex -11.4833 3.48342 -52
      vertex -11.7694 2.34108 -52
    endloop
  endfacet
  facet normal 0 0 -1
    outer loop
      vertex -14.7118 2.92635 -52
      vertex -11.7694 2.34108 -52
      vertex -11.9422 1.17621 -52
    endloop
  endfacet
  facet normal 0 0 -1
    outer loop
      vertex -14.9278 1.47026 -52
      vertex -11.9422 1.17621 -52
      vertex -12 0 -52
    endloop
  endfacet
  facet normal -0 0 -1
    outer loop
      vertex -11.4833 -3.48342 -52
      vertex -14.3541 -4.35427 -52
      vertex -11.7694 -2.34108 -52
    endloop
  endfacet
  facet normal 0 0 -1
    outer loop
      vertex -9.97763 6.66684 -52
      vertex -12.472 8.33355 -52
      vertex -11.5952 9.5159 -52
    endloop
  endfacet
  facet normal 0 0 -1
    outer loop
      vertex -14.7118 -2.92635 -52
      vertex -11.7694 -2.34108 -52
      vertex -14.3541 -4.35427 -52
    endloop
  endfacet
  facet normal 0 0 -1
    outer loop
      vertex -10.5831 5.65676 -52
      vertex -13.2288 7.07095 -52
      vertex -12.472 8.33355 -52
    endloop
  endfacet
  facet normal -0 0 -1
    outer loop
      vertex -11.7694 -2.34108 -52
      vertex -14.7118 -2.92635 -52
      vertex -11.9422 -1.17621 -52
    endloop
  endfacet
  facet normal 0 0 -1
    outer loop
      vertex -11.0866 4.5922 -52
      vertex -13.8582 5.74025 -52
      vertex -13.2288 7.07095 -52
    endloop
  endfacet
  facet normal 0 0 -1
    outer loop
      vertex -14.9278 -1.47026 -52
      vertex -11.9422 -1.17621 -52
      vertex -14.7118 -2.92635 -52
    endloop
  endfacet
  facet normal 0 0 -1
    outer loop
      vertex -11.4833 3.48342 -52
      vertex -14.3541 4.35427 -52
      vertex -13.8582 5.74025 -52
    endloop
  endfacet
  facet normal -0 0 -1
    outer loop
      vertex -11.9422 -1.17621 -52
      vertex -14.9278 -1.47026 -52
      vertex -12 0 -52
    endloop
  endfacet
  facet normal 0 0 -1
    outer loop
      vertex -11.7694 2.34108 -52
      vertex -14.7118 2.92635 -52
      vertex -14.3541 4.35427 -52
    endloop
  endfacet
  facet normal 0 0 -1
    outer loop
      vertex -15 0 -52
      vertex -12 0 -52
      vertex -14.9278 -1.47026 -52
    endloop
  endfacet
  facet normal 0 0 -1
    outer loop
      vertex -11.9422 1.17621 -52
      vertex -14.9278 1.47026 -52
      vertex -14.7118 2.92635 -52
    endloop
  endfacet
  facet normal 0 0 -1
    outer loop
      vertex -12 0 -52
      vertex -15 0 -52
      vertex -14.9278 1.47026 -52
    endloop
  endfacet
  facet normal -0.671577 -0.740935 0
    outer loop
      vertex -10.6066 -10.6066 -52
      vertex -9.5159 -11.5952 -6
      vertex -10.6066 -10.6066 -6
    endloop
  endfacet
  facet normal -0.671577 -0.740935 -0
    outer loop
      vertex -9.5159 -11.5952 -6
      vertex -10.6066 -10.6066 -52
      vertex -9.5159 -11.5952 -52
    endloop
  endfacet
  facet normal -0.803237 0.59566 0
    outer loop
      vertex -12.472 8.33355 -52
      vertex -11.5952 9.5159 -6
      vertex -11.5952 9.5159 -52
    endloop
  endfacet
  facet normal -0.803237 0.59566 0
    outer loop
      vertex -11.5952 9.5159 -6
      vertex -12.472 8.33355 -52
      vertex -12.472 8.33355 -6
    endloop
  endfacet
  facet normal -0.0490479 -0.998796 0
    outer loop
      vertex -1.47026 -14.9278 -52
      vertex 0 -15 -6
      vertex -1.47026 -14.9278 -6
    endloop
  endfacet
  facet normal -0.0490479 -0.998796 -0
    outer loop
      vertex 0 -15 -6
      vertex -1.47026 -14.9278 -52
      vertex 0 -15 -52
    endloop
  endfacet
  facet normal -0.146737 -0.989176 0
    outer loop
      vertex -2.92635 -14.7118 -52
      vertex -1.47026 -14.9278 -6
      vertex -2.92635 -14.7118 -6
    endloop
  endfacet
  facet normal -0.146737 -0.989176 -0
    outer loop
      vertex -1.47026 -14.9278 -6
      vertex -2.92635 -14.7118 -52
      vertex -1.47026 -14.9278 -52
    endloop
  endfacet
  facet normal -0.989176 0.146737 0
    outer loop
      vertex -14.9278 1.47026 -52
      vertex -14.7118 2.92635 -6
      vertex -14.7118 2.92635 -52
    endloop
  endfacet
  facet normal -0.989176 0.146737 0
    outer loop
      vertex -14.7118 2.92635 -6
      vertex -14.9278 1.47026 -52
      vertex -14.9278 1.47026 -6
    endloop
  endfacet
  facet normal -0.998796 0.0490479 0
    outer loop
      vertex -15 0 -52
      vertex -14.9278 1.47026 -6
      vertex -14.9278 1.47026 -52
    endloop
  endfacet
  facet normal -0.998796 0.0490479 0
    outer loop
      vertex -14.9278 1.47026 -6
      vertex -15 0 -52
      vertex -15 0 -6
    endloop
  endfacet
  facet normal -0.336883 -0.941547 0
    outer loop
      vertex -5.74025 -13.8582 -52
      vertex -4.35427 -14.3541 -6
      vertex -5.74025 -13.8582 -6
    endloop
  endfacet
  facet normal -0.336883 -0.941547 -0
    outer loop
      vertex -4.35427 -14.3541 -6
      vertex -5.74025 -13.8582 -52
      vertex -4.35427 -14.3541 -52
    endloop
  endfacet
  facet normal 0.671577 -0.740935 0
    outer loop
      vertex 9.5159 -11.5952 -52
      vertex 10.6066 -10.6066 -6
      vertex 9.5159 -11.5952 -6
    endloop
  endfacet
  facet normal 0.671577 -0.740935 0
    outer loop
      vertex 10.6066 -10.6066 -6
      vertex 9.5159 -11.5952 -52
      vertex 10.6066 -10.6066 -52
    endloop
  endfacet
  facet normal 0 0 1
    outer loop
      vertex 12 0 -6
      vertex 15 0 -6
      vertex 14.9278 1.47026 -6
    endloop
  endfacet
  facet normal 0 0 1
    outer loop
      vertex 11.9422 1.17621 -6
      vertex 14.9278 1.47026 -6
      vertex 14.7118 2.92635 -6
    endloop
  endfacet
  facet normal 0 0 1
    outer loop
      vertex 15 0 -6
      vertex 12 0 -6
      vertex 14.9278 -1.47026 -6
    endloop
  endfacet
  facet normal 0 0 1
    outer loop
      vertex 11.7694 2.34108 -6
      vertex 14.7118 2.92635 -6
      vertex 14.3541 4.35427 -6
    endloop
  endfacet
  facet normal -0 0 1
    outer loop
      vertex 11.9422 -1.17621 -6
      vertex 14.9278 -1.47026 -6
      vertex 12 0 -6
    endloop
  endfacet
  facet normal 0 0 1
    outer loop
      vertex 11.4833 3.48342 -6
      vertex 14.3541 4.35427 -6
      vertex 13.8582 5.74025 -6
    endloop
  endfacet
  facet normal 0 0 1
    outer loop
      vertex 14.9278 -1.47026 -6
      vertex 11.9422 -1.17621 -6
      vertex 14.7118 -2.92635 -6
    endloop
  endfacet
  facet normal 0 0 1
    outer loop
      vertex 11.0866 4.5922 -6
      vertex 13.8582 5.74025 -6
      vertex 13.2288 7.07095 -6
    endloop
  endfacet
  facet normal -0 0 1
    outer loop
      vertex 11.7694 -2.34108 -6
      vertex 14.7118 -2.92635 -6
      vertex 11.9422 -1.17621 -6
    endloop
  endfacet
  facet normal 0 0 1
    outer loop
      vertex 10.5831 5.65676 -6
      vertex 13.2288 7.07095 -6
      vertex 12.472 8.33355 -6
    endloop
  endfacet
  facet normal 0 0 1
    outer loop
      vertex 14.7118 -2.92635 -6
      vertex 11.7694 -2.34108 -6
      vertex 14.3541 -4.35427 -6
    endloop
  endfacet
  facet normal -0 0 1
    outer loop
      vertex 11.4833 -3.48342 -6
      vertex 14.3541 -4.35427 -6
      vertex 11.7694 -2.34108 -6
    endloop
  endfacet
  facet normal 0 0 1
    outer loop
      vertex 14.9278 1.47026 -6
      vertex 11.9422 1.17621 -6
      vertex 12 0 -6
    endloop
  endfacet
  facet normal 0 0 1
    outer loop
      vertex 14.7118 2.92635 -6
      vertex 11.7694 2.34108 -6
      vertex 11.9422 1.17621 -6
    endloop
  endfacet
  facet normal 0 0 1
    outer loop
      vertex 9.97763 6.66684 -6
      vertex 12.472 8.33355 -6
      vertex 11.5952 9.5159 -6
    endloop
  endfacet
  facet normal 0 0 1
    outer loop
      vertex 14.3541 4.35427 -6
      vertex 11.4833 3.48342 -6
      vertex 11.7694 2.34108 -6
    endloop
  endfacet
  facet normal 0 0 1
    outer loop
      vertex 13.8582 5.74025 -6
      vertex 11.0866 4.5922 -6
      vertex 11.4833 3.48342 -6
    endloop
  endfacet
  facet normal 0 0 1
    outer loop
      vertex 9.27612 7.61272 -6
      vertex 11.5952 9.5159 -6
      vertex 10.6066 10.6066 -6
    endloop
  endfacet
  facet normal 0 0 1
    outer loop
      vertex 13.2288 7.07095 -6
      vertex 10.5831 5.65676 -6
      vertex 11.0866 4.5922 -6
    endloop
  endfacet
  facet normal 0 0 1
    outer loop
      vertex 12.472 8.33355 -6
      vertex 9.97763 6.66684 -6
      vertex 10.5831 5.65676 -6
    endloop
  endfacet
  facet normal 0 0 1
    outer loop
      vertex 8.48528 8.48528 -6
      vertex 10.6066 10.6066 -6
      vertex 9.5159 11.5952 -6
    endloop
  endfacet
  facet normal 0 0 1
    outer loop
      vertex 11.5952 9.5159 -6
      vertex 9.27612 7.61272 -6
      vertex 9.97763 6.66684 -6
    endloop
  endfacet
  facet normal 0 0 1
    outer loop
      vertex 10.6066 10.6066 -6
      vertex 8.48528 8.48528 -6
      vertex 9.27612 7.61272 -6
    endloop
  endfacet
  facet normal 0 0 1
    outer loop
      vertex 7.61272 9.27612 -6
      vertex 9.5159 11.5952 -6
      vertex 8.33355 12.472 -6
    endloop
  endfacet
  facet normal 0 0 1
    outer loop
      vertex 9.5159 11.5952 -6
      vertex 7.61272 9.27612 -6
      vertex 8.48528 8.48528 -6
    endloop
  endfacet
  facet normal 0 0 1
    outer loop
      vertex 6.66684 9.97763 -6
      vertex 8.33355 12.472 -6
      vertex 7.07095 13.2288 -6
    endloop
  endfacet
  facet normal 0 0 1
    outer loop
      vertex 8.33355 12.472 -6
      vertex 6.66684 9.97763 -6
      vertex 7.61272 9.27612 -6
    endloop
  endfacet
  facet normal 0 0 1
    outer loop
      vertex 5.65676 10.5831 -6
      vertex 7.07095 13.2288 -6
      vertex 5.74025 13.8582 -6
    endloop
  endfacet
  facet normal 0 0 1
    outer loop
      vertex 7.07095 13.2288 -6
      vertex 5.65676 10.5831 -6
      vertex 6.66684 9.97763 -6
    endloop
  endfacet
  facet normal 0 0 1
    outer loop
      vertex 5.74025 13.8582 -6
      vertex 4.5922 11.0866 -6
      vertex 5.65676 10.5831 -6
    endloop
  endfacet
  facet normal 0 0 1
    outer loop
      vertex 4.35427 14.3541 -6
      vertex 4.5922 11.0866 -6
      vertex 5.74025 13.8582 -6
    endloop
  endfacet
  facet normal 0 0 1
    outer loop
      vertex 4.35427 14.3541 -6
      vertex 3.48342 11.4833 -6
      vertex 4.5922 11.0866 -6
    endloop
  endfacet
  facet normal 0 0 1
    outer loop
      vertex 2.92635 14.7118 -6
      vertex 3.48342 11.4833 -6
      vertex 4.35427 14.3541 -6
    endloop
  endfacet
  facet normal 0 0 1
    outer loop
      vertex 2.92635 14.7118 -6
      vertex 2.34108 11.7694 -6
      vertex 3.48342 11.4833 -6
    endloop
  endfacet
  facet normal 0 0 1
    outer loop
      vertex 1.47026 14.9278 -6
      vertex 2.34108 11.7694 -6
      vertex 2.92635 14.7118 -6
    endloop
  endfacet
  facet normal 0 0 1
    outer loop
      vertex 1.47026 14.9278 -6
      vertex 1.17621 11.9422 -6
      vertex 2.34108 11.7694 -6
    endloop
  endfacet
  facet normal 0 0 1
    outer loop
      vertex 0 15 -6
      vertex 1.17621 11.9422 -6
      vertex 1.47026 14.9278 -6
    endloop
  endfacet
  facet normal 0 0 1
    outer loop
      vertex 0 15 -6
      vertex 0 12 -6
      vertex 1.17621 11.9422 -6
    endloop
  endfacet
  facet normal 0 0 1
    outer loop
      vertex 0 15 -6
      vertex -1.17621 11.9422 -6
      vertex 0 12 -6
    endloop
  endfacet
  facet normal -0 0 1
    outer loop
      vertex -1.47026 14.9278 -6
      vertex -1.17621 11.9422 -6
      vertex 0 15 -6
    endloop
  endfacet
  facet normal 0 0 1
    outer loop
      vertex -1.47026 14.9278 -6
      vertex -2.34108 11.7694 -6
      vertex -1.17621 11.9422 -6
    endloop
  endfacet
  facet normal -0 0 1
    outer loop
      vertex -2.92635 14.7118 -6
      vertex -2.34108 11.7694 -6
      vertex -1.47026 14.9278 -6
    endloop
  endfacet
  facet normal 0 0 1
    outer loop
      vertex -2.92635 14.7118 -6
      vertex -3.48342 11.4833 -6
      vertex -2.34108 11.7694 -6
    endloop
  endfacet
  facet normal -0 0 1
    outer loop
      vertex -4.35427 14.3541 -6
      vertex -3.48342 11.4833 -6
      vertex -2.92635 14.7118 -6
    endloop
  endfacet
  facet normal 0 0 1
    outer loop
      vertex -4.35427 14.3541 -6
      vertex -4.5922 11.0866 -6
      vertex -3.48342 11.4833 -6
    endloop
  endfacet
  facet normal -0 0 1
    outer loop
      vertex -5.74025 13.8582 -6
      vertex -4.5922 11.0866 -6
      vertex -4.35427 14.3541 -6
    endloop
  endfacet
  facet normal 0 0 1
    outer loop
      vertex -4.5922 11.0866 -6
      vertex -5.74025 13.8582 -6
      vertex -5.65676 10.5831 -6
    endloop
  endfacet
  facet normal -0 0 1
    outer loop
      vertex -7.07095 13.2288 -6
      vertex -5.65676 10.5831 -6
      vertex -5.74025 13.8582 -6
    endloop
  endfacet
  facet normal 0 0 1
    outer loop
      vertex -5.65676 10.5831 -6
      vertex -7.07095 13.2288 -6
      vertex -6.66684 9.97763 -6
    endloop
  endfacet
  facet normal -0 0 1
    outer loop
      vertex -8.33355 12.472 -6
      vertex -6.66684 9.97763 -6
      vertex -7.07095 13.2288 -6
    endloop
  endfacet
  facet normal 0 0 1
    outer loop
      vertex -6.66684 9.97763 -6
      vertex -8.33355 12.472 -6
      vertex -7.61272 9.27612 -6
    endloop
  endfacet
  facet normal -0 0 1
    outer loop
      vertex -9.5159 11.5952 -6
      vertex -7.61272 9.27612 -6
      vertex -8.33355 12.472 -6
    endloop
  endfacet
  facet normal 0 0 1
    outer loop
      vertex -7.61272 9.27612 -6
      vertex -9.5159 11.5952 -6
      vertex -8.48528 8.48528 -6
    endloop
  endfacet
  facet normal -0 0 1
    outer loop
      vertex -10.6066 10.6066 -6
      vertex -8.48528 8.48528 -6
      vertex -9.5159 11.5952 -6
    endloop
  endfacet
  facet normal 0 0 1
    outer loop
      vertex -8.48528 8.48528 -6
      vertex -10.6066 10.6066 -6
      vertex -9.27612 7.61272 -6
    endloop
  endfacet
  facet normal -0 0 1
    outer loop
      vertex -11.5952 9.5159 -6
      vertex -9.27612 7.61272 -6
      vertex -10.6066 10.6066 -6
    endloop
  endfacet
  facet normal 0 0 1
    outer loop
      vertex -9.27612 7.61272 -6
      vertex -11.5952 9.5159 -6
      vertex -9.97763 6.66684 -6
    endloop
  endfacet
  facet normal -0 0 1
    outer loop
      vertex -12.472 8.33355 -6
      vertex -9.97763 6.66684 -6
      vertex -11.5952 9.5159 -6
    endloop
  endfacet
  facet normal 0 0 1
    outer loop
      vertex -9.97763 6.66684 -6
      vertex -12.472 8.33355 -6
      vertex -10.5831 5.65676 -6
    endloop
  endfacet
  facet normal -0 0 1
    outer loop
      vertex -13.2288 7.07095 -6
      vertex -10.5831 5.65676 -6
      vertex -12.472 8.33355 -6
    endloop
  endfacet
  facet normal 0 0 1
    outer loop
      vertex -10.5831 5.65676 -6
      vertex -13.2288 7.07095 -6
      vertex -11.0866 4.5922 -6
    endloop
  endfacet
  facet normal -0 0 1
    outer loop
      vertex -13.8582 5.74025 -6
      vertex -11.0866 4.5922 -6
      vertex -13.2288 7.07095 -6
    endloop
  endfacet
  facet normal 0 0 1
    outer loop
      vertex -11.0866 4.5922 -6
      vertex -13.8582 5.74025 -6
      vertex -11.4833 3.48342 -6
    endloop
  endfacet
  facet normal -0 0 1
    outer loop
      vertex -14.3541 4.35427 -6
      vertex -11.4833 3.48342 -6
      vertex -13.8582 5.74025 -6
    endloop
  endfacet
  facet normal 0 0 1
    outer loop
      vertex 14.3541 -4.35427 -6
      vertex 11.4833 -3.48342 -6
      vertex 13.8582 -5.74025 -6
    endloop
  endfacet
  facet normal -0 0 1
    outer loop
      vertex 11.0866 -4.5922 -6
      vertex 13.8582 -5.74025 -6
      vertex 11.4833 -3.48342 -6
    endloop
  endfacet
  facet normal 0 0 1
    outer loop
      vertex 13.8582 -5.74025 -6
      vertex 11.0866 -4.5922 -6
      vertex 13.2288 -7.07095 -6
    endloop
  endfacet
  facet normal -0 0 1
    outer loop
      vertex 10.5831 -5.65676 -6
      vertex 13.2288 -7.07095 -6
      vertex 11.0866 -4.5922 -6
    endloop
  endfacet
  facet normal 0 0 1
    outer loop
      vertex 13.2288 -7.07095 -6
      vertex 10.5831 -5.65676 -6
      vertex 12.472 -8.33355 -6
    endloop
  endfacet
  facet normal -0 0 1
    outer loop
      vertex 9.97763 -6.66684 -6
      vertex 12.472 -8.33355 -6
      vertex 10.5831 -5.65676 -6
    endloop
  endfacet
  facet normal 0 0 1
    outer loop
      vertex 12.472 -8.33355 -6
      vertex 9.97763 -6.66684 -6
      vertex 11.5952 -9.5159 -6
    endloop
  endfacet
  facet normal -0 0 1
    outer loop
      vertex 9.27612 -7.61272 -6
      vertex 11.5952 -9.5159 -6
      vertex 9.97763 -6.66684 -6
    endloop
  endfacet
  facet normal 0 0 1
    outer loop
      vertex 11.5952 -9.5159 -6
      vertex 9.27612 -7.61272 -6
      vertex 10.6066 -10.6066 -6
    endloop
  endfacet
  facet normal -0 0 1
    outer loop
      vertex 8.48528 -8.48528 -6
      vertex 10.6066 -10.6066 -6
      vertex 9.27612 -7.61272 -6
    endloop
  endfacet
  facet normal 0 0 1
    outer loop
      vertex 10.6066 -10.6066 -6
      vertex 8.48528 -8.48528 -6
      vertex 9.5159 -11.5952 -6
    endloop
  endfacet
  facet normal -0 0 1
    outer loop
      vertex 7.61272 -9.27612 -6
      vertex 9.5159 -11.5952 -6
      vertex 8.48528 -8.48528 -6
    endloop
  endfacet
  facet normal 0 0 1
    outer loop
      vertex 9.5159 -11.5952 -6
      vertex 7.61272 -9.27612 -6
      vertex 8.33355 -12.472 -6
    endloop
  endfacet
  facet normal -0 0 1
    outer loop
      vertex 6.66684 -9.97763 -6
      vertex 8.33355 -12.472 -6
      vertex 7.61272 -9.27612 -6
    endloop
  endfacet
  facet normal 0 0 1
    outer loop
      vertex 8.33355 -12.472 -6
      vertex 6.66684 -9.97763 -6
      vertex 7.07095 -13.2288 -6
    endloop
  endfacet
  facet normal -0 0 1
    outer loop
      vertex 5.65676 -10.5831 -6
      vertex 7.07095 -13.2288 -6
      vertex 6.66684 -9.97763 -6
    endloop
  endfacet
  facet normal 0 0 1
    outer loop
      vertex 7.07095 -13.2288 -6
      vertex 5.65676 -10.5831 -6
      vertex 5.74025 -13.8582 -6
    endloop
  endfacet
  facet normal -0 0 1
    outer loop
      vertex 4.5922 -11.0866 -6
      vertex 5.74025 -13.8582 -6
      vertex 5.65676 -10.5831 -6
    endloop
  endfacet
  facet normal 0 0 1
    outer loop
      vertex 4.5922 -11.0866 -6
      vertex 4.35427 -14.3541 -6
      vertex 5.74025 -13.8582 -6
    endloop
  endfacet
  facet normal -0 0 1
    outer loop
      vertex 3.48342 -11.4833 -6
      vertex 4.35427 -14.3541 -6
      vertex 4.5922 -11.0866 -6
    endloop
  endfacet
  facet normal 0 0 1
    outer loop
      vertex 3.48342 -11.4833 -6
      vertex 2.92635 -14.7118 -6
      vertex 4.35427 -14.3541 -6
    endloop
  endfacet
  facet normal -0 0 1
    outer loop
      vertex 2.34108 -11.7694 -6
      vertex 2.92635 -14.7118 -6
      vertex 3.48342 -11.4833 -6
    endloop
  endfacet
  facet normal 0 0 1
    outer loop
      vertex 2.34108 -11.7694 -6
      vertex 1.47026 -14.9278 -6
      vertex 2.92635 -14.7118 -6
    endloop
  endfacet
  facet normal -0 0 1
    outer loop
      vertex 1.17621 -11.9422 -6
      vertex 1.47026 -14.9278 -6
      vertex 2.34108 -11.7694 -6
    endloop
  endfacet
  facet normal -0 0 1
    outer loop
      vertex 0 -12 -6
      vertex 1.47026 -14.9278 -6
      vertex 1.17621 -11.9422 -6
    endloop
  endfacet
  facet normal 0 0 1
    outer loop
      vertex 0 -12 -6
      vertex 0 -15 -6
      vertex 1.47026 -14.9278 -6
    endloop
  endfacet
  facet normal 0 0 1
    outer loop
      vertex -1.17621 -11.9422 -6
      vertex 0 -15 -6
      vertex 0 -12 -6
    endloop
  endfacet
  facet normal 0 0 1
    outer loop
      vertex -1.17621 -11.9422 -6
      vertex -1.47026 -14.9278 -6
      vertex 0 -15 -6
    endloop
  endfacet
  facet normal 0 0 1
    outer loop
      vertex -2.34108 -11.7694 -6
      vertex -1.47026 -14.9278 -6
      vertex -1.17621 -11.9422 -6
    endloop
  endfacet
  facet normal 0 0 1
    outer loop
      vertex -2.34108 -11.7694 -6
      vertex -2.92635 -14.7118 -6
      vertex -1.47026 -14.9278 -6
    endloop
  endfacet
  facet normal 0 0 1
    outer loop
      vertex -3.48342 -11.4833 -6
      vertex -2.92635 -14.7118 -6
      vertex -2.34108 -11.7694 -6
    endloop
  endfacet
  facet normal 0 0 1
    outer loop
      vertex -3.48342 -11.4833 -6
      vertex -4.35427 -14.3541 -6
      vertex -2.92635 -14.7118 -6
    endloop
  endfacet
  facet normal 0 0 1
    outer loop
      vertex -4.5922 -11.0866 -6
      vertex -4.35427 -14.3541 -6
      vertex -3.48342 -11.4833 -6
    endloop
  endfacet
  facet normal 0 0 1
    outer loop
      vertex -5.74025 -13.8582 -6
      vertex -4.5922 -11.0866 -6
      vertex -5.65676 -10.5831 -6
    endloop
  endfacet
  facet normal 0 0 1
    outer loop
      vertex -4.5922 -11.0866 -6
      vertex -5.74025 -13.8582 -6
      vertex -4.35427 -14.3541 -6
    endloop
  endfacet
  facet normal 0 0 1
    outer loop
      vertex -7.07095 -13.2288 -6
      vertex -5.65676 -10.5831 -6
      vertex -6.66684 -9.97763 -6
    endloop
  endfacet
  facet normal 0 0 1
    outer loop
      vertex -5.65676 -10.5831 -6
      vertex -7.07095 -13.2288 -6
      vertex -5.74025 -13.8582 -6
    endloop
  endfacet
  facet normal 0 0 1
    outer loop
      vertex -8.33355 -12.472 -6
      vertex -6.66684 -9.97763 -6
      vertex -7.61272 -9.27612 -6
    endloop
  endfacet
  facet normal 0 0 1
    outer loop
      vertex -6.66684 -9.97763 -6
      vertex -8.33355 -12.472 -6
      vertex -7.07095 -13.2288 -6
    endloop
  endfacet
  facet normal 0 0 1
    outer loop
      vertex -9.5159 -11.5952 -6
      vertex -7.61272 -9.27612 -6
      vertex -8.48528 -8.48528 -6
    endloop
  endfacet
  facet normal 0 0 1
    outer loop
      vertex -10.6066 -10.6066 -6
      vertex -8.48528 -8.48528 -6
      vertex -9.27612 -7.61272 -6
    endloop
  endfacet
  facet normal 0 0 1
    outer loop
      vertex -7.61272 -9.27612 -6
      vertex -9.5159 -11.5952 -6
      vertex -8.33355 -12.472 -6
    endloop
  endfacet
  facet normal 0 0 1
    outer loop
      vertex -11.5952 -9.5159 -6
      vertex -9.27612 -7.61272 -6
      vertex -9.97763 -6.66684 -6
    endloop
  endfacet
  facet normal 0 0 1
    outer loop
      vertex -12.472 -8.33355 -6
      vertex -9.97763 -6.66684 -6
      vertex -10.5831 -5.65676 -6
    endloop
  endfacet
  facet normal 0 0 1
    outer loop
      vertex -8.48528 -8.48528 -6
      vertex -10.6066 -10.6066 -6
      vertex -9.5159 -11.5952 -6
    endloop
  endfacet
  facet normal 0 0 1
    outer loop
      vertex -13.2288 -7.07095 -6
      vertex -10.5831 -5.65676 -6
      vertex -11.0866 -4.5922 -6
    endloop
  endfacet
  facet normal 0 0 1
    outer loop
      vertex -13.8582 -5.74025 -6
      vertex -11.0866 -4.5922 -6
      vertex -11.4833 -3.48342 -6
    endloop
  endfacet
  facet normal 0 0 1
    outer loop
      vertex -9.27612 -7.61272 -6
      vertex -11.5952 -9.5159 -6
      vertex -10.6066 -10.6066 -6
    endloop
  endfacet
  facet normal 0 0 1
    outer loop
      vertex -14.3541 -4.35427 -6
      vertex -11.4833 -3.48342 -6
      vertex -11.7694 -2.34108 -6
    endloop
  endfacet
  facet normal 0 0 1
    outer loop
      vertex -14.7118 -2.92635 -6
      vertex -11.7694 -2.34108 -6
      vertex -11.9422 -1.17621 -6
    endloop
  endfacet
  facet normal 0 0 1
    outer loop
      vertex -14.9278 -1.47026 -6
      vertex -11.9422 -1.17621 -6
      vertex -12 0 -6
    endloop
  endfacet
  facet normal 0 0 1
    outer loop
      vertex -11.4833 3.48342 -6
      vertex -14.3541 4.35427 -6
      vertex -11.7694 2.34108 -6
    endloop
  endfacet
  facet normal 0 0 1
    outer loop
      vertex -9.97763 -6.66684 -6
      vertex -12.472 -8.33355 -6
      vertex -11.5952 -9.5159 -6
    endloop
  endfacet
  facet normal -0 0 1
    outer loop
      vertex -14.7118 2.92635 -6
      vertex -11.7694 2.34108 -6
      vertex -14.3541 4.35427 -6
    endloop
  endfacet
  facet normal 0 0 1
    outer loop
      vertex -10.5831 -5.65676 -6
      vertex -13.2288 -7.07095 -6
      vertex -12.472 -8.33355 -6
    endloop
  endfacet
  facet normal 0 0 1
    outer loop
      vertex -11.7694 2.34108 -6
      vertex -14.7118 2.92635 -6
      vertex -11.9422 1.17621 -6
    endloop
  endfacet
  facet normal 0 0 1
    outer loop
      vertex -11.0866 -4.5922 -6
      vertex -13.8582 -5.74025 -6
      vertex -13.2288 -7.07095 -6
    endloop
  endfacet
  facet normal -0 0 1
    outer loop
      vertex -14.9278 1.47026 -6
      vertex -11.9422 1.17621 -6
      vertex -14.7118 2.92635 -6
    endloop
  endfacet
  facet normal 0 0 1
    outer loop
      vertex -11.4833 -3.48342 -6
      vertex -14.3541 -4.35427 -6
      vertex -13.8582 -5.74025 -6
    endloop
  endfacet
  facet normal 0 0 1
    outer loop
      vertex -11.9422 1.17621 -6
      vertex -14.9278 1.47026 -6
      vertex -12 0 -6
    endloop
  endfacet
  facet normal 0 0 1
    outer loop
      vertex -11.7694 -2.34108 -6
      vertex -14.7118 -2.92635 -6
      vertex -14.3541 -4.35427 -6
    endloop
  endfacet
  facet normal 0 0 1
    outer loop
      vertex -15 0 -6
      vertex -12 0 -6
      vertex -14.9278 1.47026 -6
    endloop
  endfacet
  facet normal 0 0 1
    outer loop
      vertex -11.9422 -1.17621 -6
      vertex -14.9278 -1.47026 -6
      vertex -14.7118 -2.92635 -6
    endloop
  endfacet
  facet normal 0 0 1
    outer loop
      vertex -12 0 -6
      vertex -15 0 -6
      vertex -14.9278 -1.47026 -6
    endloop
  endfacet
  facet normal -0.989176 -0.146737 0
    outer loop
      vertex 11.9422 1.17621 -52
      vertex 11.7694 2.34108 -6
      vertex 11.7694 2.34108 -52
    endloop
  endfacet
  facet normal -0.989176 -0.146737 0
    outer loop
      vertex 11.7694 2.34108 -6
      vertex 11.9422 1.17621 -52
      vertex 11.9422 1.17621 -6
    endloop
  endfacet
  facet normal -0.998795 -0.0490817 0
    outer loop
      vertex 12 0 -52
      vertex 11.9422 1.17621 -6
      vertex 11.9422 1.17621 -52
    endloop
  endfacet
  facet normal -0.998795 -0.0490817 0
    outer loop
      vertex 11.9422 1.17621 -6
      vertex 12 0 -52
      vertex 12 0 -6
    endloop
  endfacet
  facet normal -0.97004 -0.242947 0
    outer loop
      vertex 11.7694 2.34108 -52
      vertex 11.4833 3.48342 -6
      vertex 11.4833 3.48342 -52
    endloop
  endfacet
  facet normal -0.97004 -0.242947 0
    outer loop
      vertex 11.4833 3.48342 -6
      vertex 11.7694 2.34108 -52
      vertex 11.7694 2.34108 -6
    endloop
  endfacet
  facet normal -0.857709 -0.514135 0
    outer loop
      vertex 10.5831 5.65676 -52
      vertex 9.97763 6.66684 -6
      vertex 9.97763 6.66684 -52
    endloop
  endfacet
  facet normal -0.857709 -0.514135 0
    outer loop
      vertex 9.97763 6.66684 -6
      vertex 10.5831 5.65676 -52
      vertex 10.5831 5.65676 -6
    endloop
  endfacet
  facet normal -0.740952 -0.671558 0
    outer loop
      vertex 9.27612 7.61272 -52
      vertex 8.48528 8.48528 -6
      vertex 8.48528 8.48528 -52
    endloop
  endfacet
  facet normal -0.740952 -0.671558 0
    outer loop
      vertex 8.48528 8.48528 -6
      vertex 9.27612 7.61272 -52
      vertex 9.27612 7.61272 -6
    endloop
  endfacet
  facet normal 0.242947 -0.97004 0
    outer loop
      vertex -3.48342 11.4833 -52
      vertex -2.34108 11.7694 -6
      vertex -3.48342 11.4833 -6
    endloop
  endfacet
  facet normal 0.242947 -0.97004 0
    outer loop
      vertex -2.34108 11.7694 -6
      vertex -3.48342 11.4833 -52
      vertex -2.34108 11.7694 -52
    endloop
  endfacet
  facet normal 0.803209 -0.595698 0
    outer loop
      vertex -9.97763 6.66684 -6
      vertex -9.27612 7.61272 -52
      vertex -9.27612 7.61272 -6
    endloop
  endfacet
  facet normal 0.803209 -0.595698 0
    outer loop
      vertex -9.27612 7.61272 -52
      vertex -9.97763 6.66684 -6
      vertex -9.97763 6.66684 -52
    endloop
  endfacet
  facet normal -0.97004 0.242947 0
    outer loop
      vertex 11.4833 -3.48342 -52
      vertex 11.7694 -2.34108 -6
      vertex 11.7694 -2.34108 -52
    endloop
  endfacet
  facet normal -0.97004 0.242947 0
    outer loop
      vertex 11.7694 -2.34108 -6
      vertex 11.4833 -3.48342 -52
      vertex 11.4833 -3.48342 -6
    endloop
  endfacet
  facet normal 0.514135 0.857709 -0
    outer loop
      vertex -5.65676 -10.5831 -52
      vertex -6.66684 -9.97763 -6
      vertex -5.65676 -10.5831 -6
    endloop
  endfacet
  facet normal 0.514135 0.857709 0
    outer loop
      vertex -6.66684 -9.97763 -6
      vertex -5.65676 -10.5831 -52
      vertex -6.66684 -9.97763 -52
    endloop
  endfacet
  facet normal -0.671558 -0.740952 0
    outer loop
      vertex 7.61272 9.27612 -52
      vertex 8.48528 8.48528 -6
      vertex 7.61272 9.27612 -6
    endloop
  endfacet
  facet normal -0.671558 -0.740952 -0
    outer loop
      vertex 8.48528 8.48528 -6
      vertex 7.61272 9.27612 -52
      vertex 8.48528 8.48528 -52
    endloop
  endfacet
  facet normal -0.0490817 0.998795 0
    outer loop
      vertex 1.17621 -11.9422 -52
      vertex 0 -12 -6
      vertex 1.17621 -11.9422 -6
    endloop
  endfacet
  facet normal -0.0490817 0.998795 0
    outer loop
      vertex 0 -12 -6
      vertex 1.17621 -11.9422 -52
      vertex 0 -12 -52
    endloop
  endfacet
  facet normal 0.336869 -0.941552 0
    outer loop
      vertex -4.5922 11.0866 -52
      vertex -3.48342 11.4833 -6
      vertex -4.5922 11.0866 -6
    endloop
  endfacet
  facet normal 0.336869 -0.941552 0
    outer loop
      vertex -3.48342 11.4833 -6
      vertex -4.5922 11.0866 -52
      vertex -3.48342 11.4833 -52
    endloop
  endfacet
  facet normal -0.427556 -0.903989 0
    outer loop
      vertex 4.5922 11.0866 -52
      vertex 5.65676 10.5831 -6
      vertex 4.5922 11.0866 -6
    endloop
  endfacet
  facet normal -0.427556 -0.903989 -0
    outer loop
      vertex 5.65676 10.5831 -6
      vertex 4.5922 11.0866 -52
      vertex 5.65676 10.5831 -52
    endloop
  endfacet
  facet normal 0.595698 -0.803209 0
    outer loop
      vertex -7.61272 9.27612 -52
      vertex -6.66684 9.97763 -6
      vertex -7.61272 9.27612 -6
    endloop
  endfacet
  facet normal 0.595698 -0.803209 0
    outer loop
      vertex -6.66684 9.97763 -6
      vertex -7.61272 9.27612 -52
      vertex -6.66684 9.97763 -52
    endloop
  endfacet
  facet normal -0.336869 -0.941552 0
    outer loop
      vertex 3.48342 11.4833 -52
      vertex 4.5922 11.0866 -6
      vertex 3.48342 11.4833 -6
    endloop
  endfacet
  facet normal -0.336869 -0.941552 -0
    outer loop
      vertex 4.5922 11.0866 -6
      vertex 3.48342 11.4833 -52
      vertex 4.5922 11.0866 -52
    endloop
  endfacet
  facet normal -0.242947 -0.97004 0
    outer loop
      vertex 2.34108 11.7694 -52
      vertex 3.48342 11.4833 -6
      vertex 2.34108 11.7694 -6
    endloop
  endfacet
  facet normal -0.242947 -0.97004 -0
    outer loop
      vertex 3.48342 11.4833 -6
      vertex 2.34108 11.7694 -52
      vertex 3.48342 11.4833 -52
    endloop
  endfacet
  facet normal -0.803209 -0.595698 0
    outer loop
      vertex 9.97763 6.66684 -52
      vertex 9.27612 7.61272 -6
      vertex 9.27612 7.61272 -52
    endloop
  endfacet
  facet normal -0.803209 -0.595698 0
    outer loop
      vertex 9.27612 7.61272 -6
      vertex 9.97763 6.66684 -52
      vertex 9.97763 6.66684 -6
    endloop
  endfacet
  facet normal -0.989176 0.146737 0
    outer loop
      vertex 11.7694 -2.34108 -52
      vertex 11.9422 -1.17621 -6
      vertex 11.9422 -1.17621 -52
    endloop
  endfacet
  facet normal -0.989176 0.146737 0
    outer loop
      vertex 11.9422 -1.17621 -6
      vertex 11.7694 -2.34108 -52
      vertex 11.7694 -2.34108 -6
    endloop
  endfacet
  facet normal 0.146737 0.989176 -0
    outer loop
      vertex -1.17621 -11.9422 -52
      vertex -2.34108 -11.7694 -6
      vertex -1.17621 -11.9422 -6
    endloop
  endfacet
  facet normal 0.146737 0.989176 0
    outer loop
      vertex -2.34108 -11.7694 -6
      vertex -1.17621 -11.9422 -52
      vertex -2.34108 -11.7694 -52
    endloop
  endfacet
  facet normal 0.998795 0.0490817 0
    outer loop
      vertex -11.9422 -1.17621 -6
      vertex -12 0 -52
      vertex -12 0 -6
    endloop
  endfacet
  facet normal 0.998795 0.0490817 0
    outer loop
      vertex -12 0 -52
      vertex -11.9422 -1.17621 -6
      vertex -11.9422 -1.17621 -52
    endloop
  endfacet
  facet normal -0.0490817 -0.998795 0
    outer loop
      vertex 0 12 -52
      vertex 1.17621 11.9422 -6
      vertex 0 12 -6
    endloop
  endfacet
  facet normal -0.0490817 -0.998795 -0
    outer loop
      vertex 1.17621 11.9422 -6
      vertex 0 12 -52
      vertex 1.17621 11.9422 -52
    endloop
  endfacet
  facet normal -0.595698 -0.803209 0
    outer loop
      vertex 6.66684 9.97763 -52
      vertex 7.61272 9.27612 -6
      vertex 6.66684 9.97763 -6
    endloop
  endfacet
  facet normal -0.595698 -0.803209 -0
    outer loop
      vertex 7.61272 9.27612 -6
      vertex 6.66684 9.97763 -52
      vertex 7.61272 9.27612 -52
    endloop
  endfacet
  facet normal 0.941552 -0.336869 0
    outer loop
      vertex -11.4833 3.48342 -6
      vertex -11.0866 4.5922 -52
      vertex -11.0866 4.5922 -6
    endloop
  endfacet
  facet normal 0.941552 -0.336869 0
    outer loop
      vertex -11.0866 4.5922 -52
      vertex -11.4833 3.48342 -6
      vertex -11.4833 3.48342 -52
    endloop
  endfacet
  facet normal -0.514135 0.857709 0
    outer loop
      vertex 6.66684 -9.97763 -52
      vertex 5.65676 -10.5831 -6
      vertex 6.66684 -9.97763 -6
    endloop
  endfacet
  facet normal -0.514135 0.857709 0
    outer loop
      vertex 5.65676 -10.5831 -6
      vertex 6.66684 -9.97763 -52
      vertex 5.65676 -10.5831 -52
    endloop
  endfacet
  facet normal 0.97004 -0.242947 0
    outer loop
      vertex -11.7694 2.34108 -6
      vertex -11.4833 3.48342 -52
      vertex -11.4833 3.48342 -6
    endloop
  endfacet
  facet normal 0.97004 -0.242947 0
    outer loop
      vertex -11.4833 3.48342 -52
      vertex -11.7694 2.34108 -6
      vertex -11.7694 2.34108 -52
    endloop
  endfacet
  facet normal 0.671558 -0.740952 0
    outer loop
      vertex -8.48528 8.48528 -52
      vertex -7.61272 9.27612 -6
      vertex -8.48528 8.48528 -6
    endloop
  endfacet
  facet normal 0.671558 -0.740952 0
    outer loop
      vertex -7.61272 9.27612 -6
      vertex -8.48528 8.48528 -52
      vertex -7.61272 9.27612 -52
    endloop
  endfacet
  facet normal 0.941552 0.336869 0
    outer loop
      vertex -11.0866 -4.5922 -6
      vertex -11.4833 -3.48342 -52
      vertex -11.4833 -3.48342 -6
    endloop
  endfacet
  facet normal 0.941552 0.336869 0
    outer loop
      vertex -11.4833 -3.48342 -52
      vertex -11.0866 -4.5922 -6
      vertex -11.0866 -4.5922 -52
    endloop
  endfacet
  facet normal 0.857709 -0.514135 0
    outer loop
      vertex -10.5831 5.65676 -6
      vertex -9.97763 6.66684 -52
      vertex -9.97763 6.66684 -6
    endloop
  endfacet
  facet normal 0.857709 -0.514135 0
    outer loop
      vertex -9.97763 6.66684 -52
      vertex -10.5831 5.65676 -6
      vertex -10.5831 5.65676 -52
    endloop
  endfacet
  facet normal -0.903989 0.427556 0
    outer loop
      vertex 10.5831 -5.65676 -52
      vertex 11.0866 -4.5922 -6
      vertex 11.0866 -4.5922 -52
    endloop
  endfacet
  facet normal -0.903989 0.427556 0
    outer loop
      vertex 11.0866 -4.5922 -6
      vertex 10.5831 -5.65676 -52
      vertex 10.5831 -5.65676 -6
    endloop
  endfacet
  facet normal -0.427556 0.903989 0
    outer loop
      vertex 5.65676 -10.5831 -52
      vertex 4.5922 -11.0866 -6
      vertex 5.65676 -10.5831 -6
    endloop
  endfacet
  facet normal -0.427556 0.903989 0
    outer loop
      vertex 4.5922 -11.0866 -6
      vertex 5.65676 -10.5831 -52
      vertex 4.5922 -11.0866 -52
    endloop
  endfacet
  facet normal -0.146737 -0.989176 0
    outer loop
      vertex 1.17621 11.9422 -52
      vertex 2.34108 11.7694 -6
      vertex 1.17621 11.9422 -6
    endloop
  endfacet
  facet normal -0.146737 -0.989176 -0
    outer loop
      vertex 2.34108 11.7694 -6
      vertex 1.17621 11.9422 -52
      vertex 2.34108 11.7694 -52
    endloop
  endfacet
  facet normal -0.998795 0.0490817 0
    outer loop
      vertex 11.9422 -1.17621 -52
      vertex 12 0 -6
      vertex 12 0 -52
    endloop
  endfacet
  facet normal -0.998795 0.0490817 0
    outer loop
      vertex 12 0 -6
      vertex 11.9422 -1.17621 -52
      vertex 11.9422 -1.17621 -6
    endloop
  endfacet
  facet normal -0.146737 0.989176 0
    outer loop
      vertex 2.34108 -11.7694 -52
      vertex 1.17621 -11.9422 -6
      vertex 2.34108 -11.7694 -6
    endloop
  endfacet
  facet normal -0.146737 0.989176 0
    outer loop
      vertex 1.17621 -11.9422 -6
      vertex 2.34108 -11.7694 -52
      vertex 1.17621 -11.9422 -52
    endloop
  endfacet
  facet normal 0.242947 0.97004 -0
    outer loop
      vertex -2.34108 -11.7694 -52
      vertex -3.48342 -11.4833 -6
      vertex -2.34108 -11.7694 -6
    endloop
  endfacet
  facet normal 0.242947 0.97004 0
    outer loop
      vertex -3.48342 -11.4833 -6
      vertex -2.34108 -11.7694 -52
      vertex -3.48342 -11.4833 -52
    endloop
  endfacet
  facet normal -0.857709 0.514135 0
    outer loop
      vertex 9.97763 -6.66684 -52
      vertex 10.5831 -5.65676 -6
      vertex 10.5831 -5.65676 -52
    endloop
  endfacet
  facet normal -0.857709 0.514135 0
    outer loop
      vertex 10.5831 -5.65676 -6
      vertex 9.97763 -6.66684 -52
      vertex 9.97763 -6.66684 -6
    endloop
  endfacet
  facet normal 0.740952 -0.671558 0
    outer loop
      vertex -9.27612 7.61272 -6
      vertex -8.48528 8.48528 -52
      vertex -8.48528 8.48528 -6
    endloop
  endfacet
  facet normal 0.740952 -0.671558 0
    outer loop
      vertex -8.48528 8.48528 -52
      vertex -9.27612 7.61272 -6
      vertex -9.27612 7.61272 -52
    endloop
  endfacet
  facet normal -0.941552 0.336869 0
    outer loop
      vertex 11.0866 -4.5922 -52
      vertex 11.4833 -3.48342 -6
      vertex 11.4833 -3.48342 -52
    endloop
  endfacet
  facet normal -0.941552 0.336869 0
    outer loop
      vertex 11.4833 -3.48342 -6
      vertex 11.0866 -4.5922 -52
      vertex 11.0866 -4.5922 -6
    endloop
  endfacet
  facet normal -0.941552 -0.336869 0
    outer loop
      vertex 11.4833 3.48342 -52
      vertex 11.0866 4.5922 -6
      vertex 11.0866 4.5922 -52
    endloop
  endfacet
  facet normal -0.941552 -0.336869 0
    outer loop
      vertex 11.0866 4.5922 -6
      vertex 11.4833 3.48342 -52
      vertex 11.4833 3.48342 -6
    endloop
  endfacet
  facet normal -0.514135 -0.857709 0
    outer loop
      vertex 5.65676 10.5831 -52
      vertex 6.66684 9.97763 -6
      vertex 5.65676 10.5831 -6
    endloop
  endfacet
  facet normal -0.514135 -0.857709 -0
    outer loop
      vertex 6.66684 9.97763 -6
      vertex 5.65676 10.5831 -52
      vertex 6.66684 9.97763 -52
    endloop
  endfacet
  facet normal 0.97004 0.242947 0
    outer loop
      vertex -11.4833 -3.48342 -6
      vertex -11.7694 -2.34108 -52
      vertex -11.7694 -2.34108 -6
    endloop
  endfacet
  facet normal 0.97004 0.242947 0
    outer loop
      vertex -11.7694 -2.34108 -52
      vertex -11.4833 -3.48342 -6
      vertex -11.4833 -3.48342 -52
    endloop
  endfacet
  facet normal 0.514135 -0.857709 0
    outer loop
      vertex -6.66684 9.97763 -52
      vertex -5.65676 10.5831 -6
      vertex -6.66684 9.97763 -6
    endloop
  endfacet
  facet normal 0.514135 -0.857709 0
    outer loop
      vertex -5.65676 10.5831 -6
      vertex -6.66684 9.97763 -52
      vertex -5.65676 10.5831 -52
    endloop
  endfacet
  facet normal -0.740952 0.671558 0
    outer loop
      vertex 8.48528 -8.48528 -52
      vertex 9.27612 -7.61272 -6
      vertex 9.27612 -7.61272 -52
    endloop
  endfacet
  facet normal -0.740952 0.671558 0
    outer loop
      vertex 9.27612 -7.61272 -6
      vertex 8.48528 -8.48528 -52
      vertex 8.48528 -8.48528 -6
    endloop
  endfacet
  facet normal 0.671558 0.740952 -0
    outer loop
      vertex -7.61272 -9.27612 -52
      vertex -8.48528 -8.48528 -6
      vertex -7.61272 -9.27612 -6
    endloop
  endfacet
  facet normal 0.671558 0.740952 0
    outer loop
      vertex -8.48528 -8.48528 -6
      vertex -7.61272 -9.27612 -52
      vertex -8.48528 -8.48528 -52
    endloop
  endfacet
  facet normal 0.989176 -0.146737 0
    outer loop
      vertex -11.9422 1.17621 -6
      vertex -11.7694 2.34108 -52
      vertex -11.7694 2.34108 -6
    endloop
  endfacet
  facet normal 0.989176 -0.146737 0
    outer loop
      vertex -11.7694 2.34108 -52
      vertex -11.9422 1.17621 -6
      vertex -11.9422 1.17621 -52
    endloop
  endfacet
  facet normal -0.903989 -0.427556 0
    outer loop
      vertex 11.0866 4.5922 -52
      vertex 10.5831 5.65676 -6
      vertex 10.5831 5.65676 -52
    endloop
  endfacet
  facet normal -0.903989 -0.427556 0
    outer loop
      vertex 10.5831 5.65676 -6
      vertex 11.0866 4.5922 -52
      vertex 11.0866 4.5922 -6
    endloop
  endfacet
  facet normal 0.427556 -0.903989 0
    outer loop
      vertex -5.65676 10.5831 -52
      vertex -4.5922 11.0866 -6
      vertex -5.65676 10.5831 -6
    endloop
  endfacet
  facet normal 0.427556 -0.903989 0
    outer loop
      vertex -4.5922 11.0866 -6
      vertex -5.65676 10.5831 -52
      vertex -4.5922 11.0866 -52
    endloop
  endfacet
  facet normal -0.803209 0.595698 0
    outer loop
      vertex 9.27612 -7.61272 -52
      vertex 9.97763 -6.66684 -6
      vertex 9.97763 -6.66684 -52
    endloop
  endfacet
  facet normal -0.803209 0.595698 0
    outer loop
      vertex 9.97763 -6.66684 -6
      vertex 9.27612 -7.61272 -52
      vertex 9.27612 -7.61272 -6
    endloop
  endfacet
  facet normal 0.857709 0.514135 0
    outer loop
      vertex -9.97763 -6.66684 -6
      vertex -10.5831 -5.65676 -52
      vertex -10.5831 -5.65676 -6
    endloop
  endfacet
  facet normal 0.857709 0.514135 0
    outer loop
      vertex -10.5831 -5.65676 -52
      vertex -9.97763 -6.66684 -6
      vertex -9.97763 -6.66684 -52
    endloop
  endfacet
  facet normal 0.803209 0.595698 0
    outer loop
      vertex -9.27612 -7.61272 -6
      vertex -9.97763 -6.66684 -52
      vertex -9.97763 -6.66684 -6
    endloop
  endfacet
  facet normal 0.803209 0.595698 0
    outer loop
      vertex -9.97763 -6.66684 -52
      vertex -9.27612 -7.61272 -6
      vertex -9.27612 -7.61272 -52
    endloop
  endfacet
  facet normal 0.903989 -0.427556 0
    outer loop
      vertex -11.0866 4.5922 -6
      vertex -10.5831 5.65676 -52
      vertex -10.5831 5.65676 -6
    endloop
  endfacet
  facet normal 0.903989 -0.427556 0
    outer loop
      vertex -10.5831 5.65676 -52
      vertex -11.0866 4.5922 -6
      vertex -11.0866 4.5922 -52
    endloop
  endfacet
  facet normal 0.0490817 -0.998795 0
    outer loop
      vertex -1.17621 11.9422 -52
      vertex 0 12 -6
      vertex -1.17621 11.9422 -6
    endloop
  endfacet
  facet normal 0.0490817 -0.998795 0
    outer loop
      vertex 0 12 -6
      vertex -1.17621 11.9422 -52
      vertex 0 12 -52
    endloop
  endfacet
  facet normal 0.427556 0.903989 -0
    outer loop
      vertex -4.5922 -11.0866 -52
      vertex -5.65676 -10.5831 -6
      vertex -4.5922 -11.0866 -6
    endloop
  endfacet
  facet normal 0.427556 0.903989 0
    outer loop
      vertex -5.65676 -10.5831 -6
      vertex -4.5922 -11.0866 -52
      vertex -5.65676 -10.5831 -52
    endloop
  endfacet
  facet normal -0.595698 0.803209 0
    outer loop
      vertex 7.61272 -9.27612 -52
      vertex 6.66684 -9.97763 -6
      vertex 7.61272 -9.27612 -6
    endloop
  endfacet
  facet normal -0.595698 0.803209 0
    outer loop
      vertex 6.66684 -9.97763 -6
      vertex 7.61272 -9.27612 -52
      vertex 6.66684 -9.97763 -52
    endloop
  endfacet
  facet normal 0.146737 -0.989176 0
    outer loop
      vertex -2.34108 11.7694 -52
      vertex -1.17621 11.9422 -6
      vertex -2.34108 11.7694 -6
    endloop
  endfacet
  facet normal 0.146737 -0.989176 0
    outer loop
      vertex -1.17621 11.9422 -6
      vertex -2.34108 11.7694 -52
      vertex -1.17621 11.9422 -52
    endloop
  endfacet
  facet normal 0.989176 0.146737 0
    outer loop
      vertex -11.7694 -2.34108 -6
      vertex -11.9422 -1.17621 -52
      vertex -11.9422 -1.17621 -6
    endloop
  endfacet
  facet normal 0.989176 0.146737 0
    outer loop
      vertex -11.9422 -1.17621 -52
      vertex -11.7694 -2.34108 -6
      vertex -11.7694 -2.34108 -52
    endloop
  endfacet
  facet normal -0.336869 0.941552 0
    outer loop
      vertex 4.5922 -11.0866 -52
      vertex 3.48342 -11.4833 -6
      vertex 4.5922 -11.0866 -6
    endloop
  endfacet
  facet normal -0.336869 0.941552 0
    outer loop
      vertex 3.48342 -11.4833 -6
      vertex 4.5922 -11.0866 -52
      vertex 3.48342 -11.4833 -52
    endloop
  endfacet
  facet normal -0.242947 0.97004 0
    outer loop
      vertex 3.48342 -11.4833 -52
      vertex 2.34108 -11.7694 -6
      vertex 3.48342 -11.4833 -6
    endloop
  endfacet
  facet normal -0.242947 0.97004 0
    outer loop
      vertex 2.34108 -11.7694 -6
      vertex 3.48342 -11.4833 -52
      vertex 2.34108 -11.7694 -52
    endloop
  endfacet
  facet normal 0.903989 0.427556 0
    outer loop
      vertex -10.5831 -5.65676 -6
      vertex -11.0866 -4.5922 -52
      vertex -11.0866 -4.5922 -6
    endloop
  endfacet
  facet normal 0.903989 0.427556 0
    outer loop
      vertex -11.0866 -4.5922 -52
      vertex -10.5831 -5.65676 -6
      vertex -10.5831 -5.65676 -52
    endloop
  endfacet
  facet normal 0.740952 0.671558 0
    outer loop
      vertex -8.48528 -8.48528 -6
      vertex -9.27612 -7.61272 -52
      vertex -9.27612 -7.61272 -6
    endloop
  endfacet
  facet normal 0.740952 0.671558 0
    outer loop
      vertex -9.27612 -7.61272 -52
      vertex -8.48528 -8.48528 -6
      vertex -8.48528 -8.48528 -52
    endloop
  endfacet
  facet normal 0.595698 0.803209 -0
    outer loop
      vertex -6.66684 -9.97763 -52
      vertex -7.61272 -9.27612 -6
      vertex -6.66684 -9.97763 -6
    endloop
  endfacet
  facet normal 0.595698 0.803209 0
    outer loop
      vertex -7.61272 -9.27612 -6
      vertex -6.66684 -9.97763 -52
      vertex -7.61272 -9.27612 -52
    endloop
  endfacet
  facet normal 0.0490817 0.998795 -0
    outer loop
      vertex 0 -12 -52
      vertex -1.17621 -11.9422 -6
      vertex 0 -12 -6
    endloop
  endfacet
  facet normal 0.0490817 0.998795 0
    outer loop
      vertex -1.17621 -11.9422 -6
      vertex 0 -12 -52
      vertex -1.17621 -11.9422 -52
    endloop
  endfacet
  facet normal 0.998795 -0.0490817 0
    outer loop
      vertex -12 0 -6
      vertex -11.9422 1.17621 -52
      vertex -11.9422 1.17621 -6
    endloop
  endfacet
  facet normal 0.998795 -0.0490817 0
    outer loop
      vertex -11.9422 1.17621 -52
      vertex -12 0 -6
      vertex -12 0 -52
    endloop
  endfacet
  facet normal 0.336869 0.941552 -0
    outer loop
      vertex -3.48342 -11.4833 -52
      vertex -4.5922 -11.0866 -6
      vertex -3.48342 -11.4833 -6
    endloop
  endfacet
  facet normal 0.336869 0.941552 0
    outer loop
      vertex -4.5922 -11.0866 -6
      vertex -3.48342 -11.4833 -52
      vertex -4.5922 -11.0866 -52
    endloop
  endfacet
  facet normal -0.671558 0.740952 0
    outer loop
      vertex 8.48528 -8.48528 -52
      vertex 7.61272 -9.27612 -6
      vertex 8.48528 -8.48528 -6
    endloop
  endfacet
  facet normal -0.671558 0.740952 0
    outer loop
      vertex 7.61272 -9.27612 -6
      vertex 8.48528 -8.48528 -52
      vertex 7.61272 -9.27612 -52
    endloop
  endfacet
endsolid OpenSCAD_Model
