solid OpenSCAD_Model
  facet normal 0 -0.707107 0.707107
    outer loop
      vertex -96 -6.01041 -23.6881
      vertex -54 23.6881 6.01041
      vertex -96 23.6881 6.01041
    endloop
  endfacet
  facet normal 0 -0.707107 0.707107
    outer loop
      vertex -54 23.6881 6.01041
      vertex -96 -6.01041 -23.6881
      vertex -54 -6.01041 -23.6881
    endloop
  endfacet
  facet normal 0 0.707107 -0.707107
    outer loop
      vertex -54 27.2236 -56.9221
      vertex -96 56.9221 -27.2236
      vertex -54 56.9221 -27.2236
    endloop
  endfacet
  facet normal 0 0.707107 -0.707107
    outer loop
      vertex -96 56.9221 -27.2236
      vertex -54 27.2236 -56.9221
      vertex -96 27.2236 -56.9221
    endloop
  endfacet
  facet normal 0 -0.707107 -0.707107
    outer loop
      vertex -96 -6.01041 -23.6881
      vertex -54 27.2236 -56.9221
      vertex -54 -6.01041 -23.6881
    endloop
  endfacet
  facet normal -0 -0.707107 -0.707107
    outer loop
      vertex -54 27.2236 -56.9221
      vertex -96 -6.01041 -23.6881
      vertex -96 27.2236 -56.9221
    endloop
  endfacet
  facet normal 1 0 0
    outer loop
      vertex -54 23.6881 6.01041
      vertex -54 27.2236 -56.9221
      vertex -54 56.9221 -27.2236
    endloop
  endfacet
  facet normal 1 0 0
    outer loop
      vertex -54 27.2236 -56.9221
      vertex -54 23.6881 6.01041
      vertex -54 -6.01041 -23.6881
    endloop
  endfacet
  facet normal 0 0.707107 0.707107
    outer loop
      vertex -54 56.9221 -27.2236
      vertex -96 23.6881 6.01041
      vertex -54 23.6881 6.01041
    endloop
  endfacet
  facet normal 0 0.707107 0.707107
    outer loop
      vertex -96 23.6881 6.01041
      vertex -54 56.9221 -27.2236
      vertex -96 56.9221 -27.2236
    endloop
  endfacet
  facet normal -1 0 0
    outer loop
      vertex -96 27.2236 -56.9221
      vertex -96 23.6881 6.01041
      vertex -96 56.9221 -27.2236
    endloop
  endfacet
  facet normal -1 0 -0
    outer loop
      vertex -96 23.6881 6.01041
      vertex -96 27.2236 -56.9221
      vertex -96 -6.01041 -23.6881
    endloop
  endfacet
endsolid OpenSCAD_Model
