solid OpenSCAD_Model
  facet normal 1.11017e-16 -0.707107 0.707107
    outer loop
      vertex -9.55055 22.1473 34.8752
      vertex 2.22947 24.2957 37.0236
      vertex -9.72486 23.5562 36.2841
    endloop
  endfacet
  facet normal -2.03545e-16 -0.707107 0.707107
    outer loop
      vertex 2.22947 24.2957 37.0236
      vertex -9.55055 22.1473 34.8752
      vertex 2.40378 22.8869 35.6148
    endloop
  endfacet
  facet normal -3.08121e-06 0.707132 -0.707082
    outer loop
      vertex -9.55055 26.39 30.6326
      vertex 2.22947 28.5383 32.781
      vertex 2.40378 27.1295 31.3721
    endloop
  endfacet
  facet normal 5.87014e-06 0.707107 -0.707106
    outer loop
      vertex 2.22947 28.5383 32.781
      vertex -9.55055 26.39 30.6326
      vertex -9.72486 27.7988 32.0414
    endloop
  endfacet
  facet normal 0.0871627 -0.704407 -0.704424
    outer loop
      vertex -9.55055 26.39 30.6326
      vertex 2.40378 22.8869 35.6148
      vertex -9.55055 22.1473 34.8752
    endloop
  endfacet
  facet normal 0.087151 -0.704425 -0.704408
    outer loop
      vertex 2.40378 22.8869 35.6148
      vertex -9.55055 26.39 30.6326
      vertex 2.40378 27.1295 31.3721
    endloop
  endfacet
  facet normal 0.996195 0.0616271 0.0616271
    outer loop
      vertex 2.22947 24.2957 37.0236
      vertex 2.40378 27.1295 31.3721
      vertex 2.22947 28.5383 32.781
    endloop
  endfacet
  facet normal 0.996195 0.06163 0.0616286
    outer loop
      vertex 2.40378 27.1295 31.3721
      vertex 2.22947 24.2957 37.0236
      vertex 2.40378 22.8869 35.6148
    endloop
  endfacet
  facet normal -0.087151 0.704416 0.704416
    outer loop
      vertex 2.22947 28.5383 32.781
      vertex -9.72486 23.5562 36.2841
      vertex 2.22947 24.2957 37.0236
    endloop
  endfacet
  facet normal -0.0871568 0.704424 0.704408
    outer loop
      vertex -9.72486 23.5562 36.2841
      vertex 2.22947 28.5383 32.781
      vertex -9.72486 27.7988 32.0414
    endloop
  endfacet
  facet normal -0.996195 -0.06163 -0.0616286
    outer loop
      vertex -9.55055 26.39 30.6326
      vertex -9.72486 23.5562 36.2841
      vertex -9.72486 27.7988 32.0414
    endloop
  endfacet
  facet normal -0.996195 -0.0616242 -0.0616257
    outer loop
      vertex -9.72486 23.5562 36.2841
      vertex -9.55055 26.39 30.6326
      vertex -9.55055 22.1473 34.8752
    endloop
  endfacet
endsolid OpenSCAD_Model
