solid OpenSCAD_Model
  facet normal -0.427558 0.639201 0.639231
    outer loop
      vertex -33.9406 44.193 45.6072
      vertex -27.5532 44.2078 49.8647
      vertex -27.5532 46.3292 47.7434
    endloop
  endfacet
  facet normal -0.42755 0.639219 0.639219
    outer loop
      vertex -27.5532 44.2078 49.8647
      vertex -33.9406 44.193 45.6072
      vertex -33.9406 42.0717 47.7285
    endloop
  endfacet
  facet normal 0.989176 0.103757 0.103758
    outer loop
      vertex 70.6165 7.10395 12.7608
      vertex 71.6533 4.28311 5.69732
      vertex 70.6165 9.22527 10.6395
    endloop
  endfacet
  facet normal 0.989176 0.103758 0.103758
    outer loop
      vertex 71.6533 4.28311 5.69732
      vertex 70.6165 7.10395 12.7608
      vertex 71.6533 2.16179 7.81865
    endloop
  endfacet
  facet normal 0.998795 0.0346962 0.0346961
    outer loop
      vertex 71.6533 2.16179 7.81865
      vertex 72 -0.707107 0.707107
      vertex 71.6533 4.28311 5.69732
    endloop
  endfacet
  facet normal 0.998795 0.0346961 0.0346961
    outer loop
      vertex 72 -0.707107 0.707107
      vertex 71.6533 2.16179 7.81865
      vertex 72 -2.82843 2.82843
    endloop
  endfacet
  facet normal 0.970033 0.171809 0.171809
    outer loop
      vertex 68.8997 11.9505 17.6073
      vertex 70.6165 9.22527 10.6395
      vertex 68.8997 14.0718 15.486
    endloop
  endfacet
  facet normal 0.970033 0.171808 0.17181
    outer loop
      vertex 70.6165 9.22527 10.6395
      vertex 68.8997 11.9505 17.6073
      vertex 70.6165 7.10395 12.7608
    endloop
  endfacet
  facet normal 0.336894 -0.665787 -0.665756
    outer loop
      vertex 20.9005 -51.5479 -45.891
      vertex 27.5532 -47.7434 -46.3292
      vertex 27.5532 -49.8647 -44.2078
    endloop
  endfacet
  facet normal 0.336885 -0.665773 -0.665773
    outer loop
      vertex 27.5532 -47.7434 -46.3292
      vertex 20.9005 -51.5479 -45.891
      vertex 20.9005 -49.4266 -48.0123
    endloop
  endfacet
  facet normal -0.595696 0.567955 0.567955
    outer loop
      vertex -45.6763 38.6482 40.0624
      vertex -40.0011 39.5031 45.1599
      vertex -40.0011 41.6244 43.0386
    endloop
  endfacet
  facet normal -0.595703 0.567938 0.567965
    outer loop
      vertex -40.0011 39.5031 45.1599
      vertex -45.6763 38.6482 40.0624
      vertex -45.6763 36.5268 42.1837
    endloop
  endfacet
  facet normal -0.242983 -0.685915 -0.685915
    outer loop
      vertex -20.9005 -49.4266 -48.0123
      vertex -14.0465 -52.7619 -47.105
      vertex -20.9005 -51.5479 -45.891
    endloop
  endfacet
  facet normal -0.242973 -0.685901 -0.685933
    outer loop
      vertex -14.0465 -52.7619 -47.105
      vertex -20.9005 -49.4266 -48.0123
      vertex -14.0465 -50.6405 -49.2263
    endloop
  endfacet
  facet normal 0.0490769 0.706255 0.706255
    outer loop
      vertex 0 48.0833 53.7401
      vertex 7.05723 49.9594 51.3736
      vertex 0 50.2046 51.6188
    endloop
  endfacet
  facet normal 0.049067 0.706272 0.706238
    outer loop
      vertex 7.05723 49.9594 51.3736
      vertex 0 48.0833 53.7401
      vertex 7.05723 47.8381 53.495
    endloop
  endfacet
  facet normal 0.14673 -0.699437 -0.69947
    outer loop
      vertex 7.05723 -53.495 -47.8381
      vertex 14.0465 -50.6405 -49.2263
      vertex 14.0465 -52.7619 -47.105
    endloop
  endfacet
  facet normal 0.14673 -0.699437 -0.69947
    outer loop
      vertex 14.0465 -50.6405 -49.2263
      vertex 7.05723 -53.495 -47.8381
      vertex 7.05723 -51.3736 -49.9594
    endloop
  endfacet
  facet normal 0.42755 0.639204 0.639234
    outer loop
      vertex 33.9406 42.0717 47.7285
      vertex 27.5532 46.3292 47.7434
      vertex 27.5532 44.2078 49.8647
    endloop
  endfacet
  facet normal 0.427558 0.639216 0.639216
    outer loop
      vertex 27.5532 46.3292 47.7434
      vertex 33.9406 42.0717 47.7285
      vertex 33.9406 44.193 45.6072
    endloop
  endfacet
  facet normal 0.14673 0.69947 0.699437
    outer loop
      vertex 14.0465 47.105 52.7619
      vertex 7.05723 49.9594 51.3736
      vertex 7.05723 47.8381 53.495
    endloop
  endfacet
  facet normal 0.14673 0.69947 0.699437
    outer loop
      vertex 7.05723 49.9594 51.3736
      vertex 14.0465 47.105 52.7619
      vertex 14.0465 49.2263 50.6405
    endloop
  endfacet
  facet normal -0.989176 0.103757 0.103758
    outer loop
      vertex -71.6533 4.28311 5.69732
      vertex -70.6165 7.10395 12.7608
      vertex -70.6165 9.22527 10.6395
    endloop
  endfacet
  facet normal -0.989176 0.103758 0.103758
    outer loop
      vertex -70.6165 7.10395 12.7608
      vertex -71.6533 4.28311 5.69732
      vertex -71.6533 2.16179 7.81865
    endloop
  endfacet
  facet normal 0.803211 -0.42122 -0.42122
    outer loop
      vertex 59.8658 -31.1134 -25.4566
      vertex 55.6568 -33.0051 -31.5909
      vertex 59.8658 -28.9921 -27.5779
    endloop
  endfacet
  facet normal 0.803214 -0.421207 -0.421227
    outer loop
      vertex 55.6568 -33.0051 -31.5909
      vertex 59.8658 -31.1134 -25.4566
      vertex 55.6568 -35.1265 -29.4696
    endloop
  endfacet
  facet normal -0.740952 -0.474852 -0.474875
    outer loop
      vertex -50.9117 -36.7071 -35.2929
      vertex -55.6568 -35.1265 -29.4696
      vertex -55.6568 -33.0051 -31.5909
    endloop
  endfacet
  facet normal -0.740947 -0.474867 -0.474867
    outer loop
      vertex -55.6568 -35.1265 -29.4696
      vertex -50.9117 -36.7071 -35.2929
      vertex -50.9117 -38.8284 -33.1716
    endloop
  endfacet
  facet normal -0.514105 0.606505 0.606505
    outer loop
      vertex -33.9406 44.193 45.6072
      vertex -40.0011 39.5031 45.1599
      vertex -33.9406 42.0717 47.7285
    endloop
  endfacet
  facet normal -0.514105 0.606505 0.606505
    outer loop
      vertex -40.0011 39.5031 45.1599
      vertex -33.9406 44.193 45.6072
      vertex -40.0011 41.6244 43.0386
    endloop
  endfacet
  facet normal 0.514105 -0.606505 -0.606505
    outer loop
      vertex 33.9406 -45.6072 -44.193
      vertex 40.0011 -45.1599 -39.5031
      vertex 33.9406 -47.7285 -42.0717
    endloop
  endfacet
  facet normal 0.514105 -0.606505 -0.606505
    outer loop
      vertex 40.0011 -45.1599 -39.5031
      vertex 33.9406 -45.6072 -44.193
      vertex 40.0011 -43.0386 -41.6244
    endloop
  endfacet
  facet normal 0.989176 -0.103758 -0.103758
    outer loop
      vertex 71.6533 -7.81865 -2.16179
      vertex 70.6165 -10.6395 -9.22527
      vertex 71.6533 -5.69732 -4.28311
    endloop
  endfacet
  facet normal 0.989176 -0.103759 -0.103758
    outer loop
      vertex 70.6165 -10.6395 -9.22527
      vertex 71.6533 -7.81865 -2.16179
      vertex 70.6165 -12.7608 -7.10395
    endloop
  endfacet
  facet normal -0.14673 -0.699437 -0.69947
    outer loop
      vertex -14.0465 -50.6405 -49.2263
      vertex -7.05723 -53.495 -47.8381
      vertex -14.0465 -52.7619 -47.105
    endloop
  endfacet
  facet normal -0.14673 -0.699437 -0.69947
    outer loop
      vertex -7.05723 -53.495 -47.8381
      vertex -14.0465 -50.6405 -49.2263
      vertex -7.05723 -51.3736 -49.9594
    endloop
  endfacet
  facet normal 0.595696 -0.567968 -0.567942
    outer loop
      vertex 45.6763 -42.1837 -36.5268
      vertex 40.0011 -43.0386 -41.6244
      vertex 45.6763 -40.0624 -38.6482
    endloop
  endfacet
  facet normal 0.595703 -0.567952 -0.567952
    outer loop
      vertex 40.0011 -43.0386 -41.6244
      vertex 45.6763 -42.1837 -36.5268
      vertex 40.0011 -45.1599 -39.5031
    endloop
  endfacet
  facet normal 0.595696 0.567955 0.567955
    outer loop
      vertex 40.0011 39.5031 45.1599
      vertex 45.6763 38.6482 40.0624
      vertex 40.0011 41.6244 43.0386
    endloop
  endfacet
  facet normal 0.595703 0.567938 0.567965
    outer loop
      vertex 45.6763 38.6482 40.0624
      vertex 40.0011 39.5031 45.1599
      vertex 45.6763 36.5268 42.1837
    endloop
  endfacet
  facet normal 0.970033 -0.17181 -0.171808
    outer loop
      vertex 70.6165 -12.7608 -7.10395
      vertex 68.8997 -15.486 -14.0718
      vertex 70.6165 -10.6395 -9.22527
    endloop
  endfacet
  facet normal 0.970033 -0.171809 -0.171809
    outer loop
      vertex 68.8997 -15.486 -14.0718
      vertex 70.6165 -12.7608 -7.10395
      vertex 68.8997 -17.6073 -11.9505
    endloop
  endfacet
  facet normal -0.857729 0.363525 0.363525
    outer loop
      vertex -63.4983 23.2925 24.7067
      vertex -59.8658 25.4566 31.1134
      vertex -59.8658 27.5779 28.9921
    endloop
  endfacet
  facet normal -0.857729 0.363525 0.363525
    outer loop
      vertex -59.8658 25.4566 31.1134
      vertex -63.4983 23.2925 24.7067
      vertex -63.4983 21.1712 26.828
    endloop
  endfacet
  facet normal -0.941544 -0.238218 -0.238218
    outer loop
      vertex -66.5193 -20.1902 -18.776
      vertex -68.8997 -17.6073 -11.9505
      vertex -68.8997 -15.486 -14.0718
    endloop
  endfacet
  facet normal -0.941542 -0.238226 -0.238215
    outer loop
      vertex -68.8997 -17.6073 -11.9505
      vertex -66.5193 -20.1902 -18.776
      vertex -66.5193 -22.3115 -16.6546
    endloop
  endfacet
  facet normal -0.14673 0.69947 0.699437
    outer loop
      vertex -7.05723 49.9594 51.3736
      vertex -14.0465 47.105 52.7619
      vertex -7.05723 47.8381 53.495
    endloop
  endfacet
  facet normal -0.14673 0.69947 0.699437
    outer loop
      vertex -14.0465 47.105 52.7619
      vertex -7.05723 49.9594 51.3736
      vertex -14.0465 49.2263 50.6405
    endloop
  endfacet
  facet normal 0.803211 0.42123 0.42121
    outer loop
      vertex 55.6568 29.4696 35.1265
      vertex 59.8658 27.5779 28.9921
      vertex 55.6568 31.5909 33.0051
    endloop
  endfacet
  facet normal 0.803214 0.421217 0.421217
    outer loop
      vertex 59.8658 27.5779 28.9921
      vertex 55.6568 29.4696 35.1265
      vertex 59.8658 25.4566 31.1134
    endloop
  endfacet
  facet normal -0.970033 -0.17181 -0.171808
    outer loop
      vertex -68.8997 -15.486 -14.0718
      vertex -70.6165 -12.7608 -7.10395
      vertex -70.6165 -10.6395 -9.22527
    endloop
  endfacet
  facet normal -0.970033 -0.171809 -0.171809
    outer loop
      vertex -70.6165 -12.7608 -7.10395
      vertex -68.8997 -15.486 -14.0718
      vertex -68.8997 -17.6073 -11.9505
    endloop
  endfacet
  facet normal -0.998795 -0.0346961 -0.0346961
    outer loop
      vertex -71.6533 -5.69732 -4.28311
      vertex -72 -2.82843 2.82843
      vertex -72 -0.707107 0.707107
    endloop
  endfacet
  facet normal -0.998795 -0.034696 -0.0346962
    outer loop
      vertex -72 -2.82843 2.82843
      vertex -71.6533 -5.69732 -4.28311
      vertex -71.6533 -7.81865 -2.16179
    endloop
  endfacet
  facet normal 0.514105 0.606505 0.606505
    outer loop
      vertex 33.9406 42.0717 47.7285
      vertex 40.0011 41.6244 43.0386
      vertex 33.9406 44.193 45.6072
    endloop
  endfacet
  facet normal 0.514105 0.606505 0.606505
    outer loop
      vertex 40.0011 41.6244 43.0386
      vertex 33.9406 42.0717 47.7285
      vertex 40.0011 39.5031 45.1599
    endloop
  endfacet
  facet normal -0.903987 0.30233 0.30233
    outer loop
      vertex -66.5193 18.776 20.1902
      vertex -63.4983 21.1712 26.828
      vertex -63.4983 23.2925 24.7067
    endloop
  endfacet
  facet normal -0.903989 0.30232 0.302334
    outer loop
      vertex -63.4983 21.1712 26.828
      vertex -66.5193 18.776 20.1902
      vertex -66.5193 16.6546 22.3115
    endloop
  endfacet
  facet normal 0.998795 -0.0346961 -0.0346961
    outer loop
      vertex 72 -2.82843 2.82843
      vertex 71.6533 -5.69732 -4.28311
      vertex 72 -0.707107 0.707107
    endloop
  endfacet
  facet normal 0.998795 -0.034696 -0.0346962
    outer loop
      vertex 71.6533 -5.69732 -4.28311
      vertex 72 -2.82843 2.82843
      vertex 71.6533 -7.81865 -2.16179
    endloop
  endfacet
  facet normal 0.903987 -0.302337 -0.302323
    outer loop
      vertex 66.5193 -22.3115 -16.6546
      vertex 63.4983 -24.7067 -23.2925
      vertex 66.5193 -20.1902 -18.776
    endloop
  endfacet
  facet normal 0.903989 -0.302327 -0.302327
    outer loop
      vertex 63.4983 -24.7067 -23.2925
      vertex 66.5193 -22.3115 -16.6546
      vertex 63.4983 -26.828 -21.1712
    endloop
  endfacet
  facet normal 0.671561 0.523918 0.523943
    outer loop
      vertex 45.6763 36.5268 42.1837
      vertex 50.9117 35.2929 36.7071
      vertex 45.6763 38.6482 40.0624
    endloop
  endfacet
  facet normal 0.671555 0.523934 0.523934
    outer loop
      vertex 50.9117 35.2929 36.7071
      vertex 45.6763 36.5268 42.1837
      vertex 50.9117 33.1716 38.8284
    endloop
  endfacet
  facet normal -0.049067 0.706255 0.706255
    outer loop
      vertex 0 50.2046 51.6188
      vertex -7.05723 47.8381 53.495
      vertex 0 48.0833 53.7401
    endloop
  endfacet
  facet normal -0.0490769 0.706271 0.706238
    outer loop
      vertex -7.05723 47.8381 53.495
      vertex 0 50.2046 51.6188
      vertex -7.05723 49.9594 51.3736
    endloop
  endfacet
  facet normal -0.740952 0.474864 0.474864
    outer loop
      vertex -55.6568 31.5909 33.0051
      vertex -50.9117 33.1716 38.8284
      vertex -50.9117 35.2929 36.7071
    endloop
  endfacet
  facet normal -0.740947 0.474878 0.474856
    outer loop
      vertex -50.9117 33.1716 38.8284
      vertex -55.6568 31.5909 33.0051
      vertex -55.6568 29.4696 35.1265
    endloop
  endfacet
  facet normal -0.671561 -0.523931 -0.523931
    outer loop
      vertex -45.6763 -40.0624 -38.6482
      vertex -50.9117 -38.8284 -33.1716
      vertex -50.9117 -36.7071 -35.2929
    endloop
  endfacet
  facet normal -0.671555 -0.523946 -0.523922
    outer loop
      vertex -50.9117 -38.8284 -33.1716
      vertex -45.6763 -40.0624 -38.6482
      vertex -45.6763 -42.1837 -36.5268
    endloop
  endfacet
  facet normal 0.049067 -0.706255 -0.706255
    outer loop
      vertex 0 -51.6188 -50.2046
      vertex 7.05723 -53.495 -47.8381
      vertex 0 -53.7401 -48.0833
    endloop
  endfacet
  facet normal 0.0490769 -0.706238 -0.706271
    outer loop
      vertex 7.05723 -53.495 -47.8381
      vertex 0 -51.6188 -50.2046
      vertex 7.05723 -51.3736 -49.9594
    endloop
  endfacet
  facet normal 0.941544 0.238212 0.238224
    outer loop
      vertex 66.5193 16.6546 22.3115
      vertex 68.8997 14.0718 15.486
      vertex 66.5193 18.776 20.1902
    endloop
  endfacet
  facet normal 0.941542 0.23822 0.23822
    outer loop
      vertex 68.8997 14.0718 15.486
      vertex 66.5193 16.6546 22.3115
      vertex 68.8997 11.9505 17.6073
    endloop
  endfacet
  facet normal 0.857729 -0.363525 -0.363525
    outer loop
      vertex 63.4983 -26.828 -21.1712
      vertex 59.8658 -28.9921 -27.5779
      vertex 63.4983 -24.7067 -23.2925
    endloop
  endfacet
  facet normal 0.857729 -0.363525 -0.363525
    outer loop
      vertex 59.8658 -28.9921 -27.5779
      vertex 63.4983 -26.828 -21.1712
      vertex 59.8658 -31.1134 -25.4566
    endloop
  endfacet
  facet normal -0.049067 -0.706238 -0.706272
    outer loop
      vertex -7.05723 -51.3736 -49.9594
      vertex 0 -53.7401 -48.0833
      vertex -7.05723 -53.495 -47.8381
    endloop
  endfacet
  facet normal -0.0490769 -0.706255 -0.706255
    outer loop
      vertex 0 -53.7401 -48.0833
      vertex -7.05723 -51.3736 -49.9594
      vertex 0 -51.6188 -50.2046
    endloop
  endfacet
  facet normal -0.242983 0.685931 0.685899
    outer loop
      vertex -14.0465 49.2263 50.6405
      vertex -20.9005 45.891 51.5479
      vertex -14.0465 47.105 52.7619
    endloop
  endfacet
  facet normal -0.242973 0.685917 0.685917
    outer loop
      vertex -20.9005 45.891 51.5479
      vertex -14.0465 49.2263 50.6405
      vertex -20.9005 48.0123 49.4266
    endloop
  endfacet
  facet normal 0.242983 -0.685899 -0.685931
    outer loop
      vertex 14.0465 -50.6405 -49.2263
      vertex 20.9005 -51.5479 -45.891
      vertex 14.0465 -52.7619 -47.105
    endloop
  endfacet
  facet normal 0.242973 -0.685917 -0.685917
    outer loop
      vertex 20.9005 -51.5479 -45.891
      vertex 14.0465 -50.6405 -49.2263
      vertex 20.9005 -49.4266 -48.0123
    endloop
  endfacet
  facet normal 0.42755 -0.639219 -0.639219
    outer loop
      vertex 27.5532 -49.8647 -44.2078
      vertex 33.9406 -45.6072 -44.193
      vertex 33.9406 -47.7285 -42.0717
    endloop
  endfacet
  facet normal 0.427558 -0.639231 -0.639201
    outer loop
      vertex 33.9406 -45.6072 -44.193
      vertex 27.5532 -49.8647 -44.2078
      vertex 27.5532 -47.7434 -46.3292
    endloop
  endfacet
  facet normal -0.336894 -0.665787 -0.665756
    outer loop
      vertex -27.5532 -47.7434 -46.3292
      vertex -20.9005 -51.5479 -45.891
      vertex -27.5532 -49.8647 -44.2078
    endloop
  endfacet
  facet normal -0.336885 -0.665773 -0.665773
    outer loop
      vertex -20.9005 -51.5479 -45.891
      vertex -27.5532 -47.7434 -46.3292
      vertex -20.9005 -49.4266 -48.0123
    endloop
  endfacet
  facet normal 0.903987 0.30233 0.30233
    outer loop
      vertex 63.4983 21.1712 26.828
      vertex 66.5193 18.776 20.1902
      vertex 63.4983 23.2925 24.7067
    endloop
  endfacet
  facet normal 0.903989 0.30232 0.302334
    outer loop
      vertex 66.5193 18.776 20.1902
      vertex 63.4983 21.1712 26.828
      vertex 66.5193 16.6546 22.3115
    endloop
  endfacet
  facet normal -0.671561 0.523918 0.523943
    outer loop
      vertex -50.9117 35.2929 36.7071
      vertex -45.6763 36.5268 42.1837
      vertex -45.6763 38.6482 40.0624
    endloop
  endfacet
  facet normal -0.671555 0.523934 0.523934
    outer loop
      vertex -45.6763 36.5268 42.1837
      vertex -50.9117 35.2929 36.7071
      vertex -50.9117 33.1716 38.8284
    endloop
  endfacet
  facet normal 0.857729 0.363525 0.363525
    outer loop
      vertex 59.8658 25.4566 31.1134
      vertex 63.4983 23.2925 24.7067
      vertex 59.8658 27.5779 28.9921
    endloop
  endfacet
  facet normal 0.857729 0.363525 0.363525
    outer loop
      vertex 63.4983 23.2925 24.7067
      vertex 59.8658 25.4566 31.1134
      vertex 63.4983 21.1712 26.828
    endloop
  endfacet
  facet normal 0.336894 0.665771 0.665771
    outer loop
      vertex 27.5532 44.2078 49.8647
      vertex 20.9005 48.0123 49.4266
      vertex 20.9005 45.891 51.5479
    endloop
  endfacet
  facet normal 0.336885 0.665758 0.665789
    outer loop
      vertex 20.9005 48.0123 49.4266
      vertex 27.5532 44.2078 49.8647
      vertex 27.5532 46.3292 47.7434
    endloop
  endfacet
  facet normal -0.336894 0.665771 0.665771
    outer loop
      vertex -20.9005 48.0123 49.4266
      vertex -27.5532 44.2078 49.8647
      vertex -20.9005 45.891 51.5479
    endloop
  endfacet
  facet normal -0.336885 0.665758 0.665789
    outer loop
      vertex -27.5532 44.2078 49.8647
      vertex -20.9005 48.0123 49.4266
      vertex -27.5532 46.3292 47.7434
    endloop
  endfacet
  facet normal -0.857729 -0.363525 -0.363525
    outer loop
      vertex -59.8658 -28.9921 -27.5779
      vertex -63.4983 -26.828 -21.1712
      vertex -63.4983 -24.7067 -23.2925
    endloop
  endfacet
  facet normal -0.857729 -0.363525 -0.363525
    outer loop
      vertex -63.4983 -26.828 -21.1712
      vertex -59.8658 -28.9921 -27.5779
      vertex -59.8658 -31.1134 -25.4566
    endloop
  endfacet
  facet normal -0.514105 -0.606505 -0.606505
    outer loop
      vertex -40.0011 -43.0386 -41.6244
      vertex -33.9406 -47.7285 -42.0717
      vertex -40.0011 -45.1599 -39.5031
    endloop
  endfacet
  facet normal -0.514105 -0.606505 -0.606505
    outer loop
      vertex -33.9406 -47.7285 -42.0717
      vertex -40.0011 -43.0386 -41.6244
      vertex -33.9406 -45.6072 -44.193
    endloop
  endfacet
  facet normal -0.42755 -0.639219 -0.639219
    outer loop
      vertex -33.9406 -45.6072 -44.193
      vertex -27.5532 -49.8647 -44.2078
      vertex -33.9406 -47.7285 -42.0717
    endloop
  endfacet
  facet normal -0.427558 -0.639231 -0.639201
    outer loop
      vertex -27.5532 -49.8647 -44.2078
      vertex -33.9406 -45.6072 -44.193
      vertex -27.5532 -47.7434 -46.3292
    endloop
  endfacet
  facet normal 0.740952 0.474864 0.474864
    outer loop
      vertex 50.9117 33.1716 38.8284
      vertex 55.6568 31.5909 33.0051
      vertex 50.9117 35.2929 36.7071
    endloop
  endfacet
  facet normal 0.740947 0.474878 0.474856
    outer loop
      vertex 55.6568 31.5909 33.0051
      vertex 50.9117 33.1716 38.8284
      vertex 55.6568 29.4696 35.1265
    endloop
  endfacet
  facet normal 0.242973 0.685933 0.685901
    outer loop
      vertex 14.0465 47.105 52.7619
      vertex 20.9005 48.0123 49.4266
      vertex 14.0465 49.2263 50.6405
    endloop
  endfacet
  facet normal 0.242983 0.685915 0.685915
    outer loop
      vertex 20.9005 48.0123 49.4266
      vertex 14.0465 47.105 52.7619
      vertex 20.9005 45.891 51.5479
    endloop
  endfacet
  facet normal -0.803211 -0.42122 -0.42122
    outer loop
      vertex -55.6568 -33.0051 -31.5909
      vertex -59.8658 -31.1134 -25.4566
      vertex -59.8658 -28.9921 -27.5779
    endloop
  endfacet
  facet normal -0.803214 -0.421207 -0.421227
    outer loop
      vertex -59.8658 -31.1134 -25.4566
      vertex -55.6568 -33.0051 -31.5909
      vertex -55.6568 -35.1265 -29.4696
    endloop
  endfacet
  facet normal 0 -0.707107 0.707107
    outer loop
      vertex 65 -2.82843 2.82843
      vertex 72 -2.82843 2.82843
      vertex 71.6533 2.16179 7.81865
    endloop
  endfacet
  facet normal -1.09863e-06 -0.707106 0.707107
    outer loop
      vertex 64.687 1.67663 7.33348
      vertex 71.6533 2.16179 7.81865
      vertex 70.6165 7.10395 12.7608
    endloop
  endfacet
  facet normal 0 -0.707107 0.707107
    outer loop
      vertex 72 -2.82843 2.82843
      vertex 65 -2.82843 2.82843
      vertex 71.6533 -7.81865 -2.16179
    endloop
  endfacet
  facet normal 3.92798e-06 -0.707102 0.707111
    outer loop
      vertex 63.751 6.1383 11.7952
      vertex 70.6165 7.10395 12.7608
      vertex 68.8997 11.9505 17.6073
    endloop
  endfacet
  facet normal -1.11894e-06 -0.707108 0.707106
    outer loop
      vertex 64.687 -7.33348 -1.67663
      vertex 71.6533 -7.81865 -2.16179
      vertex 65 -2.82843 2.82843
    endloop
  endfacet
  facet normal 1.2431e-05 -0.707111 0.707102
    outer loop
      vertex 62.2011 10.5136 16.1705
      vertex 68.8997 11.9505 17.6073
      vertex 66.5193 16.6546 22.3115
    endloop
  endfacet
  facet normal -1.09863e-06 -0.707107 0.707106
    outer loop
      vertex 71.6533 -7.81865 -2.16179
      vertex 64.687 -7.33348 -1.67663
      vertex 70.6165 -12.7608 -7.10395
    endloop
  endfacet
  facet normal 6.0847e-06 -0.707103 0.70711
    outer loop
      vertex 63.751 -11.7952 -6.1383
      vertex 70.6165 -12.7608 -7.10395
      vertex 64.687 -7.33348 -1.67663
    endloop
  endfacet
  facet normal -1.11894e-06 -0.707106 0.707108
    outer loop
      vertex 71.6533 2.16179 7.81865
      vertex 64.687 1.67663 7.33348
      vertex 65 -2.82843 2.82843
    endloop
  endfacet
  facet normal 6.0847e-06 -0.70711 0.707103
    outer loop
      vertex 70.6165 7.10395 12.7608
      vertex 63.751 6.1383 11.7952
      vertex 64.687 1.67663 7.33348
    endloop
  endfacet
  facet normal -3.83438e-06 -0.7071 0.707113
    outer loop
      vertex 60.0522 14.7604 20.4173
      vertex 66.5193 16.6546 22.3115
      vertex 63.4983 21.1712 26.828
    endloop
  endfacet
  facet normal 9.81059e-06 -0.707105 0.707109
    outer loop
      vertex 68.8997 11.9505 17.6073
      vertex 62.2011 10.5136 16.1705
      vertex 63.751 6.1383 11.7952
    endloop
  endfacet
  facet normal 0 -0.707107 0.707107
    outer loop
      vertex 66.5193 16.6546 22.3115
      vertex 60.0522 14.7604 20.4173
      vertex 62.2011 10.5136 16.1705
    endloop
  endfacet
  facet normal -1.79793e-16 -0.707107 0.707107
    outer loop
      vertex 57.3249 18.8379 24.4947
      vertex 63.4983 21.1712 26.828
      vertex 59.8658 25.4566 31.1134
    endloop
  endfacet
  facet normal -5.23188e-06 -0.7071 0.707114
    outer loop
      vertex 63.4983 21.1712 26.828
      vertex 57.3249 18.8379 24.4947
      vertex 60.0522 14.7604 20.4173
    endloop
  endfacet
  facet normal 5.56653e-06 -0.707113 0.707101
    outer loop
      vertex 54.0455 22.7067 28.3635
      vertex 59.8658 25.4566 31.1134
      vertex 55.6568 29.4696 35.1265
    endloop
  endfacet
  facet normal -2.38982e-16 -0.707107 0.707107
    outer loop
      vertex 59.8658 25.4566 31.1134
      vertex 54.0455 22.7067 28.3635
      vertex 57.3249 18.8379 24.4947
    endloop
  endfacet
  facet normal -6.35636e-06 -0.707101 0.707112
    outer loop
      vertex 50.2457 26.3295 31.9864
      vertex 55.6568 29.4696 35.1265
      vertex 50.9117 33.1716 38.8284
    endloop
  endfacet
  facet normal 7.04094e-06 -0.707113 0.707101
    outer loop
      vertex 55.6568 29.4696 35.1265
      vertex 50.2457 26.3295 31.9864
      vertex 54.0455 22.7067 28.3635
    endloop
  endfacet
  facet normal -7.84783e-06 -0.707101 0.707112
    outer loop
      vertex 50.9117 33.1716 38.8284
      vertex 45.9619 29.6716 35.3284
      vertex 50.2457 26.3295 31.9864
    endloop
  endfacet
  facet normal 7.08489e-06 -0.707112 0.707102
    outer loop
      vertex 45.6763 36.5268 42.1837
      vertex 45.9619 29.6716 35.3284
      vertex 50.9117 33.1716 38.8284
    endloop
  endfacet
  facet normal 8.57949e-06 -0.707112 0.707102
    outer loop
      vertex 45.6763 36.5268 42.1837
      vertex 41.2356 32.7006 38.3575
      vertex 45.9619 29.6716 35.3284
    endloop
  endfacet
  facet normal -7.74534e-06 -0.707102 0.707111
    outer loop
      vertex 40.0011 39.5031 45.1599
      vertex 41.2356 32.7006 38.3575
      vertex 45.6763 36.5268 42.1837
    endloop
  endfacet
  facet normal 6.02474e-06 -0.707101 0.707113
    outer loop
      vertex 40.0011 39.5031 45.1599
      vertex 36.1121 35.3875 41.0444
      vertex 41.2356 32.7006 38.3575
    endloop
  endfacet
  facet normal 5.19952e-06 -0.707101 0.707113
    outer loop
      vertex 33.9406 42.0717 47.7285
      vertex 36.1121 35.3875 41.0444
      vertex 40.0011 39.5031 45.1599
    endloop
  endfacet
  facet normal -9.78809e-06 -0.707103 0.70711
    outer loop
      vertex 33.9406 42.0717 47.7285
      vertex 30.6408 37.7064 43.3632
      vertex 36.1121 35.3875 41.0444
    endloop
  endfacet
  facet normal 8.83646e-06 -0.70711 0.707103
    outer loop
      vertex 27.5532 44.2078 49.8647
      vertex 30.6408 37.7064 43.3632
      vertex 33.9406 42.0717 47.7285
    endloop
  endfacet
  facet normal -4.32419e-06 -0.707113 0.7071
    outer loop
      vertex 27.5532 44.2078 49.8647
      vertex 24.8744 39.6349 45.2917
      vertex 30.6408 37.7064 43.3632
    endloop
  endfacet
  facet normal -3.40725e-06 -0.707114 0.7071
    outer loop
      vertex 20.9005 45.891 51.5479
      vertex 24.8744 39.6349 45.2917
      vertex 27.5532 44.2078 49.8647
    endloop
  endfacet
  facet normal 1.06207e-05 -0.707109 0.707105
    outer loop
      vertex 20.9005 45.891 51.5479
      vertex 18.8685 41.1544 46.8113
      vertex 24.8744 39.6349 45.2917
    endloop
  endfacet
  facet normal 0 -0.707107 0.707107
    outer loop
      vertex 14.0465 47.105 52.7619
      vertex 18.8685 41.1544 46.8113
      vertex 20.9005 45.891 51.5479
    endloop
  endfacet
  facet normal -1.33429e-05 -0.707112 0.707101
    outer loop
      vertex 14.0465 47.105 52.7619
      vertex 12.6809 42.2504 47.9072
      vertex 18.8685 41.1544 46.8113
    endloop
  endfacet
  facet normal -1.48399e-06 -0.707114 0.7071
    outer loop
      vertex 7.05723 47.8381 53.495
      vertex 12.6809 42.2504 47.9072
      vertex 14.0465 47.105 52.7619
    endloop
  endfacet
  facet normal -1.48391e-06 -0.707114 0.7071
    outer loop
      vertex 7.05723 47.8381 53.495
      vertex 6.37111 42.9122 48.569
      vertex 12.6809 42.2504 47.9072
    endloop
  endfacet
  facet normal -1.04676e-05 -0.707113 0.7071
    outer loop
      vertex 0 48.0833 53.7401
      vertex 6.37111 42.9122 48.569
      vertex 7.05723 47.8381 53.495
    endloop
  endfacet
  facet normal 1.1595e-05 -0.7071 0.707114
    outer loop
      vertex 0 48.0833 53.7401
      vertex 0 43.1335 48.7904
      vertex 6.37111 42.9122 48.569
    endloop
  endfacet
  facet normal -1.1595e-05 -0.7071 0.707114
    outer loop
      vertex 0 48.0833 53.7401
      vertex -6.37111 42.9122 48.569
      vertex 0 43.1335 48.7904
    endloop
  endfacet
  facet normal 1.04676e-05 -0.707113 0.7071
    outer loop
      vertex -7.05723 47.8381 53.495
      vertex -6.37111 42.9122 48.569
      vertex 0 48.0833 53.7401
    endloop
  endfacet
  facet normal 1.48391e-06 -0.707114 0.7071
    outer loop
      vertex -7.05723 47.8381 53.495
      vertex -12.6809 42.2504 47.9072
      vertex -6.37111 42.9122 48.569
    endloop
  endfacet
  facet normal 1.48399e-06 -0.707114 0.7071
    outer loop
      vertex -14.0465 47.105 52.7619
      vertex -12.6809 42.2504 47.9072
      vertex -7.05723 47.8381 53.495
    endloop
  endfacet
  facet normal 1.33429e-05 -0.707112 0.707101
    outer loop
      vertex -14.0465 47.105 52.7619
      vertex -18.8685 41.1544 46.8113
      vertex -12.6809 42.2504 47.9072
    endloop
  endfacet
  facet normal 0 -0.707107 0.707107
    outer loop
      vertex -20.9005 45.891 51.5479
      vertex -18.8685 41.1544 46.8113
      vertex -14.0465 47.105 52.7619
    endloop
  endfacet
  facet normal -1.06207e-05 -0.707109 0.707105
    outer loop
      vertex -20.9005 45.891 51.5479
      vertex -24.8744 39.6349 45.2917
      vertex -18.8685 41.1544 46.8113
    endloop
  endfacet
  facet normal 3.40725e-06 -0.707114 0.7071
    outer loop
      vertex -27.5532 44.2078 49.8647
      vertex -24.8744 39.6349 45.2917
      vertex -20.9005 45.891 51.5479
    endloop
  endfacet
  facet normal 4.32419e-06 -0.707113 0.7071
    outer loop
      vertex -27.5532 44.2078 49.8647
      vertex -30.6408 37.7064 43.3632
      vertex -24.8744 39.6349 45.2917
    endloop
  endfacet
  facet normal -8.83646e-06 -0.70711 0.707103
    outer loop
      vertex -33.9406 42.0717 47.7285
      vertex -30.6408 37.7064 43.3632
      vertex -27.5532 44.2078 49.8647
    endloop
  endfacet
  facet normal 9.78809e-06 -0.707103 0.70711
    outer loop
      vertex -33.9406 42.0717 47.7285
      vertex -36.1121 35.3875 41.0444
      vertex -30.6408 37.7064 43.3632
    endloop
  endfacet
  facet normal -5.19952e-06 -0.707101 0.707113
    outer loop
      vertex -40.0011 39.5031 45.1599
      vertex -36.1121 35.3875 41.0444
      vertex -33.9406 42.0717 47.7285
    endloop
  endfacet
  facet normal -6.02474e-06 -0.707101 0.707113
    outer loop
      vertex -40.0011 39.5031 45.1599
      vertex -41.2356 32.7006 38.3575
      vertex -36.1121 35.3875 41.0444
    endloop
  endfacet
  facet normal 7.74534e-06 -0.707102 0.707111
    outer loop
      vertex -45.6763 36.5268 42.1837
      vertex -41.2356 32.7006 38.3575
      vertex -40.0011 39.5031 45.1599
    endloop
  endfacet
  facet normal -8.57949e-06 -0.707112 0.707102
    outer loop
      vertex -45.6763 36.5268 42.1837
      vertex -45.9619 29.6716 35.3284
      vertex -41.2356 32.7006 38.3575
    endloop
  endfacet
  facet normal -7.08489e-06 -0.707112 0.707102
    outer loop
      vertex -50.9117 33.1716 38.8284
      vertex -45.9619 29.6716 35.3284
      vertex -45.6763 36.5268 42.1837
    endloop
  endfacet
  facet normal 7.84783e-06 -0.707101 0.707112
    outer loop
      vertex -45.9619 29.6716 35.3284
      vertex -50.9117 33.1716 38.8284
      vertex -50.2457 26.3295 31.9864
    endloop
  endfacet
  facet normal 6.35636e-06 -0.707101 0.707112
    outer loop
      vertex -55.6568 29.4696 35.1265
      vertex -50.2457 26.3295 31.9864
      vertex -50.9117 33.1716 38.8284
    endloop
  endfacet
  facet normal -7.04094e-06 -0.707113 0.707101
    outer loop
      vertex -50.2457 26.3295 31.9864
      vertex -55.6568 29.4696 35.1265
      vertex -54.0455 22.7067 28.3635
    endloop
  endfacet
  facet normal -5.56653e-06 -0.707113 0.707101
    outer loop
      vertex -59.8658 25.4566 31.1134
      vertex -54.0455 22.7067 28.3635
      vertex -55.6568 29.4696 35.1265
    endloop
  endfacet
  facet normal 2.38982e-16 -0.707107 0.707107
    outer loop
      vertex -54.0455 22.7067 28.3635
      vertex -59.8658 25.4566 31.1134
      vertex -57.3249 18.8379 24.4947
    endloop
  endfacet
  facet normal 1.43834e-16 -0.707107 0.707107
    outer loop
      vertex -63.4983 21.1712 26.828
      vertex -57.3249 18.8379 24.4947
      vertex -59.8658 25.4566 31.1134
    endloop
  endfacet
  facet normal 5.23188e-06 -0.7071 0.707114
    outer loop
      vertex -57.3249 18.8379 24.4947
      vertex -63.4983 21.1712 26.828
      vertex -60.0522 14.7604 20.4173
    endloop
  endfacet
  facet normal 3.83438e-06 -0.7071 0.707113
    outer loop
      vertex -66.5193 16.6546 22.3115
      vertex -60.0522 14.7604 20.4173
      vertex -63.4983 21.1712 26.828
    endloop
  endfacet
  facet normal 0 -0.707107 0.707107
    outer loop
      vertex -60.0522 14.7604 20.4173
      vertex -66.5193 16.6546 22.3115
      vertex -62.2011 10.5136 16.1705
    endloop
  endfacet
  facet normal -1.2431e-05 -0.707111 0.707102
    outer loop
      vertex -68.8997 11.9505 17.6073
      vertex -62.2011 10.5136 16.1705
      vertex -66.5193 16.6546 22.3115
    endloop
  endfacet
  facet normal -9.81059e-06 -0.707105 0.707109
    outer loop
      vertex -62.2011 10.5136 16.1705
      vertex -68.8997 11.9505 17.6073
      vertex -63.751 6.1383 11.7952
    endloop
  endfacet
  facet normal -3.92798e-06 -0.707102 0.707111
    outer loop
      vertex -70.6165 7.10395 12.7608
      vertex -63.751 6.1383 11.7952
      vertex -68.8997 11.9505 17.6073
    endloop
  endfacet
  facet normal 3.92798e-06 -0.707111 0.707102
    outer loop
      vertex 70.6165 -12.7608 -7.10395
      vertex 63.751 -11.7952 -6.1383
      vertex 68.8997 -17.6073 -11.9505
    endloop
  endfacet
  facet normal 9.81059e-06 -0.707109 0.707105
    outer loop
      vertex 62.2011 -16.1705 -10.5136
      vertex 68.8997 -17.6073 -11.9505
      vertex 63.751 -11.7952 -6.1383
    endloop
  endfacet
  facet normal 1.2431e-05 -0.707102 0.707111
    outer loop
      vertex 68.8997 -17.6073 -11.9505
      vertex 62.2011 -16.1705 -10.5136
      vertex 66.5193 -22.3115 -16.6546
    endloop
  endfacet
  facet normal 0 -0.707107 0.707107
    outer loop
      vertex 60.0522 -20.4173 -14.7604
      vertex 66.5193 -22.3115 -16.6546
      vertex 62.2011 -16.1705 -10.5136
    endloop
  endfacet
  facet normal -3.83438e-06 -0.707113 0.7071
    outer loop
      vertex 66.5193 -22.3115 -16.6546
      vertex 60.0522 -20.4173 -14.7604
      vertex 63.4983 -26.828 -21.1712
    endloop
  endfacet
  facet normal -5.23188e-06 -0.707114 0.7071
    outer loop
      vertex 57.3249 -24.4947 -18.8379
      vertex 63.4983 -26.828 -21.1712
      vertex 60.0522 -20.4173 -14.7604
    endloop
  endfacet
  facet normal -1.43834e-16 -0.707107 0.707107
    outer loop
      vertex 63.4983 -26.828 -21.1712
      vertex 57.3249 -24.4947 -18.8379
      vertex 59.8658 -31.1134 -25.4566
    endloop
  endfacet
  facet normal -2.38982e-16 -0.707107 0.707107
    outer loop
      vertex 54.0455 -28.3635 -22.7067
      vertex 59.8658 -31.1134 -25.4566
      vertex 57.3249 -24.4947 -18.8379
    endloop
  endfacet
  facet normal 5.56653e-06 -0.707101 0.707113
    outer loop
      vertex 59.8658 -31.1134 -25.4566
      vertex 54.0455 -28.3635 -22.7067
      vertex 55.6568 -35.1265 -29.4696
    endloop
  endfacet
  facet normal 7.04094e-06 -0.707101 0.707113
    outer loop
      vertex 50.2457 -31.9864 -26.3295
      vertex 55.6568 -35.1265 -29.4696
      vertex 54.0455 -28.3635 -22.7067
    endloop
  endfacet
  facet normal -6.35636e-06 -0.707112 0.707101
    outer loop
      vertex 55.6568 -35.1265 -29.4696
      vertex 50.2457 -31.9864 -26.3295
      vertex 50.9117 -38.8284 -33.1716
    endloop
  endfacet
  facet normal -7.84783e-06 -0.707112 0.707101
    outer loop
      vertex 45.9619 -35.3284 -29.6716
      vertex 50.9117 -38.8284 -33.1716
      vertex 50.2457 -31.9864 -26.3295
    endloop
  endfacet
  facet normal 7.08489e-06 -0.707102 0.707112
    outer loop
      vertex 45.9619 -35.3284 -29.6716
      vertex 45.6763 -42.1837 -36.5268
      vertex 50.9117 -38.8284 -33.1716
    endloop
  endfacet
  facet normal 8.57949e-06 -0.707102 0.707112
    outer loop
      vertex 41.2356 -38.3575 -32.7006
      vertex 45.6763 -42.1837 -36.5268
      vertex 45.9619 -35.3284 -29.6716
    endloop
  endfacet
  facet normal -7.74534e-06 -0.707111 0.707102
    outer loop
      vertex 41.2356 -38.3575 -32.7006
      vertex 40.0011 -45.1599 -39.5031
      vertex 45.6763 -42.1837 -36.5268
    endloop
  endfacet
  facet normal 6.02474e-06 -0.707113 0.707101
    outer loop
      vertex 36.1121 -41.0444 -35.3875
      vertex 40.0011 -45.1599 -39.5031
      vertex 41.2356 -38.3575 -32.7006
    endloop
  endfacet
  facet normal 5.19952e-06 -0.707113 0.707101
    outer loop
      vertex 36.1121 -41.0444 -35.3875
      vertex 33.9406 -47.7285 -42.0717
      vertex 40.0011 -45.1599 -39.5031
    endloop
  endfacet
  facet normal -9.78809e-06 -0.70711 0.707103
    outer loop
      vertex 30.6408 -43.3632 -37.7064
      vertex 33.9406 -47.7285 -42.0717
      vertex 36.1121 -41.0444 -35.3875
    endloop
  endfacet
  facet normal 8.83646e-06 -0.707103 0.70711
    outer loop
      vertex 30.6408 -43.3632 -37.7064
      vertex 27.5532 -49.8647 -44.2078
      vertex 33.9406 -47.7285 -42.0717
    endloop
  endfacet
  facet normal -4.32419e-06 -0.7071 0.707113
    outer loop
      vertex 24.8744 -45.2917 -39.6349
      vertex 27.5532 -49.8647 -44.2078
      vertex 30.6408 -43.3632 -37.7064
    endloop
  endfacet
  facet normal -3.40725e-06 -0.7071 0.707114
    outer loop
      vertex 24.8744 -45.2917 -39.6349
      vertex 20.9005 -51.5479 -45.891
      vertex 27.5532 -49.8647 -44.2078
    endloop
  endfacet
  facet normal 1.06207e-05 -0.707105 0.707109
    outer loop
      vertex 18.8685 -46.8113 -41.1544
      vertex 20.9005 -51.5479 -45.891
      vertex 24.8744 -45.2917 -39.6349
    endloop
  endfacet
  facet normal 0 -0.707107 0.707107
    outer loop
      vertex 18.8685 -46.8113 -41.1544
      vertex 14.0465 -52.7619 -47.105
      vertex 20.9005 -51.5479 -45.891
    endloop
  endfacet
  facet normal -1.33429e-05 -0.707101 0.707112
    outer loop
      vertex 12.6809 -47.9072 -42.2504
      vertex 14.0465 -52.7619 -47.105
      vertex 18.8685 -46.8113 -41.1544
    endloop
  endfacet
  facet normal -1.48399e-06 -0.7071 0.707114
    outer loop
      vertex 12.6809 -47.9072 -42.2504
      vertex 7.05723 -53.495 -47.8381
      vertex 14.0465 -52.7619 -47.105
    endloop
  endfacet
  facet normal -1.48391e-06 -0.7071 0.707114
    outer loop
      vertex 6.37111 -48.569 -42.9122
      vertex 7.05723 -53.495 -47.8381
      vertex 12.6809 -47.9072 -42.2504
    endloop
  endfacet
  facet normal 1.1595e-05 -0.707114 0.7071
    outer loop
      vertex 0 -53.7401 -48.0833
      vertex 6.37111 -48.569 -42.9122
      vertex 0 -48.7904 -43.1335
    endloop
  endfacet
  facet normal -1.04676e-05 -0.7071 0.707113
    outer loop
      vertex 6.37111 -48.569 -42.9122
      vertex 0 -53.7401 -48.0833
      vertex 7.05723 -53.495 -47.8381
    endloop
  endfacet
  facet normal -1.1595e-05 -0.707114 0.7071
    outer loop
      vertex -6.37111 -48.569 -42.9122
      vertex 0 -53.7401 -48.0833
      vertex 0 -48.7904 -43.1335
    endloop
  endfacet
  facet normal 1.04676e-05 -0.7071 0.707113
    outer loop
      vertex -6.37111 -48.569 -42.9122
      vertex -7.05723 -53.495 -47.8381
      vertex 0 -53.7401 -48.0833
    endloop
  endfacet
  facet normal 1.48391e-06 -0.7071 0.707114
    outer loop
      vertex -12.6809 -47.9072 -42.2504
      vertex -7.05723 -53.495 -47.8381
      vertex -6.37111 -48.569 -42.9122
    endloop
  endfacet
  facet normal 1.48399e-06 -0.7071 0.707114
    outer loop
      vertex -12.6809 -47.9072 -42.2504
      vertex -14.0465 -52.7619 -47.105
      vertex -7.05723 -53.495 -47.8381
    endloop
  endfacet
  facet normal 1.33429e-05 -0.707101 0.707112
    outer loop
      vertex -18.8685 -46.8113 -41.1544
      vertex -14.0465 -52.7619 -47.105
      vertex -12.6809 -47.9072 -42.2504
    endloop
  endfacet
  facet normal 0 -0.707107 0.707107
    outer loop
      vertex -18.8685 -46.8113 -41.1544
      vertex -20.9005 -51.5479 -45.891
      vertex -14.0465 -52.7619 -47.105
    endloop
  endfacet
  facet normal -1.06207e-05 -0.707105 0.707109
    outer loop
      vertex -24.8744 -45.2917 -39.6349
      vertex -20.9005 -51.5479 -45.891
      vertex -18.8685 -46.8113 -41.1544
    endloop
  endfacet
  facet normal 3.40725e-06 -0.7071 0.707114
    outer loop
      vertex -24.8744 -45.2917 -39.6349
      vertex -27.5532 -49.8647 -44.2078
      vertex -20.9005 -51.5479 -45.891
    endloop
  endfacet
  facet normal 4.32419e-06 -0.7071 0.707113
    outer loop
      vertex -30.6408 -43.3632 -37.7064
      vertex -27.5532 -49.8647 -44.2078
      vertex -24.8744 -45.2917 -39.6349
    endloop
  endfacet
  facet normal -8.83646e-06 -0.707103 0.70711
    outer loop
      vertex -30.6408 -43.3632 -37.7064
      vertex -33.9406 -47.7285 -42.0717
      vertex -27.5532 -49.8647 -44.2078
    endloop
  endfacet
  facet normal 9.78809e-06 -0.70711 0.707103
    outer loop
      vertex -36.1121 -41.0444 -35.3875
      vertex -33.9406 -47.7285 -42.0717
      vertex -30.6408 -43.3632 -37.7064
    endloop
  endfacet
  facet normal -5.19952e-06 -0.707113 0.707101
    outer loop
      vertex -36.1121 -41.0444 -35.3875
      vertex -40.0011 -45.1599 -39.5031
      vertex -33.9406 -47.7285 -42.0717
    endloop
  endfacet
  facet normal -6.02474e-06 -0.707113 0.707101
    outer loop
      vertex -41.2356 -38.3575 -32.7006
      vertex -40.0011 -45.1599 -39.5031
      vertex -36.1121 -41.0444 -35.3875
    endloop
  endfacet
  facet normal 7.74534e-06 -0.707111 0.707102
    outer loop
      vertex -41.2356 -38.3575 -32.7006
      vertex -45.6763 -42.1837 -36.5268
      vertex -40.0011 -45.1599 -39.5031
    endloop
  endfacet
  facet normal -8.57949e-06 -0.707102 0.707112
    outer loop
      vertex -45.9619 -35.3284 -29.6716
      vertex -45.6763 -42.1837 -36.5268
      vertex -41.2356 -38.3575 -32.7006
    endloop
  endfacet
  facet normal 7.84783e-06 -0.707112 0.707101
    outer loop
      vertex -50.9117 -38.8284 -33.1716
      vertex -45.9619 -35.3284 -29.6716
      vertex -50.2457 -31.9864 -26.3295
    endloop
  endfacet
  facet normal -7.08489e-06 -0.707102 0.707112
    outer loop
      vertex -45.9619 -35.3284 -29.6716
      vertex -50.9117 -38.8284 -33.1716
      vertex -45.6763 -42.1837 -36.5268
    endloop
  endfacet
  facet normal -7.04094e-06 -0.707101 0.707113
    outer loop
      vertex -55.6568 -35.1265 -29.4696
      vertex -50.2457 -31.9864 -26.3295
      vertex -54.0455 -28.3635 -22.7067
    endloop
  endfacet
  facet normal 6.35636e-06 -0.707112 0.707101
    outer loop
      vertex -50.2457 -31.9864 -26.3295
      vertex -55.6568 -35.1265 -29.4696
      vertex -50.9117 -38.8284 -33.1716
    endloop
  endfacet
  facet normal 2.38982e-16 -0.707107 0.707107
    outer loop
      vertex -59.8658 -31.1134 -25.4566
      vertex -54.0455 -28.3635 -22.7067
      vertex -57.3249 -24.4947 -18.8379
    endloop
  endfacet
  facet normal -5.56653e-06 -0.707101 0.707113
    outer loop
      vertex -54.0455 -28.3635 -22.7067
      vertex -59.8658 -31.1134 -25.4566
      vertex -55.6568 -35.1265 -29.4696
    endloop
  endfacet
  facet normal 5.23188e-06 -0.707114 0.7071
    outer loop
      vertex -63.4983 -26.828 -21.1712
      vertex -57.3249 -24.4947 -18.8379
      vertex -60.0522 -20.4173 -14.7604
    endloop
  endfacet
  facet normal 0 -0.707107 0.707107
    outer loop
      vertex -66.5193 -22.3115 -16.6546
      vertex -60.0522 -20.4173 -14.7604
      vertex -62.2011 -16.1705 -10.5136
    endloop
  endfacet
  facet normal 1.79793e-16 -0.707107 0.707107
    outer loop
      vertex -57.3249 -24.4947 -18.8379
      vertex -63.4983 -26.828 -21.1712
      vertex -59.8658 -31.1134 -25.4566
    endloop
  endfacet
  facet normal -9.81059e-06 -0.707109 0.707105
    outer loop
      vertex -68.8997 -17.6073 -11.9505
      vertex -62.2011 -16.1705 -10.5136
      vertex -63.751 -11.7952 -6.1383
    endloop
  endfacet
  facet normal -6.0847e-06 -0.707103 0.70711
    outer loop
      vertex -70.6165 -12.7608 -7.10395
      vertex -63.751 -11.7952 -6.1383
      vertex -64.687 -7.33348 -1.67663
    endloop
  endfacet
  facet normal 1.11894e-06 -0.707108 0.707106
    outer loop
      vertex -71.6533 -7.81865 -2.16179
      vertex -64.687 -7.33348 -1.67663
      vertex -65 -2.82843 2.82843
    endloop
  endfacet
  facet normal -6.0847e-06 -0.70711 0.707103
    outer loop
      vertex -63.751 6.1383 11.7952
      vertex -70.6165 7.10395 12.7608
      vertex -64.687 1.67663 7.33348
    endloop
  endfacet
  facet normal 3.83438e-06 -0.707113 0.7071
    outer loop
      vertex -60.0522 -20.4173 -14.7604
      vertex -66.5193 -22.3115 -16.6546
      vertex -63.4983 -26.828 -21.1712
    endloop
  endfacet
  facet normal 1.09863e-06 -0.707106 0.707107
    outer loop
      vertex -71.6533 2.16179 7.81865
      vertex -64.687 1.67663 7.33348
      vertex -70.6165 7.10395 12.7608
    endloop
  endfacet
  facet normal -1.2431e-05 -0.707102 0.707111
    outer loop
      vertex -62.2011 -16.1705 -10.5136
      vertex -68.8997 -17.6073 -11.9505
      vertex -66.5193 -22.3115 -16.6546
    endloop
  endfacet
  facet normal 1.11894e-06 -0.707106 0.707108
    outer loop
      vertex -64.687 1.67663 7.33348
      vertex -71.6533 2.16179 7.81865
      vertex -65 -2.82843 2.82843
    endloop
  endfacet
  facet normal -3.92798e-06 -0.707111 0.707102
    outer loop
      vertex -63.751 -11.7952 -6.1383
      vertex -70.6165 -12.7608 -7.10395
      vertex -68.8997 -17.6073 -11.9505
    endloop
  endfacet
  facet normal 0 -0.707107 0.707107
    outer loop
      vertex -72 -2.82843 2.82843
      vertex -65 -2.82843 2.82843
      vertex -71.6533 2.16179 7.81865
    endloop
  endfacet
  facet normal 1.09863e-06 -0.707107 0.707106
    outer loop
      vertex -64.687 -7.33348 -1.67663
      vertex -71.6533 -7.81865 -2.16179
      vertex -70.6165 -12.7608 -7.10395
    endloop
  endfacet
  facet normal 0 -0.707107 0.707107
    outer loop
      vertex -65 -2.82843 2.82843
      vertex -72 -2.82843 2.82843
      vertex -71.6533 -7.81865 -2.16179
    endloop
  endfacet
  facet normal -0.989176 -0.103758 -0.103758
    outer loop
      vertex -70.6165 -10.6395 -9.22527
      vertex -71.6533 -7.81865 -2.16179
      vertex -71.6533 -5.69732 -4.28311
    endloop
  endfacet
  facet normal -0.989176 -0.103759 -0.103758
    outer loop
      vertex -71.6533 -7.81865 -2.16179
      vertex -70.6165 -10.6395 -9.22527
      vertex -70.6165 -12.7608 -7.10395
    endloop
  endfacet
  facet normal -0.970033 0.171809 0.171809
    outer loop
      vertex -70.6165 9.22527 10.6395
      vertex -68.8997 11.9505 17.6073
      vertex -68.8997 14.0718 15.486
    endloop
  endfacet
  facet normal -0.970033 0.171808 0.17181
    outer loop
      vertex -68.8997 11.9505 17.6073
      vertex -70.6165 9.22527 10.6395
      vertex -70.6165 7.10395 12.7608
    endloop
  endfacet
  facet normal -0.595696 -0.567968 -0.567942
    outer loop
      vertex -40.0011 -43.0386 -41.6244
      vertex -45.6763 -42.1837 -36.5268
      vertex -45.6763 -40.0624 -38.6482
    endloop
  endfacet
  facet normal -0.595703 -0.567952 -0.567952
    outer loop
      vertex -45.6763 -42.1837 -36.5268
      vertex -40.0011 -43.0386 -41.6244
      vertex -40.0011 -45.1599 -39.5031
    endloop
  endfacet
  facet normal 0.941544 -0.238218 -0.238218
    outer loop
      vertex 68.8997 -17.6073 -11.9505
      vertex 66.5193 -20.1902 -18.776
      vertex 68.8997 -15.486 -14.0718
    endloop
  endfacet
  facet normal 0.941542 -0.238226 -0.238215
    outer loop
      vertex 66.5193 -20.1902 -18.776
      vertex 68.8997 -17.6073 -11.9505
      vertex 66.5193 -22.3115 -16.6546
    endloop
  endfacet
  facet normal -0.903987 -0.302337 -0.302323
    outer loop
      vertex -63.4983 -24.7067 -23.2925
      vertex -66.5193 -22.3115 -16.6546
      vertex -66.5193 -20.1902 -18.776
    endloop
  endfacet
  facet normal -0.903989 -0.302327 -0.302327
    outer loop
      vertex -66.5193 -22.3115 -16.6546
      vertex -63.4983 -24.7067 -23.2925
      vertex -63.4983 -26.828 -21.1712
    endloop
  endfacet
  facet normal -0.941544 0.238212 0.238224
    outer loop
      vertex -68.8997 14.0718 15.486
      vertex -66.5193 16.6546 22.3115
      vertex -66.5193 18.776 20.1902
    endloop
  endfacet
  facet normal -0.941542 0.23822 0.23822
    outer loop
      vertex -66.5193 16.6546 22.3115
      vertex -68.8997 14.0718 15.486
      vertex -68.8997 11.9505 17.6073
    endloop
  endfacet
  facet normal -0.803211 0.42123 0.42121
    outer loop
      vertex -59.8658 27.5779 28.9921
      vertex -55.6568 29.4696 35.1265
      vertex -55.6568 31.5909 33.0051
    endloop
  endfacet
  facet normal -0.803214 0.421217 0.421217
    outer loop
      vertex -55.6568 29.4696 35.1265
      vertex -59.8658 27.5779 28.9921
      vertex -59.8658 25.4566 31.1134
    endloop
  endfacet
  facet normal -0.998795 0.0346962 0.0346961
    outer loop
      vertex -72 -0.707107 0.707107
      vertex -71.6533 2.16179 7.81865
      vertex -71.6533 4.28311 5.69732
    endloop
  endfacet
  facet normal -0.998795 0.0346961 0.0346961
    outer loop
      vertex -71.6533 2.16179 7.81865
      vertex -72 -0.707107 0.707107
      vertex -72 -2.82843 2.82843
    endloop
  endfacet
  facet normal 0.740952 -0.474852 -0.474875
    outer loop
      vertex 55.6568 -35.1265 -29.4696
      vertex 50.9117 -36.7071 -35.2929
      vertex 55.6568 -33.0051 -31.5909
    endloop
  endfacet
  facet normal 0.740947 -0.474867 -0.474867
    outer loop
      vertex 50.9117 -36.7071 -35.2929
      vertex 55.6568 -35.1265 -29.4696
      vertex 50.9117 -38.8284 -33.1716
    endloop
  endfacet
  facet normal 0.671561 -0.523931 -0.523931
    outer loop
      vertex 50.9117 -38.8284 -33.1716
      vertex 45.6763 -40.0624 -38.6482
      vertex 50.9117 -36.7071 -35.2929
    endloop
  endfacet
  facet normal 0.671555 -0.523946 -0.523922
    outer loop
      vertex 45.6763 -40.0624 -38.6482
      vertex 50.9117 -38.8284 -33.1716
      vertex 45.6763 -42.1837 -36.5268
    endloop
  endfacet
  facet normal 0 0.707107 -0.707106
    outer loop
      vertex 65 -0.707107 0.707107
      vertex 72 -0.707107 0.707107
      vertex 71.6533 -5.69732 -4.28311
    endloop
  endfacet
  facet normal -1.96418e-07 0.707105 -0.707108
    outer loop
      vertex 64.687 -5.21216 -3.79795
      vertex 71.6533 -5.69732 -4.28311
      vertex 70.6165 -10.6395 -9.22527
    endloop
  endfacet
  facet normal 0 0.707106 -0.707107
    outer loop
      vertex 72 -0.707107 0.707107
      vertex 65 -0.707107 0.707107
      vertex 71.6533 4.28311 5.69732
    endloop
  endfacet
  facet normal 1.56748e-06 0.707109 -0.707105
    outer loop
      vertex 63.751 -9.67384 -8.25962
      vertex 70.6165 -10.6395 -9.22527
      vertex 68.8997 -15.486 -14.0718
    endloop
  endfacet
  facet normal 4.35142e-08 0.707106 -0.707107
    outer loop
      vertex 64.687 3.79795 5.21216
      vertex 71.6533 4.28311 5.69732
      vertex 65 -0.707107 0.707107
    endloop
  endfacet
  facet normal -9.52247e-06 0.707109 -0.707104
    outer loop
      vertex 62.2011 -14.0492 -12.6349
      vertex 68.8997 -15.486 -14.0718
      vertex 66.5193 -20.1902 -18.776
    endloop
  endfacet
  facet normal -1.96418e-07 0.707108 -0.707105
    outer loop
      vertex 71.6533 4.28311 5.69732
      vertex 64.687 3.79795 5.21216
      vertex 70.6165 9.22527 10.6395
    endloop
  endfacet
  facet normal 7.83898e-07 0.707108 -0.707106
    outer loop
      vertex 63.751 8.25962 9.67384
      vertex 70.6165 9.22527 10.6395
      vertex 64.687 3.79795 5.21216
    endloop
  endfacet
  facet normal 4.35142e-08 0.707107 -0.707106
    outer loop
      vertex 71.6533 -5.69732 -4.28311
      vertex 64.687 -5.21216 -3.79795
      vertex 65 -0.707107 0.707107
    endloop
  endfacet
  facet normal 7.83898e-07 0.707106 -0.707108
    outer loop
      vertex 70.6165 -10.6395 -9.22527
      vertex 63.751 -9.67384 -8.25962
      vertex 64.687 -5.21216 -3.79795
    endloop
  endfacet
  facet normal 0 0.707107 -0.707107
    outer loop
      vertex 60.0522 -18.296 -16.8818
      vertex 66.5193 -20.1902 -18.776
      vertex 63.4983 -24.7067 -23.2925
    endloop
  endfacet
  facet normal -1.2388e-05 0.707103 -0.707111
    outer loop
      vertex 68.8997 -15.486 -14.0718
      vertex 62.2011 -14.0492 -12.6349
      vertex 63.751 -9.67384 -8.25962
    endloop
  endfacet
  facet normal 4.24732e-06 0.707114 -0.7071
    outer loop
      vertex 66.5193 -20.1902 -18.776
      vertex 60.0522 -18.296 -16.8818
      vertex 62.2011 -14.0492 -12.6349
    endloop
  endfacet
  facet normal 0 0.707107 -0.707107
    outer loop
      vertex 57.3249 -22.3734 -20.9592
      vertex 63.4983 -24.7067 -23.2925
      vertex 59.8658 -28.9921 -27.5779
    endloop
  endfacet
  facet normal 0 0.707107 -0.707107
    outer loop
      vertex 63.4983 -24.7067 -23.2925
      vertex 57.3249 -22.3734 -20.9592
      vertex 60.0522 -18.296 -16.8818
    endloop
  endfacet
  facet normal 2.15751e-16 0.707107 -0.707107
    outer loop
      vertex 54.0455 -26.2422 -24.828
      vertex 59.8658 -28.9921 -27.5779
      vertex 55.6568 -33.0051 -31.5909
    endloop
  endfacet
  facet normal 0 0.707107 -0.707107
    outer loop
      vertex 59.8658 -28.9921 -27.5779
      vertex 54.0455 -26.2422 -24.828
      vertex 57.3249 -22.3734 -20.9592
    endloop
  endfacet
  facet normal -7.49378e-06 0.707112 -0.707102
    outer loop
      vertex 50.2457 -29.8651 -28.4508
      vertex 55.6568 -33.0051 -31.5909
      vertex 50.9117 -36.7071 -35.2929
    endloop
  endfacet
  facet normal -1.51643e-05 0.707105 -0.707109
    outer loop
      vertex 55.6568 -33.0051 -31.5909
      vertex 50.2457 -29.8651 -28.4508
      vertex 54.0455 -26.2422 -24.828
    endloop
  endfacet
  facet normal 7.84783e-06 0.707112 -0.707101
    outer loop
      vertex 50.9117 -36.7071 -35.2929
      vertex 45.9619 -33.2071 -31.7929
      vertex 50.2457 -29.8651 -28.4508
    endloop
  endfacet
  facet normal -2.15746e-16 0.707107 -0.707107
    outer loop
      vertex 45.6763 -40.0624 -38.6482
      vertex 45.9619 -33.2071 -31.7929
      vertex 50.9117 -36.7071 -35.2929
    endloop
  endfacet
  facet normal 2.38986e-16 0.707107 -0.707107
    outer loop
      vertex 45.6763 -40.0624 -38.6482
      vertex 41.2356 -36.2362 -34.822
      vertex 45.9619 -33.2071 -31.7929
    endloop
  endfacet
  facet normal -5.75342e-16 0.707107 -0.707107
    outer loop
      vertex 40.0011 -43.0386 -41.6244
      vertex 41.2356 -36.2362 -34.822
      vertex 45.6763 -40.0624 -38.6482
    endloop
  endfacet
  facet normal -6.37295e-16 0.707107 -0.707107
    outer loop
      vertex 40.0011 -43.0386 -41.6244
      vertex 36.1121 -38.9231 -37.5089
      vertex 41.2356 -36.2362 -34.822
    endloop
  endfacet
  facet normal 0 0.707107 -0.707107
    outer loop
      vertex 33.9406 -45.6072 -44.193
      vertex 36.1121 -38.9231 -37.5089
      vertex 40.0011 -43.0386 -41.6244
    endloop
  endfacet
  facet normal 0 0.707107 -0.707107
    outer loop
      vertex 33.9406 -45.6072 -44.193
      vertex 30.6408 -41.2419 -39.8277
      vertex 36.1121 -38.9231 -37.5089
    endloop
  endfacet
  facet normal 0 0.707107 -0.707107
    outer loop
      vertex 27.5532 -47.7434 -46.3292
      vertex 30.6408 -41.2419 -39.8277
      vertex 33.9406 -45.6072 -44.193
    endloop
  endfacet
  facet normal 0 0.707107 -0.707107
    outer loop
      vertex 27.5532 -47.7434 -46.3292
      vertex 24.8744 -43.1704 -41.7562
      vertex 30.6408 -41.2419 -39.8277
    endloop
  endfacet
  facet normal -9.25694e-06 0.707104 -0.707109
    outer loop
      vertex 20.9005 -49.4266 -48.0123
      vertex 24.8744 -43.1704 -41.7562
      vertex 27.5532 -47.7434 -46.3292
    endloop
  endfacet
  facet normal 3.40711e-06 0.7071 -0.707114
    outer loop
      vertex 20.9005 -49.4266 -48.0123
      vertex 18.8685 -44.6899 -43.2757
      vertex 24.8744 -43.1704 -41.7562
    endloop
  endfacet
  facet normal 1.20455e-05 0.707102 -0.707112
    outer loop
      vertex 14.0465 -50.6405 -49.2263
      vertex 18.8685 -44.6899 -43.2757
      vertex 20.9005 -49.4266 -48.0123
    endloop
  endfacet
  facet normal 0 0.707107 -0.707107
    outer loop
      vertex 14.0465 -50.6405 -49.2263
      vertex 12.6809 -45.7859 -44.3717
      vertex 18.8685 -44.6899 -43.2757
    endloop
  endfacet
  facet normal 0 0.707107 -0.707107
    outer loop
      vertex 7.05723 -51.3736 -49.9594
      vertex 12.6809 -45.7859 -44.3717
      vertex 14.0465 -50.6405 -49.2263
    endloop
  endfacet
  facet normal 0 0.707107 -0.707107
    outer loop
      vertex 7.05723 -51.3736 -49.9594
      vertex 6.37111 -46.4477 -45.0335
      vertex 12.6809 -45.7859 -44.3717
    endloop
  endfacet
  facet normal 0 0.707107 -0.707107
    outer loop
      vertex 0 -51.6188 -50.2046
      vertex 6.37111 -46.4477 -45.0335
      vertex 7.05723 -51.3736 -49.9594
    endloop
  endfacet
  facet normal 7.96604e-16 0.707107 -0.707107
    outer loop
      vertex 0 -51.6188 -50.2046
      vertex 0 -46.669 -45.2548
      vertex 6.37111 -46.4477 -45.0335
    endloop
  endfacet
  facet normal -7.96604e-16 0.707107 -0.707107
    outer loop
      vertex 0 -51.6188 -50.2046
      vertex -6.37111 -46.4477 -45.0335
      vertex 0 -46.669 -45.2548
    endloop
  endfacet
  facet normal 0 0.707107 -0.707107
    outer loop
      vertex -7.05723 -51.3736 -49.9594
      vertex -6.37111 -46.4477 -45.0335
      vertex 0 -51.6188 -50.2046
    endloop
  endfacet
  facet normal 0 0.707107 -0.707107
    outer loop
      vertex -7.05723 -51.3736 -49.9594
      vertex -12.6809 -45.7859 -44.3717
      vertex -6.37111 -46.4477 -45.0335
    endloop
  endfacet
  facet normal 0 0.707107 -0.707107
    outer loop
      vertex -14.0465 -50.6405 -49.2263
      vertex -12.6809 -45.7859 -44.3717
      vertex -7.05723 -51.3736 -49.9594
    endloop
  endfacet
  facet normal 0 0.707107 -0.707107
    outer loop
      vertex -14.0465 -50.6405 -49.2263
      vertex -18.8685 -44.6899 -43.2757
      vertex -12.6809 -45.7859 -44.3717
    endloop
  endfacet
  facet normal -1.20455e-05 0.707102 -0.707112
    outer loop
      vertex -20.9005 -49.4266 -48.0123
      vertex -18.8685 -44.6899 -43.2757
      vertex -14.0465 -50.6405 -49.2263
    endloop
  endfacet
  facet normal -3.40711e-06 0.7071 -0.707114
    outer loop
      vertex -20.9005 -49.4266 -48.0123
      vertex -24.8744 -43.1704 -41.7562
      vertex -18.8685 -44.6899 -43.2757
    endloop
  endfacet
  facet normal 9.25694e-06 0.707104 -0.707109
    outer loop
      vertex -27.5532 -47.7434 -46.3292
      vertex -24.8744 -43.1704 -41.7562
      vertex -20.9005 -49.4266 -48.0123
    endloop
  endfacet
  facet normal 0 0.707107 -0.707107
    outer loop
      vertex -27.5532 -47.7434 -46.3292
      vertex -30.6408 -41.2419 -39.8277
      vertex -24.8744 -43.1704 -41.7562
    endloop
  endfacet
  facet normal 0 0.707107 -0.707107
    outer loop
      vertex -33.9406 -45.6072 -44.193
      vertex -30.6408 -41.2419 -39.8277
      vertex -27.5532 -47.7434 -46.3292
    endloop
  endfacet
  facet normal 0 0.707107 -0.707107
    outer loop
      vertex -33.9406 -45.6072 -44.193
      vertex -36.1121 -38.9231 -37.5089
      vertex -30.6408 -41.2419 -39.8277
    endloop
  endfacet
  facet normal 0 0.707107 -0.707107
    outer loop
      vertex -40.0011 -43.0386 -41.6244
      vertex -36.1121 -38.9231 -37.5089
      vertex -33.9406 -45.6072 -44.193
    endloop
  endfacet
  facet normal 6.37295e-16 0.707107 -0.707107
    outer loop
      vertex -40.0011 -43.0386 -41.6244
      vertex -41.2356 -36.2362 -34.822
      vertex -36.1121 -38.9231 -37.5089
    endloop
  endfacet
  facet normal 5.39383e-16 0.707107 -0.707107
    outer loop
      vertex -45.6763 -40.0624 -38.6482
      vertex -41.2356 -36.2362 -34.822
      vertex -40.0011 -43.0386 -41.6244
    endloop
  endfacet
  facet normal -2.38986e-16 0.707107 -0.707107
    outer loop
      vertex -45.6763 -40.0624 -38.6482
      vertex -45.9619 -33.2071 -31.7929
      vertex -41.2356 -36.2362 -34.822
    endloop
  endfacet
  facet normal 2.51704e-16 0.707107 -0.707107
    outer loop
      vertex -50.9117 -36.7071 -35.2929
      vertex -45.9619 -33.2071 -31.7929
      vertex -45.6763 -40.0624 -38.6482
    endloop
  endfacet
  facet normal -7.84783e-06 0.707112 -0.707101
    outer loop
      vertex -45.9619 -33.2071 -31.7929
      vertex -50.9117 -36.7071 -35.2929
      vertex -50.2457 -29.8651 -28.4508
    endloop
  endfacet
  facet normal 7.49378e-06 0.707112 -0.707102
    outer loop
      vertex -55.6568 -33.0051 -31.5909
      vertex -50.2457 -29.8651 -28.4508
      vertex -50.9117 -36.7071 -35.2929
    endloop
  endfacet
  facet normal 1.51643e-05 0.707105 -0.707109
    outer loop
      vertex -50.2457 -29.8651 -28.4508
      vertex -55.6568 -33.0051 -31.5909
      vertex -54.0455 -26.2422 -24.828
    endloop
  endfacet
  facet normal -1.79793e-16 0.707107 -0.707107
    outer loop
      vertex -59.8658 -28.9921 -27.5779
      vertex -54.0455 -26.2422 -24.828
      vertex -55.6568 -33.0051 -31.5909
    endloop
  endfacet
  facet normal 0 0.707107 -0.707107
    outer loop
      vertex -54.0455 -26.2422 -24.828
      vertex -59.8658 -28.9921 -27.5779
      vertex -57.3249 -22.3734 -20.9592
    endloop
  endfacet
  facet normal 0 0.707107 -0.707107
    outer loop
      vertex -63.4983 -24.7067 -23.2925
      vertex -57.3249 -22.3734 -20.9592
      vertex -59.8658 -28.9921 -27.5779
    endloop
  endfacet
  facet normal 0 0.707107 -0.707107
    outer loop
      vertex -57.3249 -22.3734 -20.9592
      vertex -63.4983 -24.7067 -23.2925
      vertex -60.0522 -18.296 -16.8818
    endloop
  endfacet
  facet normal 0 0.707107 -0.707107
    outer loop
      vertex -66.5193 -20.1902 -18.776
      vertex -60.0522 -18.296 -16.8818
      vertex -63.4983 -24.7067 -23.2925
    endloop
  endfacet
  facet normal -4.24732e-06 0.707114 -0.7071
    outer loop
      vertex -60.0522 -18.296 -16.8818
      vertex -66.5193 -20.1902 -18.776
      vertex -62.2011 -14.0492 -12.6349
    endloop
  endfacet
  facet normal 9.52247e-06 0.707109 -0.707104
    outer loop
      vertex -68.8997 -15.486 -14.0718
      vertex -62.2011 -14.0492 -12.6349
      vertex -66.5193 -20.1902 -18.776
    endloop
  endfacet
  facet normal 1.2388e-05 0.707103 -0.707111
    outer loop
      vertex -62.2011 -14.0492 -12.6349
      vertex -68.8997 -15.486 -14.0718
      vertex -63.751 -9.67384 -8.25962
    endloop
  endfacet
  facet normal -1.56748e-06 0.707109 -0.707105
    outer loop
      vertex -70.6165 -10.6395 -9.22527
      vertex -63.751 -9.67384 -8.25962
      vertex -68.8997 -15.486 -14.0718
    endloop
  endfacet
  facet normal 1.56748e-06 0.707105 -0.707109
    outer loop
      vertex 70.6165 9.22527 10.6395
      vertex 63.751 8.25962 9.67384
      vertex 68.8997 14.0718 15.486
    endloop
  endfacet
  facet normal -1.2388e-05 0.707111 -0.707103
    outer loop
      vertex 62.2011 12.6349 14.0492
      vertex 68.8997 14.0718 15.486
      vertex 63.751 8.25962 9.67384
    endloop
  endfacet
  facet normal -9.52247e-06 0.707104 -0.707109
    outer loop
      vertex 68.8997 14.0718 15.486
      vertex 62.2011 12.6349 14.0492
      vertex 66.5193 18.776 20.1902
    endloop
  endfacet
  facet normal 4.24732e-06 0.7071 -0.707114
    outer loop
      vertex 60.0522 16.8818 18.296
      vertex 66.5193 18.776 20.1902
      vertex 62.2011 12.6349 14.0492
    endloop
  endfacet
  facet normal 0 0.707107 -0.707107
    outer loop
      vertex 66.5193 18.776 20.1902
      vertex 60.0522 16.8818 18.296
      vertex 63.4983 23.2925 24.7067
    endloop
  endfacet
  facet normal 0 0.707107 -0.707107
    outer loop
      vertex 57.3249 20.9592 22.3734
      vertex 63.4983 23.2925 24.7067
      vertex 60.0522 16.8818 18.296
    endloop
  endfacet
  facet normal 0 0.707107 -0.707107
    outer loop
      vertex 63.4983 23.2925 24.7067
      vertex 57.3249 20.9592 22.3734
      vertex 59.8658 27.5779 28.9921
    endloop
  endfacet
  facet normal 0 0.707107 -0.707107
    outer loop
      vertex 54.0455 24.828 26.2422
      vertex 59.8658 27.5779 28.9921
      vertex 57.3249 20.9592 22.3734
    endloop
  endfacet
  facet normal 1.79793e-16 0.707107 -0.707107
    outer loop
      vertex 59.8658 27.5779 28.9921
      vertex 54.0455 24.828 26.2422
      vertex 55.6568 31.5909 33.0051
    endloop
  endfacet
  facet normal -1.51643e-05 0.707109 -0.707105
    outer loop
      vertex 50.2457 28.4508 29.8651
      vertex 55.6568 31.5909 33.0051
      vertex 54.0455 24.828 26.2422
    endloop
  endfacet
  facet normal -7.49378e-06 0.707102 -0.707112
    outer loop
      vertex 55.6568 31.5909 33.0051
      vertex 50.2457 28.4508 29.8651
      vertex 50.9117 35.2929 36.7071
    endloop
  endfacet
  facet normal 7.84783e-06 0.707101 -0.707112
    outer loop
      vertex 45.9619 31.7929 33.2071
      vertex 50.9117 35.2929 36.7071
      vertex 50.2457 28.4508 29.8651
    endloop
  endfacet
  facet normal -2.15746e-16 0.707107 -0.707107
    outer loop
      vertex 45.9619 31.7929 33.2071
      vertex 45.6763 38.6482 40.0624
      vertex 50.9117 35.2929 36.7071
    endloop
  endfacet
  facet normal 3.18648e-16 0.707107 -0.707107
    outer loop
      vertex 41.2356 34.822 36.2362
      vertex 45.6763 38.6482 40.0624
      vertex 45.9619 31.7929 33.2071
    endloop
  endfacet
  facet normal -5.75342e-16 0.707107 -0.707107
    outer loop
      vertex 41.2356 34.822 36.2362
      vertex 40.0011 41.6244 43.0386
      vertex 45.6763 38.6482 40.0624
    endloop
  endfacet
  facet normal -6.77126e-16 0.707107 -0.707107
    outer loop
      vertex 36.1121 37.5089 38.9231
      vertex 40.0011 41.6244 43.0386
      vertex 41.2356 34.822 36.2362
    endloop
  endfacet
  facet normal 0 0.707107 -0.707107
    outer loop
      vertex 36.1121 37.5089 38.9231
      vertex 33.9406 44.193 45.6072
      vertex 40.0011 41.6244 43.0386
    endloop
  endfacet
  facet normal 0 0.707107 -0.707107
    outer loop
      vertex 30.6408 39.8277 41.2419
      vertex 33.9406 44.193 45.6072
      vertex 36.1121 37.5089 38.9231
    endloop
  endfacet
  facet normal 0 0.707107 -0.707107
    outer loop
      vertex 30.6408 39.8277 41.2419
      vertex 27.5532 46.3292 47.7434
      vertex 33.9406 44.193 45.6072
    endloop
  endfacet
  facet normal 0 0.707107 -0.707107
    outer loop
      vertex 24.8744 41.7562 43.1704
      vertex 27.5532 46.3292 47.7434
      vertex 30.6408 39.8277 41.2419
    endloop
  endfacet
  facet normal -9.25694e-06 0.707109 -0.707104
    outer loop
      vertex 24.8744 41.7562 43.1704
      vertex 20.9005 48.0123 49.4266
      vertex 27.5532 46.3292 47.7434
    endloop
  endfacet
  facet normal 3.40711e-06 0.707114 -0.7071
    outer loop
      vertex 18.8685 43.2757 44.6899
      vertex 20.9005 48.0123 49.4266
      vertex 24.8744 41.7562 43.1704
    endloop
  endfacet
  facet normal 1.20455e-05 0.707112 -0.707102
    outer loop
      vertex 18.8685 43.2757 44.6899
      vertex 14.0465 49.2263 50.6405
      vertex 20.9005 48.0123 49.4266
    endloop
  endfacet
  facet normal 0 0.707107 -0.707107
    outer loop
      vertex 12.6809 44.3717 45.7859
      vertex 14.0465 49.2263 50.6405
      vertex 18.8685 43.2757 44.6899
    endloop
  endfacet
  facet normal 0 0.707107 -0.707107
    outer loop
      vertex 12.6809 44.3717 45.7859
      vertex 7.05723 49.9594 51.3736
      vertex 14.0465 49.2263 50.6405
    endloop
  endfacet
  facet normal 0 0.707107 -0.707107
    outer loop
      vertex 6.37111 45.0335 46.4477
      vertex 7.05723 49.9594 51.3736
      vertex 12.6809 44.3717 45.7859
    endloop
  endfacet
  facet normal 7.96604e-16 0.707107 -0.707107
    outer loop
      vertex 0 50.2046 51.6188
      vertex 6.37111 45.0335 46.4477
      vertex 0 45.2548 46.669
    endloop
  endfacet
  facet normal 0 0.707107 -0.707107
    outer loop
      vertex 6.37111 45.0335 46.4477
      vertex 0 50.2046 51.6188
      vertex 7.05723 49.9594 51.3736
    endloop
  endfacet
  facet normal -8.26477e-16 0.707107 -0.707107
    outer loop
      vertex -6.37111 45.0335 46.4477
      vertex 0 50.2046 51.6188
      vertex 0 45.2548 46.669
    endloop
  endfacet
  facet normal 0 0.707107 -0.707107
    outer loop
      vertex -6.37111 45.0335 46.4477
      vertex -7.05723 49.9594 51.3736
      vertex 0 50.2046 51.6188
    endloop
  endfacet
  facet normal 0 0.707107 -0.707107
    outer loop
      vertex -12.6809 44.3717 45.7859
      vertex -7.05723 49.9594 51.3736
      vertex -6.37111 45.0335 46.4477
    endloop
  endfacet
  facet normal 0 0.707107 -0.707107
    outer loop
      vertex -12.6809 44.3717 45.7859
      vertex -14.0465 49.2263 50.6405
      vertex -7.05723 49.9594 51.3736
    endloop
  endfacet
  facet normal 0 0.707107 -0.707107
    outer loop
      vertex -18.8685 43.2757 44.6899
      vertex -14.0465 49.2263 50.6405
      vertex -12.6809 44.3717 45.7859
    endloop
  endfacet
  facet normal -1.20455e-05 0.707112 -0.707102
    outer loop
      vertex -18.8685 43.2757 44.6899
      vertex -20.9005 48.0123 49.4266
      vertex -14.0465 49.2263 50.6405
    endloop
  endfacet
  facet normal -3.40711e-06 0.707114 -0.7071
    outer loop
      vertex -24.8744 41.7562 43.1704
      vertex -20.9005 48.0123 49.4266
      vertex -18.8685 43.2757 44.6899
    endloop
  endfacet
  facet normal 9.25694e-06 0.707109 -0.707104
    outer loop
      vertex -24.8744 41.7562 43.1704
      vertex -27.5532 46.3292 47.7434
      vertex -20.9005 48.0123 49.4266
    endloop
  endfacet
  facet normal 0 0.707107 -0.707107
    outer loop
      vertex -30.6408 39.8277 41.2419
      vertex -27.5532 46.3292 47.7434
      vertex -24.8744 41.7562 43.1704
    endloop
  endfacet
  facet normal 0 0.707107 -0.707107
    outer loop
      vertex -30.6408 39.8277 41.2419
      vertex -33.9406 44.193 45.6072
      vertex -27.5532 46.3292 47.7434
    endloop
  endfacet
  facet normal 0 0.707107 -0.707107
    outer loop
      vertex -36.1121 37.5089 38.9231
      vertex -33.9406 44.193 45.6072
      vertex -30.6408 39.8277 41.2419
    endloop
  endfacet
  facet normal 0 0.707107 -0.707107
    outer loop
      vertex -36.1121 37.5089 38.9231
      vertex -40.0011 41.6244 43.0386
      vertex -33.9406 44.193 45.6072
    endloop
  endfacet
  facet normal 6.37295e-16 0.707107 -0.707107
    outer loop
      vertex -41.2356 34.822 36.2362
      vertex -40.0011 41.6244 43.0386
      vertex -36.1121 37.5089 38.9231
    endloop
  endfacet
  facet normal 5.75342e-16 0.707107 -0.707107
    outer loop
      vertex -41.2356 34.822 36.2362
      vertex -45.6763 38.6482 40.0624
      vertex -40.0011 41.6244 43.0386
    endloop
  endfacet
  facet normal -3.18648e-16 0.707107 -0.707107
    outer loop
      vertex -45.9619 31.7929 33.2071
      vertex -45.6763 38.6482 40.0624
      vertex -41.2356 34.822 36.2362
    endloop
  endfacet
  facet normal -7.84783e-06 0.707101 -0.707112
    outer loop
      vertex -50.9117 35.2929 36.7071
      vertex -45.9619 31.7929 33.2071
      vertex -50.2457 28.4508 29.8651
    endloop
  endfacet
  facet normal 2.15746e-16 0.707107 -0.707107
    outer loop
      vertex -45.9619 31.7929 33.2071
      vertex -50.9117 35.2929 36.7071
      vertex -45.6763 38.6482 40.0624
    endloop
  endfacet
  facet normal 1.51643e-05 0.707109 -0.707105
    outer loop
      vertex -55.6568 31.5909 33.0051
      vertex -50.2457 28.4508 29.8651
      vertex -54.0455 24.828 26.2422
    endloop
  endfacet
  facet normal 7.49378e-06 0.707102 -0.707112
    outer loop
      vertex -50.2457 28.4508 29.8651
      vertex -55.6568 31.5909 33.0051
      vertex -50.9117 35.2929 36.7071
    endloop
  endfacet
  facet normal 0 0.707107 -0.707107
    outer loop
      vertex -59.8658 27.5779 28.9921
      vertex -54.0455 24.828 26.2422
      vertex -57.3249 20.9592 22.3734
    endloop
  endfacet
  facet normal -2.15751e-16 0.707107 -0.707107
    outer loop
      vertex -54.0455 24.828 26.2422
      vertex -59.8658 27.5779 28.9921
      vertex -55.6568 31.5909 33.0051
    endloop
  endfacet
  facet normal 0 0.707107 -0.707107
    outer loop
      vertex -63.4983 23.2925 24.7067
      vertex -57.3249 20.9592 22.3734
      vertex -60.0522 16.8818 18.296
    endloop
  endfacet
  facet normal -4.24732e-06 0.7071 -0.707114
    outer loop
      vertex -66.5193 18.776 20.1902
      vertex -60.0522 16.8818 18.296
      vertex -62.2011 12.6349 14.0492
    endloop
  endfacet
  facet normal 0 0.707107 -0.707107
    outer loop
      vertex -57.3249 20.9592 22.3734
      vertex -63.4983 23.2925 24.7067
      vertex -59.8658 27.5779 28.9921
    endloop
  endfacet
  facet normal 1.2388e-05 0.707111 -0.707103
    outer loop
      vertex -68.8997 14.0718 15.486
      vertex -62.2011 12.6349 14.0492
      vertex -63.751 8.25962 9.67384
    endloop
  endfacet
  facet normal -7.83898e-07 0.707108 -0.707106
    outer loop
      vertex -70.6165 9.22527 10.6395
      vertex -63.751 8.25962 9.67384
      vertex -64.687 3.79795 5.21216
    endloop
  endfacet
  facet normal -4.35142e-08 0.707106 -0.707107
    outer loop
      vertex -71.6533 4.28311 5.69732
      vertex -64.687 3.79795 5.21216
      vertex -65 -0.707107 0.707107
    endloop
  endfacet
  facet normal -7.83898e-07 0.707106 -0.707108
    outer loop
      vertex -63.751 -9.67384 -8.25962
      vertex -70.6165 -10.6395 -9.22527
      vertex -64.687 -5.21216 -3.79795
    endloop
  endfacet
  facet normal 0 0.707107 -0.707107
    outer loop
      vertex -60.0522 16.8818 18.296
      vertex -66.5193 18.776 20.1902
      vertex -63.4983 23.2925 24.7067
    endloop
  endfacet
  facet normal 1.96418e-07 0.707105 -0.707108
    outer loop
      vertex -71.6533 -5.69732 -4.28311
      vertex -64.687 -5.21216 -3.79795
      vertex -70.6165 -10.6395 -9.22527
    endloop
  endfacet
  facet normal 9.52247e-06 0.707104 -0.707109
    outer loop
      vertex -62.2011 12.6349 14.0492
      vertex -68.8997 14.0718 15.486
      vertex -66.5193 18.776 20.1902
    endloop
  endfacet
  facet normal -4.35142e-08 0.707107 -0.707106
    outer loop
      vertex -64.687 -5.21216 -3.79795
      vertex -71.6533 -5.69732 -4.28311
      vertex -65 -0.707107 0.707107
    endloop
  endfacet
  facet normal -1.56748e-06 0.707105 -0.707109
    outer loop
      vertex -63.751 8.25962 9.67384
      vertex -70.6165 9.22527 10.6395
      vertex -68.8997 14.0718 15.486
    endloop
  endfacet
  facet normal 0 0.707107 -0.707106
    outer loop
      vertex -72 -0.707107 0.707107
      vertex -65 -0.707107 0.707107
      vertex -71.6533 -5.69732 -4.28311
    endloop
  endfacet
  facet normal 1.96418e-07 0.707108 -0.707105
    outer loop
      vertex -64.687 3.79795 5.21216
      vertex -71.6533 4.28311 5.69732
      vertex -70.6165 9.22527 10.6395
    endloop
  endfacet
  facet normal 0 0.707106 -0.707107
    outer loop
      vertex -65 -0.707107 0.707107
      vertex -72 -0.707107 0.707107
      vertex -71.6533 4.28311 5.69732
    endloop
  endfacet
  facet normal -0.146724 -0.699454 -0.699454
    outer loop
      vertex 6.37111 45.0335 46.4477
      vertex 12.6809 42.2504 47.9072
      vertex 6.37111 42.9122 48.569
    endloop
  endfacet
  facet normal -0.146724 -0.699454 -0.699454
    outer loop
      vertex 12.6809 42.2504 47.9072
      vertex 6.37111 45.0335 46.4477
      vertex 12.6809 44.3717 45.7859
    endloop
  endfacet
  facet normal -0.989176 -0.103759 -0.103757
    outer loop
      vertex 64.687 3.79795 5.21216
      vertex 63.751 6.1383 11.7952
      vertex 63.751 8.25962 9.67384
    endloop
  endfacet
  facet normal -0.989176 -0.103757 -0.103757
    outer loop
      vertex 63.751 6.1383 11.7952
      vertex 64.687 3.79795 5.21216
      vertex 64.687 1.67663 7.33348
    endloop
  endfacet
  facet normal -0.998795 -0.0346969 -0.0346969
    outer loop
      vertex 65 -0.707107 0.707107
      vertex 64.687 1.67663 7.33348
      vertex 64.687 3.79795 5.21216
    endloop
  endfacet
  facet normal -0.998795 -0.0346969 -0.0346969
    outer loop
      vertex 64.687 1.67663 7.33348
      vertex 65 -0.707107 0.707107
      vertex 65 -2.82843 2.82843
    endloop
  endfacet
  facet normal -0.970032 -0.171811 -0.171811
    outer loop
      vertex 63.751 8.25962 9.67384
      vertex 62.2011 10.5136 16.1705
      vertex 62.2011 12.6349 14.0492
    endloop
  endfacet
  facet normal -0.970032 -0.171813 -0.17181
    outer loop
      vertex 62.2011 10.5136 16.1705
      vertex 63.751 8.25962 9.67384
      vertex 63.751 6.1383 11.7952
    endloop
  endfacet
  facet normal -0.336893 0.665771 0.665771
    outer loop
      vertex 24.8744 -43.1704 -41.7562
      vertex 18.8685 -46.8113 -41.1544
      vertex 24.8744 -45.2917 -39.6349
    endloop
  endfacet
  facet normal -0.336883 0.665758 0.66579
    outer loop
      vertex 18.8685 -46.8113 -41.1544
      vertex 24.8744 -43.1704 -41.7562
      vertex 18.8685 -44.6899 -43.2757
    endloop
  endfacet
  facet normal -0.903987 0.302338 0.302323
    outer loop
      vertex 57.3249 -22.3734 -20.9592
      vertex 60.0522 -20.4173 -14.7604
      vertex 60.0522 -18.296 -16.8818
    endloop
  endfacet
  facet normal -0.903989 0.302327 0.302327
    outer loop
      vertex 60.0522 -20.4173 -14.7604
      vertex 57.3249 -22.3734 -20.9592
      vertex 57.3249 -24.4947 -18.8379
    endloop
  endfacet
  facet normal 0.336893 0.665771 0.665771
    outer loop
      vertex -18.8685 -46.8113 -41.1544
      vertex -24.8744 -43.1704 -41.7562
      vertex -24.8744 -45.2917 -39.6349
    endloop
  endfacet
  facet normal 0.336883 0.665758 0.66579
    outer loop
      vertex -24.8744 -43.1704 -41.7562
      vertex -18.8685 -46.8113 -41.1544
      vertex -18.8685 -44.6899 -43.2757
    endloop
  endfacet
  facet normal -0.67157 -0.523912 -0.523937
    outer loop
      vertex 45.9619 31.7929 33.2071
      vertex 41.2356 32.7006 38.3575
      vertex 41.2356 34.822 36.2362
    endloop
  endfacet
  facet normal -0.671564 -0.523929 -0.523929
    outer loop
      vertex 41.2356 32.7006 38.3575
      vertex 45.9619 31.7929 33.2071
      vertex 45.9619 29.6716 35.3284
    endloop
  endfacet
  facet normal 0.740946 -0.474868 -0.474868
    outer loop
      vertex -45.9619 29.6716 35.3284
      vertex -50.2457 28.4508 29.8651
      vertex -45.9619 31.7929 33.2071
    endloop
  endfacet
  facet normal 0.740946 -0.474868 -0.474868
    outer loop
      vertex -50.2457 28.4508 29.8651
      vertex -45.9619 29.6716 35.3284
      vertex -50.2457 26.3295 31.9864
    endloop
  endfacet
  facet normal 0.146724 0.699454 0.699454
    outer loop
      vertex -6.37111 -48.569 -42.9122
      vertex -12.6809 -45.7859 -44.3717
      vertex -12.6809 -47.9072 -42.2504
    endloop
  endfacet
  facet normal 0.146724 0.699454 0.699454
    outer loop
      vertex -12.6809 -45.7859 -44.3717
      vertex -6.37111 -48.569 -42.9122
      vertex -6.37111 -46.4477 -45.0335
    endloop
  endfacet
  facet normal -0.941547 -0.238205 -0.238216
    outer loop
      vertex 62.2011 12.6349 14.0492
      vertex 60.0522 14.7604 20.4173
      vertex 60.0522 16.8818 18.296
    endloop
  endfacet
  facet normal -0.941546 -0.238213 -0.238213
    outer loop
      vertex 60.0522 14.7604 20.4173
      vertex 62.2011 12.6349 14.0492
      vertex 62.2011 10.5136 16.1705
    endloop
  endfacet
  facet normal 0.0490745 -0.706271 -0.706238
    outer loop
      vertex -6.37111 42.9122 48.569
      vertex 0 45.2548 46.669
      vertex 0 43.1335 48.7904
    endloop
  endfacet
  facet normal 0.0490634 -0.706255 -0.706255
    outer loop
      vertex 0 45.2548 46.669
      vertex -6.37111 42.9122 48.569
      vertex -6.37111 45.0335 46.4477
    endloop
  endfacet
  facet normal -0.80321 -0.421221 -0.421221
    outer loop
      vertex 54.0455 24.828 26.2422
      vertex 50.2457 26.3295 31.9864
      vertex 50.2457 28.4508 29.8651
    endloop
  endfacet
  facet normal -0.80321 -0.421221 -0.421221
    outer loop
      vertex 50.2457 26.3295 31.9864
      vertex 54.0455 24.828 26.2422
      vertex 54.0455 22.7067 28.3635
    endloop
  endfacet
  facet normal -0.0490745 0.706255 0.706255
    outer loop
      vertex 6.37111 -46.4477 -45.0335
      vertex 0 -48.7904 -43.1335
      vertex 6.37111 -48.569 -42.9122
    endloop
  endfacet
  facet normal -0.0490634 0.706239 0.706272
    outer loop
      vertex 0 -48.7904 -43.1335
      vertex 6.37111 -46.4477 -45.0335
      vertex 0 -46.669 -45.2548
    endloop
  endfacet
  facet normal -0.0490745 -0.706271 -0.706238
    outer loop
      vertex 0 45.2548 46.669
      vertex 6.37111 42.9122 48.569
      vertex 0 43.1335 48.7904
    endloop
  endfacet
  facet normal -0.0490634 -0.706255 -0.706255
    outer loop
      vertex 6.37111 42.9122 48.569
      vertex 0 45.2548 46.669
      vertex 6.37111 45.0335 46.4477
    endloop
  endfacet
  facet normal -0.857727 0.363527 0.363527
    outer loop
      vertex 54.0455 -26.2422 -24.828
      vertex 57.3249 -24.4947 -18.8379
      vertex 57.3249 -22.3734 -20.9592
    endloop
  endfacet
  facet normal -0.857727 0.363527 0.363527
    outer loop
      vertex 57.3249 -24.4947 -18.8379
      vertex 54.0455 -26.2422 -24.828
      vertex 54.0455 -28.3635 -22.7067
    endloop
  endfacet
  facet normal 0.5957 0.567967 0.56794
    outer loop
      vertex -41.2356 -38.3575 -32.7006
      vertex -36.1121 -38.9231 -37.5089
      vertex -41.2356 -36.2362 -34.822
    endloop
  endfacet
  facet normal 0.5957 0.567967 0.56794
    outer loop
      vertex -36.1121 -38.9231 -37.5089
      vertex -41.2356 -38.3575 -32.7006
      vertex -36.1121 -41.0444 -35.3875
    endloop
  endfacet
  facet normal 0.857727 -0.363527 -0.363527
    outer loop
      vertex -54.0455 22.7067 28.3635
      vertex -57.3249 20.9592 22.3734
      vertex -54.0455 24.828 26.2422
    endloop
  endfacet
  facet normal 0.857727 -0.363527 -0.363527
    outer loop
      vertex -57.3249 20.9592 22.3734
      vertex -54.0455 22.7067 28.3635
      vertex -57.3249 18.8379 24.4947
    endloop
  endfacet
  facet normal 0.242979 0.6859 0.685932
    outer loop
      vertex -12.6809 -47.9072 -42.2504
      vertex -18.8685 -44.6899 -43.2757
      vertex -18.8685 -46.8113 -41.1544
    endloop
  endfacet
  facet normal 0.24299 0.685914 0.685914
    outer loop
      vertex -18.8685 -44.6899 -43.2757
      vertex -12.6809 -47.9072 -42.2504
      vertex -12.6809 -45.7859 -44.3717
    endloop
  endfacet
  facet normal -0.857727 -0.363527 -0.363527
    outer loop
      vertex 57.3249 20.9592 22.3734
      vertex 54.0455 22.7067 28.3635
      vertex 54.0455 24.828 26.2422
    endloop
  endfacet
  facet normal -0.857727 -0.363527 -0.363527
    outer loop
      vertex 54.0455 22.7067 28.3635
      vertex 57.3249 20.9592 22.3734
      vertex 57.3249 18.8379 24.4947
    endloop
  endfacet
  facet normal 0.998795 0.0346969 0.0346969
    outer loop
      vertex -65 -2.82843 2.82843
      vertex -64.687 -5.21216 -3.79795
      vertex -65 -0.707107 0.707107
    endloop
  endfacet
  facet normal 0.998795 0.0346969 0.0346969
    outer loop
      vertex -64.687 -5.21216 -3.79795
      vertex -65 -2.82843 2.82843
      vertex -64.687 -7.33348 -1.67663
    endloop
  endfacet
  facet normal -0.903987 -0.30233 -0.30233
    outer loop
      vertex 60.0522 16.8818 18.296
      vertex 57.3249 18.8379 24.4947
      vertex 57.3249 20.9592 22.3734
    endloop
  endfacet
  facet normal -0.903989 -0.30232 -0.302335
    outer loop
      vertex 57.3249 18.8379 24.4947
      vertex 60.0522 16.8818 18.296
      vertex 60.0522 14.7604 20.4173
    endloop
  endfacet
  facet normal -0.970032 0.171809 0.171812
    outer loop
      vertex 62.2011 -14.0492 -12.6349
      vertex 63.751 -11.7952 -6.1383
      vertex 63.751 -9.67384 -8.25962
    endloop
  endfacet
  facet normal -0.970032 0.171811 0.171811
    outer loop
      vertex 63.751 -11.7952 -6.1383
      vertex 62.2011 -14.0492 -12.6349
      vertex 62.2011 -16.1705 -10.5136
    endloop
  endfacet
  facet normal 0.970032 -0.171811 -0.171811
    outer loop
      vertex -62.2011 10.5136 16.1705
      vertex -63.751 8.25962 9.67384
      vertex -62.2011 12.6349 14.0492
    endloop
  endfacet
  facet normal 0.970032 -0.171813 -0.17181
    outer loop
      vertex -63.751 8.25962 9.67384
      vertex -62.2011 10.5136 16.1705
      vertex -63.751 6.1383 11.7952
    endloop
  endfacet
  facet normal 0.427556 0.639217 0.639217
    outer loop
      vertex -24.8744 -45.2917 -39.6349
      vertex -30.6408 -41.2419 -39.8277
      vertex -30.6408 -43.3632 -37.7064
    endloop
  endfacet
  facet normal 0.427556 0.639217 0.639217
    outer loop
      vertex -30.6408 -41.2419 -39.8277
      vertex -24.8744 -45.2917 -39.6349
      vertex -24.8744 -43.1704 -41.7562
    endloop
  endfacet
  facet normal 0.970032 0.171809 0.171812
    outer loop
      vertex -63.751 -11.7952 -6.1383
      vertex -62.2011 -14.0492 -12.6349
      vertex -63.751 -9.67384 -8.25962
    endloop
  endfacet
  facet normal 0.970032 0.171811 0.171811
    outer loop
      vertex -62.2011 -14.0492 -12.6349
      vertex -63.751 -11.7952 -6.1383
      vertex -62.2011 -16.1705 -10.5136
    endloop
  endfacet
  facet normal -0.336893 -0.665787 -0.665756
    outer loop
      vertex 18.8685 43.2757 44.6899
      vertex 24.8744 39.6349 45.2917
      vertex 18.8685 41.1544 46.8113
    endloop
  endfacet
  facet normal -0.336883 -0.665774 -0.665774
    outer loop
      vertex 24.8744 39.6349 45.2917
      vertex 18.8685 43.2757 44.6899
      vertex 24.8744 41.7562 43.1704
    endloop
  endfacet
  facet normal -0.989176 0.103758 0.103758
    outer loop
      vertex 63.751 -9.67384 -8.25962
      vertex 64.687 -7.33348 -1.67663
      vertex 64.687 -5.21216 -3.79795
    endloop
  endfacet
  facet normal -0.989176 0.103757 0.103758
    outer loop
      vertex 64.687 -7.33348 -1.67663
      vertex 63.751 -9.67384 -8.25962
      vertex 63.751 -11.7952 -6.1383
    endloop
  endfacet
  facet normal 0.146724 -0.699454 -0.699454
    outer loop
      vertex -12.6809 42.2504 47.9072
      vertex -6.37111 45.0335 46.4477
      vertex -6.37111 42.9122 48.569
    endloop
  endfacet
  facet normal 0.146724 -0.699454 -0.699454
    outer loop
      vertex -6.37111 45.0335 46.4477
      vertex -12.6809 42.2504 47.9072
      vertex -12.6809 44.3717 45.7859
    endloop
  endfacet
  facet normal -0.427556 0.639217 0.639217
    outer loop
      vertex 30.6408 -41.2419 -39.8277
      vertex 24.8744 -45.2917 -39.6349
      vertex 30.6408 -43.3632 -37.7064
    endloop
  endfacet
  facet normal -0.427556 0.639217 0.639217
    outer loop
      vertex 24.8744 -45.2917 -39.6349
      vertex 30.6408 -41.2419 -39.8277
      vertex 24.8744 -43.1704 -41.7562
    endloop
  endfacet
  facet normal 0.67157 -0.523912 -0.523937
    outer loop
      vertex -41.2356 32.7006 38.3575
      vertex -45.9619 31.7929 33.2071
      vertex -41.2356 34.822 36.2362
    endloop
  endfacet
  facet normal 0.671564 -0.523929 -0.523929
    outer loop
      vertex -45.9619 31.7929 33.2071
      vertex -41.2356 32.7006 38.3575
      vertex -45.9619 29.6716 35.3284
    endloop
  endfacet
  facet normal 0.5957 -0.56794 -0.567967
    outer loop
      vertex -36.1121 35.3875 41.0444
      vertex -41.2356 34.822 36.2362
      vertex -36.1121 37.5089 38.9231
    endloop
  endfacet
  facet normal 0.5957 -0.56794 -0.567967
    outer loop
      vertex -41.2356 34.822 36.2362
      vertex -36.1121 35.3875 41.0444
      vertex -41.2356 32.7006 38.3575
    endloop
  endfacet
  facet normal -0.242979 -0.685916 -0.685916
    outer loop
      vertex 12.6809 44.3717 45.7859
      vertex 18.8685 41.1544 46.8113
      vertex 12.6809 42.2504 47.9072
    endloop
  endfacet
  facet normal -0.24299 -0.68593 -0.685898
    outer loop
      vertex 18.8685 41.1544 46.8113
      vertex 12.6809 44.3717 45.7859
      vertex 18.8685 43.2757 44.6899
    endloop
  endfacet
  facet normal -0.998795 0.0346969 0.0346969
    outer loop
      vertex 64.687 -5.21216 -3.79795
      vertex 65 -2.82843 2.82843
      vertex 65 -0.707107 0.707107
    endloop
  endfacet
  facet normal -0.998795 0.0346969 0.0346969
    outer loop
      vertex 65 -2.82843 2.82843
      vertex 64.687 -5.21216 -3.79795
      vertex 64.687 -7.33348 -1.67663
    endloop
  endfacet
  facet normal 0.427556 -0.639217 -0.639217
    outer loop
      vertex -30.6408 37.7064 43.3632
      vertex -24.8744 41.7562 43.1704
      vertex -24.8744 39.6349 45.2917
    endloop
  endfacet
  facet normal 0.427556 -0.639217 -0.639217
    outer loop
      vertex -24.8744 41.7562 43.1704
      vertex -30.6408 37.7064 43.3632
      vertex -30.6408 39.8277 41.2419
    endloop
  endfacet
  facet normal 0.941547 0.238211 0.238211
    outer loop
      vertex -62.2011 -16.1705 -10.5136
      vertex -60.0522 -18.296 -16.8818
      vertex -62.2011 -14.0492 -12.6349
    endloop
  endfacet
  facet normal 0.941546 0.238219 0.238208
    outer loop
      vertex -60.0522 -18.296 -16.8818
      vertex -62.2011 -16.1705 -10.5136
      vertex -60.0522 -20.4173 -14.7604
    endloop
  endfacet
  facet normal -0.5141 -0.606507 -0.606507
    outer loop
      vertex 30.6408 39.8277 41.2419
      vertex 36.1121 35.3875 41.0444
      vertex 30.6408 37.7064 43.3632
    endloop
  endfacet
  facet normal -0.514092 -0.606496 -0.606525
    outer loop
      vertex 36.1121 35.3875 41.0444
      vertex 30.6408 39.8277 41.2419
      vertex 36.1121 37.5089 38.9231
    endloop
  endfacet
  facet normal -0.5957 -0.56794 -0.567967
    outer loop
      vertex 41.2356 34.822 36.2362
      vertex 36.1121 35.3875 41.0444
      vertex 36.1121 37.5089 38.9231
    endloop
  endfacet
  facet normal -0.5957 -0.56794 -0.567967
    outer loop
      vertex 36.1121 35.3875 41.0444
      vertex 41.2356 34.822 36.2362
      vertex 41.2356 32.7006 38.3575
    endloop
  endfacet
  facet normal -0.146724 0.699454 0.699454
    outer loop
      vertex 12.6809 -45.7859 -44.3717
      vertex 6.37111 -48.569 -42.9122
      vertex 12.6809 -47.9072 -42.2504
    endloop
  endfacet
  facet normal -0.146724 0.699454 0.699454
    outer loop
      vertex 6.37111 -48.569 -42.9122
      vertex 12.6809 -45.7859 -44.3717
      vertex 6.37111 -46.4477 -45.0335
    endloop
  endfacet
  facet normal -0.740946 0.474868 0.474868
    outer loop
      vertex 45.9619 -33.2071 -31.7929
      vertex 50.2457 -31.9864 -26.3295
      vertex 50.2457 -29.8651 -28.4508
    endloop
  endfacet
  facet normal -0.740946 0.474868 0.474868
    outer loop
      vertex 50.2457 -31.9864 -26.3295
      vertex 45.9619 -33.2071 -31.7929
      vertex 45.9619 -35.3284 -29.6716
    endloop
  endfacet
  facet normal -0.80321 0.421221 0.421221
    outer loop
      vertex 50.2457 -29.8651 -28.4508
      vertex 54.0455 -28.3635 -22.7067
      vertex 54.0455 -26.2422 -24.828
    endloop
  endfacet
  facet normal -0.80321 0.421221 0.421221
    outer loop
      vertex 54.0455 -28.3635 -22.7067
      vertex 50.2457 -29.8651 -28.4508
      vertex 50.2457 -31.9864 -26.3295
    endloop
  endfacet
  facet normal -0.242979 0.6859 0.685932
    outer loop
      vertex 18.8685 -44.6899 -43.2757
      vertex 12.6809 -47.9072 -42.2504
      vertex 18.8685 -46.8113 -41.1544
    endloop
  endfacet
  facet normal -0.24299 0.685914 0.685914
    outer loop
      vertex 12.6809 -47.9072 -42.2504
      vertex 18.8685 -44.6899 -43.2757
      vertex 12.6809 -45.7859 -44.3717
    endloop
  endfacet
  facet normal -0.941547 0.238211 0.238211
    outer loop
      vertex 60.0522 -18.296 -16.8818
      vertex 62.2011 -16.1705 -10.5136
      vertex 62.2011 -14.0492 -12.6349
    endloop
  endfacet
  facet normal -0.941546 0.238219 0.238208
    outer loop
      vertex 62.2011 -16.1705 -10.5136
      vertex 60.0522 -18.296 -16.8818
      vertex 60.0522 -20.4173 -14.7604
    endloop
  endfacet
  facet normal 0.242979 -0.685916 -0.685916
    outer loop
      vertex -18.8685 41.1544 46.8113
      vertex -12.6809 44.3717 45.7859
      vertex -12.6809 42.2504 47.9072
    endloop
  endfacet
  facet normal 0.24299 -0.68593 -0.685898
    outer loop
      vertex -12.6809 44.3717 45.7859
      vertex -18.8685 41.1544 46.8113
      vertex -18.8685 43.2757 44.6899
    endloop
  endfacet
  facet normal 0.903987 0.302338 0.302323
    outer loop
      vertex -60.0522 -20.4173 -14.7604
      vertex -57.3249 -22.3734 -20.9592
      vertex -60.0522 -18.296 -16.8818
    endloop
  endfacet
  facet normal 0.903989 0.302327 0.302327
    outer loop
      vertex -57.3249 -22.3734 -20.9592
      vertex -60.0522 -20.4173 -14.7604
      vertex -57.3249 -24.4947 -18.8379
    endloop
  endfacet
  facet normal 0.989176 -0.103759 -0.103757
    outer loop
      vertex -63.751 6.1383 11.7952
      vertex -64.687 3.79795 5.21216
      vertex -63.751 8.25962 9.67384
    endloop
  endfacet
  facet normal 0.989176 -0.103757 -0.103757
    outer loop
      vertex -64.687 3.79795 5.21216
      vertex -63.751 6.1383 11.7952
      vertex -64.687 1.67663 7.33348
    endloop
  endfacet
  facet normal -0.427556 -0.639217 -0.639217
    outer loop
      vertex 24.8744 41.7562 43.1704
      vertex 30.6408 37.7064 43.3632
      vertex 24.8744 39.6349 45.2917
    endloop
  endfacet
  facet normal -0.427556 -0.639217 -0.639217
    outer loop
      vertex 30.6408 37.7064 43.3632
      vertex 24.8744 41.7562 43.1704
      vertex 30.6408 39.8277 41.2419
    endloop
  endfacet
  facet normal 0.740946 0.474868 0.474868
    outer loop
      vertex -50.2457 -31.9864 -26.3295
      vertex -45.9619 -33.2071 -31.7929
      vertex -50.2457 -29.8651 -28.4508
    endloop
  endfacet
  facet normal 0.740946 0.474868 0.474868
    outer loop
      vertex -45.9619 -33.2071 -31.7929
      vertex -50.2457 -31.9864 -26.3295
      vertex -45.9619 -35.3284 -29.6716
    endloop
  endfacet
  facet normal 0.857727 0.363527 0.363527
    outer loop
      vertex -57.3249 -24.4947 -18.8379
      vertex -54.0455 -26.2422 -24.828
      vertex -57.3249 -22.3734 -20.9592
    endloop
  endfacet
  facet normal 0.857727 0.363527 0.363527
    outer loop
      vertex -54.0455 -26.2422 -24.828
      vertex -57.3249 -24.4947 -18.8379
      vertex -54.0455 -28.3635 -22.7067
    endloop
  endfacet
  facet normal 0.336893 -0.665787 -0.665756
    outer loop
      vertex -24.8744 39.6349 45.2917
      vertex -18.8685 43.2757 44.6899
      vertex -18.8685 41.1544 46.8113
    endloop
  endfacet
  facet normal 0.336883 -0.665774 -0.665774
    outer loop
      vertex -18.8685 43.2757 44.6899
      vertex -24.8744 39.6349 45.2917
      vertex -24.8744 41.7562 43.1704
    endloop
  endfacet
  facet normal 0.5141 0.606521 0.606492
    outer loop
      vertex -30.6408 -43.3632 -37.7064
      vertex -36.1121 -38.9231 -37.5089
      vertex -36.1121 -41.0444 -35.3875
    endloop
  endfacet
  facet normal 0.514092 0.60651 0.60651
    outer loop
      vertex -36.1121 -38.9231 -37.5089
      vertex -30.6408 -43.3632 -37.7064
      vertex -30.6408 -41.2419 -39.8277
    endloop
  endfacet
  facet normal 0.941547 -0.238205 -0.238216
    outer loop
      vertex -60.0522 14.7604 20.4173
      vertex -62.2011 12.6349 14.0492
      vertex -60.0522 16.8818 18.296
    endloop
  endfacet
  facet normal 0.941546 -0.238213 -0.238213
    outer loop
      vertex -62.2011 12.6349 14.0492
      vertex -60.0522 14.7604 20.4173
      vertex -62.2011 10.5136 16.1705
    endloop
  endfacet
  facet normal -0.5957 0.567967 0.56794
    outer loop
      vertex 36.1121 -38.9231 -37.5089
      vertex 41.2356 -38.3575 -32.7006
      vertex 41.2356 -36.2362 -34.822
    endloop
  endfacet
  facet normal -0.5957 0.567967 0.56794
    outer loop
      vertex 41.2356 -38.3575 -32.7006
      vertex 36.1121 -38.9231 -37.5089
      vertex 36.1121 -41.0444 -35.3875
    endloop
  endfacet
  facet normal -0.740946 -0.474868 -0.474868
    outer loop
      vertex 50.2457 28.4508 29.8651
      vertex 45.9619 29.6716 35.3284
      vertex 45.9619 31.7929 33.2071
    endloop
  endfacet
  facet normal -0.740946 -0.474868 -0.474868
    outer loop
      vertex 45.9619 29.6716 35.3284
      vertex 50.2457 28.4508 29.8651
      vertex 50.2457 26.3295 31.9864
    endloop
  endfacet
  facet normal 0.80321 0.421221 0.421221
    outer loop
      vertex -54.0455 -28.3635 -22.7067
      vertex -50.2457 -29.8651 -28.4508
      vertex -54.0455 -26.2422 -24.828
    endloop
  endfacet
  facet normal 0.80321 0.421221 0.421221
    outer loop
      vertex -50.2457 -29.8651 -28.4508
      vertex -54.0455 -28.3635 -22.7067
      vertex -50.2457 -31.9864 -26.3295
    endloop
  endfacet
  facet normal 0.5141 -0.606492 -0.606521
    outer loop
      vertex -36.1121 37.5089 38.9231
      vertex -30.6408 37.7064 43.3632
      vertex -36.1121 35.3875 41.0444
    endloop
  endfacet
  facet normal 0.514092 -0.60651 -0.60651
    outer loop
      vertex -30.6408 37.7064 43.3632
      vertex -36.1121 37.5089 38.9231
      vertex -30.6408 39.8277 41.2419
    endloop
  endfacet
  facet normal 0.989176 0.103758 0.103758
    outer loop
      vertex -64.687 -7.33348 -1.67663
      vertex -63.751 -9.67384 -8.25962
      vertex -64.687 -5.21216 -3.79795
    endloop
  endfacet
  facet normal 0.989176 0.103757 0.103758
    outer loop
      vertex -63.751 -9.67384 -8.25962
      vertex -64.687 -7.33348 -1.67663
      vertex -63.751 -11.7952 -6.1383
    endloop
  endfacet
  facet normal 0.903987 -0.30233 -0.30233
    outer loop
      vertex -57.3249 18.8379 24.4947
      vertex -60.0522 16.8818 18.296
      vertex -57.3249 20.9592 22.3734
    endloop
  endfacet
  facet normal 0.903989 -0.30232 -0.302335
    outer loop
      vertex -60.0522 16.8818 18.296
      vertex -57.3249 18.8379 24.4947
      vertex -60.0522 14.7604 20.4173
    endloop
  endfacet
  facet normal -0.5141 0.606521 0.606492
    outer loop
      vertex 36.1121 -38.9231 -37.5089
      vertex 30.6408 -43.3632 -37.7064
      vertex 36.1121 -41.0444 -35.3875
    endloop
  endfacet
  facet normal -0.514092 0.60651 0.60651
    outer loop
      vertex 30.6408 -43.3632 -37.7064
      vertex 36.1121 -38.9231 -37.5089
      vertex 30.6408 -41.2419 -39.8277
    endloop
  endfacet
  facet normal 0.67157 0.523925 0.523925
    outer loop
      vertex -45.9619 -35.3284 -29.6716
      vertex -41.2356 -36.2362 -34.822
      vertex -45.9619 -33.2071 -31.7929
    endloop
  endfacet
  facet normal 0.671564 0.523941 0.523916
    outer loop
      vertex -41.2356 -36.2362 -34.822
      vertex -45.9619 -35.3284 -29.6716
      vertex -41.2356 -38.3575 -32.7006
    endloop
  endfacet
  facet normal 0.80321 -0.421221 -0.421221
    outer loop
      vertex -50.2457 26.3295 31.9864
      vertex -54.0455 24.828 26.2422
      vertex -50.2457 28.4508 29.8651
    endloop
  endfacet
  facet normal 0.80321 -0.421221 -0.421221
    outer loop
      vertex -54.0455 24.828 26.2422
      vertex -50.2457 26.3295 31.9864
      vertex -54.0455 22.7067 28.3635
    endloop
  endfacet
  facet normal 0.0490745 0.706255 0.706255
    outer loop
      vertex 0 -48.7904 -43.1335
      vertex -6.37111 -46.4477 -45.0335
      vertex -6.37111 -48.569 -42.9122
    endloop
  endfacet
  facet normal 0.0490634 0.706239 0.706272
    outer loop
      vertex -6.37111 -46.4477 -45.0335
      vertex 0 -48.7904 -43.1335
      vertex 0 -46.669 -45.2548
    endloop
  endfacet
  facet normal 0.998795 -0.0346969 -0.0346969
    outer loop
      vertex -64.687 1.67663 7.33348
      vertex -65 -0.707107 0.707107
      vertex -64.687 3.79795 5.21216
    endloop
  endfacet
  facet normal 0.998795 -0.0346969 -0.0346969
    outer loop
      vertex -65 -0.707107 0.707107
      vertex -64.687 1.67663 7.33348
      vertex -65 -2.82843 2.82843
    endloop
  endfacet
  facet normal -0.67157 0.523925 0.523925
    outer loop
      vertex 41.2356 -36.2362 -34.822
      vertex 45.9619 -35.3284 -29.6716
      vertex 45.9619 -33.2071 -31.7929
    endloop
  endfacet
  facet normal -0.671564 0.523941 0.523916
    outer loop
      vertex 45.9619 -35.3284 -29.6716
      vertex 41.2356 -36.2362 -34.822
      vertex 41.2356 -38.3575 -32.7006
    endloop
  endfacet
endsolid OpenSCAD_Model
